<?xml version="1.0" encoding="utf-8" standalone="no"?>
<!DOCTYPE svg PUBLIC "-//W3C//DTD SVG 1.1//EN"
  "http://www.w3.org/Graphics/SVG/1.1/DTD/svg11.dtd">
<svg xmlns:xlink="http://www.w3.org/1999/xlink" width="930.24pt" height="478.8pt" viewBox="0 0 930.24 478.8" xmlns="http://www.w3.org/2000/svg" version="1.1">
 <metadata>
  <rdf:RDF xmlns:dc="http://purl.org/dc/elements/1.1/" xmlns:cc="http://creativecommons.org/ns#" xmlns:rdf="http://www.w3.org/1999/02/22-rdf-syntax-ns#">
   <cc:Work>
    <dc:type rdf:resource="http://purl.org/dc/dcmitype/StillImage"/>
    <dc:date>2022-11-28T16:30:22.845799</dc:date>
    <dc:format>image/svg+xml</dc:format>
    <dc:creator>
     <cc:Agent>
      <dc:title>Matplotlib v3.5.2, https://matplotlib.org/</dc:title>
     </cc:Agent>
    </dc:creator>
   </cc:Work>
  </rdf:RDF>
 </metadata>
 <defs>
  <style type="text/css">*{stroke-linejoin: round; stroke-linecap: butt}</style>
 </defs>
 <g id="figure_1">
  <g id="patch_1">
   <path d="M 0 478.8 
L 930.24 478.8 
L 930.24 0 
L 0 0 
z
" style="fill: #ffffff"/>
  </g>
  <g id="axes_1">
   <g id="patch_2">
    <path d="M 116.28 426.132 
L 443.978182 426.132 
L 443.978182 57.456 
L 116.28 57.456 
z
" style="fill: #eaeaf2"/>
   </g>
   <g id="matplotlib.axis_1">
    <g id="xtick_1">
     <g id="line2d_1">
      <path d="M 128.039504 426.132 
L 128.039504 57.456 
" clip-path="url(#p0dae8b7480)" style="fill: none; stroke: #ffffff; stroke-linecap: round"/>
     </g>
     <g id="text_1">
      <!-- 0 -->
      <g style="fill: #262626" transform="translate(123.140379 447.333594)scale(0.154 -0.154)">
       <defs>
        <path id="DejaVuSans-30" d="M 2034 4250 
Q 1547 4250 1301 3770 
Q 1056 3291 1056 2328 
Q 1056 1369 1301 889 
Q 1547 409 2034 409 
Q 2525 409 2770 889 
Q 3016 1369 3016 2328 
Q 3016 3291 2770 3770 
Q 2525 4250 2034 4250 
z
M 2034 4750 
Q 2819 4750 3233 4129 
Q 3647 3509 3647 2328 
Q 3647 1150 3233 529 
Q 2819 -91 2034 -91 
Q 1250 -91 836 529 
Q 422 1150 422 2328 
Q 422 3509 836 4129 
Q 1250 4750 2034 4750 
z
" transform="scale(0.015625)"/>
       </defs>
       <use xlink:href="#DejaVuSans-30"/>
      </g>
     </g>
    </g>
    <g id="xtick_2">
     <g id="line2d_2">
      <path d="M 190.75686 426.132 
L 190.75686 57.456 
" clip-path="url(#p0dae8b7480)" style="fill: none; stroke: #ffffff; stroke-linecap: round"/>
     </g>
     <g id="text_2">
      <!-- 20 -->
      <g style="fill: #262626" transform="translate(180.95861 447.333594)scale(0.154 -0.154)">
       <defs>
        <path id="DejaVuSans-32" d="M 1228 531 
L 3431 531 
L 3431 0 
L 469 0 
L 469 531 
Q 828 903 1448 1529 
Q 2069 2156 2228 2338 
Q 2531 2678 2651 2914 
Q 2772 3150 2772 3378 
Q 2772 3750 2511 3984 
Q 2250 4219 1831 4219 
Q 1534 4219 1204 4116 
Q 875 4013 500 3803 
L 500 4441 
Q 881 4594 1212 4672 
Q 1544 4750 1819 4750 
Q 2544 4750 2975 4387 
Q 3406 4025 3406 3419 
Q 3406 3131 3298 2873 
Q 3191 2616 2906 2266 
Q 2828 2175 2409 1742 
Q 1991 1309 1228 531 
z
" transform="scale(0.015625)"/>
       </defs>
       <use xlink:href="#DejaVuSans-32"/>
       <use xlink:href="#DejaVuSans-30" x="63.623047"/>
      </g>
     </g>
    </g>
    <g id="xtick_3">
     <g id="line2d_3">
      <path d="M 253.474215 426.132 
L 253.474215 57.456 
" clip-path="url(#p0dae8b7480)" style="fill: none; stroke: #ffffff; stroke-linecap: round"/>
     </g>
     <g id="text_3">
      <!-- 40 -->
      <g style="fill: #262626" transform="translate(243.675965 447.333594)scale(0.154 -0.154)">
       <defs>
        <path id="DejaVuSans-34" d="M 2419 4116 
L 825 1625 
L 2419 1625 
L 2419 4116 
z
M 2253 4666 
L 3047 4666 
L 3047 1625 
L 3713 1625 
L 3713 1100 
L 3047 1100 
L 3047 0 
L 2419 0 
L 2419 1100 
L 313 1100 
L 313 1709 
L 2253 4666 
z
" transform="scale(0.015625)"/>
       </defs>
       <use xlink:href="#DejaVuSans-34"/>
       <use xlink:href="#DejaVuSans-30" x="63.623047"/>
      </g>
     </g>
    </g>
    <g id="xtick_4">
     <g id="line2d_4">
      <path d="M 316.19157 426.132 
L 316.19157 57.456 
" clip-path="url(#p0dae8b7480)" style="fill: none; stroke: #ffffff; stroke-linecap: round"/>
     </g>
     <g id="text_4">
      <!-- 60 -->
      <g style="fill: #262626" transform="translate(306.39332 447.333594)scale(0.154 -0.154)">
       <defs>
        <path id="DejaVuSans-36" d="M 2113 2584 
Q 1688 2584 1439 2293 
Q 1191 2003 1191 1497 
Q 1191 994 1439 701 
Q 1688 409 2113 409 
Q 2538 409 2786 701 
Q 3034 994 3034 1497 
Q 3034 2003 2786 2293 
Q 2538 2584 2113 2584 
z
M 3366 4563 
L 3366 3988 
Q 3128 4100 2886 4159 
Q 2644 4219 2406 4219 
Q 1781 4219 1451 3797 
Q 1122 3375 1075 2522 
Q 1259 2794 1537 2939 
Q 1816 3084 2150 3084 
Q 2853 3084 3261 2657 
Q 3669 2231 3669 1497 
Q 3669 778 3244 343 
Q 2819 -91 2113 -91 
Q 1303 -91 875 529 
Q 447 1150 447 2328 
Q 447 3434 972 4092 
Q 1497 4750 2381 4750 
Q 2619 4750 2861 4703 
Q 3103 4656 3366 4563 
z
" transform="scale(0.015625)"/>
       </defs>
       <use xlink:href="#DejaVuSans-36"/>
       <use xlink:href="#DejaVuSans-30" x="63.623047"/>
      </g>
     </g>
    </g>
    <g id="xtick_5">
     <g id="line2d_5">
      <path d="M 378.908926 426.132 
L 378.908926 57.456 
" clip-path="url(#p0dae8b7480)" style="fill: none; stroke: #ffffff; stroke-linecap: round"/>
     </g>
     <g id="text_5">
      <!-- 80 -->
      <g style="fill: #262626" transform="translate(369.110676 447.333594)scale(0.154 -0.154)">
       <defs>
        <path id="DejaVuSans-38" d="M 2034 2216 
Q 1584 2216 1326 1975 
Q 1069 1734 1069 1313 
Q 1069 891 1326 650 
Q 1584 409 2034 409 
Q 2484 409 2743 651 
Q 3003 894 3003 1313 
Q 3003 1734 2745 1975 
Q 2488 2216 2034 2216 
z
M 1403 2484 
Q 997 2584 770 2862 
Q 544 3141 544 3541 
Q 544 4100 942 4425 
Q 1341 4750 2034 4750 
Q 2731 4750 3128 4425 
Q 3525 4100 3525 3541 
Q 3525 3141 3298 2862 
Q 3072 2584 2669 2484 
Q 3125 2378 3379 2068 
Q 3634 1759 3634 1313 
Q 3634 634 3220 271 
Q 2806 -91 2034 -91 
Q 1263 -91 848 271 
Q 434 634 434 1313 
Q 434 1759 690 2068 
Q 947 2378 1403 2484 
z
M 1172 3481 
Q 1172 3119 1398 2916 
Q 1625 2713 2034 2713 
Q 2441 2713 2670 2916 
Q 2900 3119 2900 3481 
Q 2900 3844 2670 4047 
Q 2441 4250 2034 4250 
Q 1625 4250 1398 4047 
Q 1172 3844 1172 3481 
z
" transform="scale(0.015625)"/>
       </defs>
       <use xlink:href="#DejaVuSans-38"/>
       <use xlink:href="#DejaVuSans-30" x="63.623047"/>
      </g>
     </g>
    </g>
    <g id="xtick_6">
     <g id="line2d_6">
      <path d="M 441.626281 426.132 
L 441.626281 57.456 
" clip-path="url(#p0dae8b7480)" style="fill: none; stroke: #ffffff; stroke-linecap: round"/>
     </g>
     <g id="text_6">
      <!-- 100 -->
      <g style="fill: #262626" transform="translate(426.928906 447.333594)scale(0.154 -0.154)">
       <defs>
        <path id="DejaVuSans-31" d="M 794 531 
L 1825 531 
L 1825 4091 
L 703 3866 
L 703 4441 
L 1819 4666 
L 2450 4666 
L 2450 531 
L 3481 531 
L 3481 0 
L 794 0 
L 794 531 
z
" transform="scale(0.015625)"/>
       </defs>
       <use xlink:href="#DejaVuSans-31"/>
       <use xlink:href="#DejaVuSans-30" x="63.623047"/>
       <use xlink:href="#DejaVuSans-30" x="127.246094"/>
      </g>
     </g>
    </g>
   </g>
   <g id="matplotlib.axis_2">
    <g id="ytick_1">
     <g id="line2d_7">
      <path d="M 116.28 350.418432 
L 443.978182 350.418432 
" clip-path="url(#p0dae8b7480)" style="fill: none; stroke: #ffffff; stroke-linecap: round"/>
     </g>
     <g id="text_7">
      <!-- 0.6 -->
      <g style="fill: #262626" transform="translate(82.289187 356.269229)scale(0.154 -0.154)">
       <defs>
        <path id="DejaVuSans-2e" d="M 684 794 
L 1344 794 
L 1344 0 
L 684 0 
L 684 794 
z
" transform="scale(0.015625)"/>
       </defs>
       <use xlink:href="#DejaVuSans-30"/>
       <use xlink:href="#DejaVuSans-2e" x="63.623047"/>
       <use xlink:href="#DejaVuSans-36" x="95.410156"/>
      </g>
     </g>
    </g>
    <g id="ytick_2">
     <g id="line2d_8">
      <path d="M 116.28 273.488607 
L 443.978182 273.488607 
" clip-path="url(#p0dae8b7480)" style="fill: none; stroke: #ffffff; stroke-linecap: round"/>
     </g>
     <g id="text_8">
      <!-- 0.7 -->
      <g style="fill: #262626" transform="translate(82.289187 279.339403)scale(0.154 -0.154)">
       <defs>
        <path id="DejaVuSans-37" d="M 525 4666 
L 3525 4666 
L 3525 4397 
L 1831 0 
L 1172 0 
L 2766 4134 
L 525 4134 
L 525 4666 
z
" transform="scale(0.015625)"/>
       </defs>
       <use xlink:href="#DejaVuSans-30"/>
       <use xlink:href="#DejaVuSans-2e" x="63.623047"/>
       <use xlink:href="#DejaVuSans-37" x="95.410156"/>
      </g>
     </g>
    </g>
    <g id="ytick_3">
     <g id="line2d_9">
      <path d="M 116.28 196.558781 
L 443.978182 196.558781 
" clip-path="url(#p0dae8b7480)" style="fill: none; stroke: #ffffff; stroke-linecap: round"/>
     </g>
     <g id="text_9">
      <!-- 0.8 -->
      <g style="fill: #262626" transform="translate(82.289187 202.409578)scale(0.154 -0.154)">
       <use xlink:href="#DejaVuSans-30"/>
       <use xlink:href="#DejaVuSans-2e" x="63.623047"/>
       <use xlink:href="#DejaVuSans-38" x="95.410156"/>
      </g>
     </g>
    </g>
    <g id="ytick_4">
     <g id="line2d_10">
      <path d="M 116.28 119.628956 
L 443.978182 119.628956 
" clip-path="url(#p0dae8b7480)" style="fill: none; stroke: #ffffff; stroke-linecap: round"/>
     </g>
     <g id="text_10">
      <!-- 0.9 -->
      <g style="fill: #262626" transform="translate(82.289187 125.479753)scale(0.154 -0.154)">
       <defs>
        <path id="DejaVuSans-39" d="M 703 97 
L 703 672 
Q 941 559 1184 500 
Q 1428 441 1663 441 
Q 2288 441 2617 861 
Q 2947 1281 2994 2138 
Q 2813 1869 2534 1725 
Q 2256 1581 1919 1581 
Q 1219 1581 811 2004 
Q 403 2428 403 3163 
Q 403 3881 828 4315 
Q 1253 4750 1959 4750 
Q 2769 4750 3195 4129 
Q 3622 3509 3622 2328 
Q 3622 1225 3098 567 
Q 2575 -91 1691 -91 
Q 1453 -91 1209 -44 
Q 966 3 703 97 
z
M 1959 2075 
Q 2384 2075 2632 2365 
Q 2881 2656 2881 3163 
Q 2881 3666 2632 3958 
Q 2384 4250 1959 4250 
Q 1534 4250 1286 3958 
Q 1038 3666 1038 3163 
Q 1038 2656 1286 2365 
Q 1534 2075 1959 2075 
z
" transform="scale(0.015625)"/>
       </defs>
       <use xlink:href="#DejaVuSans-30"/>
       <use xlink:href="#DejaVuSans-2e" x="63.623047"/>
       <use xlink:href="#DejaVuSans-39" x="95.410156"/>
      </g>
     </g>
    </g>
   </g>
   <g id="line2d_11">
    <path d="M 131.175372 407.217085 
L 134.31124 407.336901 
L 137.447107 408.295566 
L 140.582975 407.576579 
L 143.718843 407.696395 
L 146.854711 405.898974 
L 149.990579 402.903256 
L 153.126446 399.308414 
L 156.262314 392.478177 
L 159.398182 388.763519 
L 162.53405 375.222907 
L 165.669917 362.521098 
L 168.805785 350.418413 
L 171.941653 336.15886 
L 175.077521 318.783729 
L 178.213388 303.206064 
L 181.349256 284.632636 
L 184.485124 271.092024 
L 187.620992 254.196247 
L 190.75686 243.291859 
L 193.892727 231.428852 
L 197.028595 224.598615 
L 200.164463 213.334733 
L 203.300331 204.467443 
L 206.436198 192.244943 
L 209.572066 182.778528 
L 212.707934 178.105206 
L 215.843802 166.362015 
L 218.979669 164.68441 
L 222.115537 151.9826 
L 225.251405 147.668817 
L 228.387273 142.276508 
L 231.52314 137.004061 
L 234.659008 136.524751 
L 237.794876 131.37212 
L 240.930744 130.772995 
L 244.066612 124.901422 
L 247.202479 123.104001 
L 250.338347 121.426396 
L 253.474215 120.707409 
L 256.610083 119.988422 
L 259.74595 117.951369 
L 262.881818 115.554777 
L 266.017686 117.112567 
L 269.153554 118.430678 
L 272.289421 117.47206 
L 275.425289 115.315146 
L 278.561157 114.596159 
L 281.697025 116.992751 
L 284.832893 113.397863 
L 287.96876 110.881501 
L 291.104628 115.075468 
L 294.240496 111.720303 
L 297.376364 110.761639 
L 300.512231 109.563389 
L 303.648099 105.489191 
L 306.783967 104.290941 
L 309.919835 107.166797 
L 313.055702 103.931448 
L 316.19157 103.69177 
L 319.327438 101.41504 
L 322.463306 101.41504 
L 325.599174 99.497803 
L 328.735041 98.898632 
L 331.870909 100.336606 
L 335.006777 96.861579 
L 338.142645 96.741718 
L 341.278512 95.423606 
L 344.41438 95.064158 
L 347.550248 92.427934 
L 350.686116 94.824481 
L 353.821983 93.865862 
L 356.957851 95.423606 
L 360.093719 88.233921 
L 363.229587 92.907244 
L 366.365455 90.27102 
L 369.501322 86.196823 
L 372.63719 85.477882 
L 375.773058 86.4365 
L 378.908926 85.477882 
L 382.044793 86.077007 
L 385.180661 86.676132 
L 388.316529 82.482165 
L 391.452397 85.118388 
L 394.588264 84.399402 
L 397.724132 83.201106 
L 400.86 82.242487 
L 403.995868 80.804559 
L 407.131736 82.002855 
L 410.267603 81.882994 
L 413.403471 81.403684 
L 416.539339 78.647645 
L 419.675207 81.643362 
L 422.811074 80.205434 
L 425.946942 78.04852 
L 429.08281 74.214 
" clip-path="url(#p0dae8b7480)" style="fill: none; stroke: #4c72b0; stroke-width: 1.5; stroke-linecap: round"/>
   </g>
   <g id="line2d_12">
    <path d="M 131.175372 409.374 
L 134.31124 409.374 
L 137.447107 409.374 
L 140.582975 409.374 
L 143.718843 407.936072 
L 146.854711 404.341184 
L 149.990579 399.308414 
L 153.126446 390.680756 
L 156.262314 378.817749 
L 159.398182 375.941894 
L 162.53405 337.117479 
L 165.669917 295.417208 
L 168.805785 263.42303 
L 171.941653 239.337523 
L 175.077521 237.899595 
L 178.213388 226.396036 
L 181.349256 227.83401 
L 184.485124 207.343345 
L 187.620992 205.18643 
L 190.75686 210.2192 
L 193.892727 197.9967 
L 197.028595 192.604437 
L 200.164463 195.480338 
L 203.300331 187.212173 
L 206.436198 167.799989 
L 209.572066 184.336272 
L 212.707934 164.924087 
L 215.843802 171.754324 
L 218.979669 148.747251 
L 222.115537 147.309324 
L 225.251405 157.374909 
L 228.387273 151.263659 
L 231.52314 152.342094 
L 234.659008 137.962679 
L 237.794876 137.243738 
L 240.930744 137.603231 
L 244.066612 132.210922 
L 247.202479 131.132488 
L 250.338347 134.72733 
L 253.474215 131.491981 
L 256.610083 130.772995 
L 259.74595 127.178152 
L 262.881818 129.69456 
L 266.017686 129.335067 
L 269.153554 128.256587 
L 272.289421 125.021238 
L 275.425289 129.69456 
L 278.561157 138.322172 
L 281.697025 125.021238 
L 284.832893 122.50483 
L 287.96876 129.335067 
L 291.104628 127.178152 
L 294.240496 146.590337 
L 297.376364 122.864323 
L 300.512231 132.210922 
L 303.648099 133.289402 
L 306.783967 133.648896 
L 309.919835 134.008343 
L 313.055702 133.648896 
L 316.19157 121.066902 
L 319.327438 122.145337 
L 322.463306 121.785889 
L 325.599174 133.289402 
L 328.735041 124.661744 
L 331.870909 131.132488 
L 335.006777 123.58331 
L 338.142645 133.648896 
L 341.278512 129.69456 
L 344.41438 122.864323 
L 347.550248 122.50483 
L 350.686116 119.628975 
L 353.821983 119.628975 
L 356.957851 119.988422 
L 360.093719 120.707409 
L 363.229587 118.909988 
L 366.365455 126.459166 
L 369.501322 120.707409 
L 372.63719 117.47206 
L 375.773058 118.550494 
L 378.908926 121.426396 
L 382.044793 116.753073 
L 385.180661 124.302251 
L 388.316529 117.112567 
L 391.452397 118.550494 
L 394.588264 118.191001 
L 397.724132 117.47206 
L 400.86 114.236665 
L 403.995868 117.831508 
L 407.131736 117.112567 
L 410.267603 114.596159 
L 413.403471 115.315146 
L 416.539339 117.831508 
L 419.675207 118.550494 
L 422.811074 115.674639 
L 425.946942 113.517724 
L 429.08281 113.877172 
" clip-path="url(#p0dae8b7480)" style="fill: none; stroke: #c44e52; stroke-width: 1.5; stroke-linecap: round"/>
   </g>
   <g id="patch_3">
    <path d="M 116.28 426.132 
L 116.28 57.456 
" style="fill: none; stroke: #ffffff; stroke-width: 1.25; stroke-linejoin: miter; stroke-linecap: square"/>
   </g>
   <g id="patch_4">
    <path d="M 443.978182 426.132 
L 443.978182 57.456 
" style="fill: none; stroke: #ffffff; stroke-width: 1.25; stroke-linejoin: miter; stroke-linecap: square"/>
   </g>
   <g id="patch_5">
    <path d="M 116.28 426.132 
L 443.978182 426.132 
" style="fill: none; stroke: #ffffff; stroke-width: 1.25; stroke-linejoin: miter; stroke-linecap: square"/>
   </g>
   <g id="patch_6">
    <path d="M 116.28 57.456 
L 443.978182 57.456 
" style="fill: none; stroke: #ffffff; stroke-width: 1.25; stroke-linejoin: miter; stroke-linecap: square"/>
   </g>
   <g id="text_11">
    <!-- Training and validation accuracy -->
    <g style="fill: #262626" transform="translate(143.920466 51.456)scale(0.168 -0.168)">
     <defs>
      <path id="DejaVuSans-54" d="M -19 4666 
L 3928 4666 
L 3928 4134 
L 2272 4134 
L 2272 0 
L 1638 0 
L 1638 4134 
L -19 4134 
L -19 4666 
z
" transform="scale(0.015625)"/>
      <path id="DejaVuSans-72" d="M 2631 2963 
Q 2534 3019 2420 3045 
Q 2306 3072 2169 3072 
Q 1681 3072 1420 2755 
Q 1159 2438 1159 1844 
L 1159 0 
L 581 0 
L 581 3500 
L 1159 3500 
L 1159 2956 
Q 1341 3275 1631 3429 
Q 1922 3584 2338 3584 
Q 2397 3584 2469 3576 
Q 2541 3569 2628 3553 
L 2631 2963 
z
" transform="scale(0.015625)"/>
      <path id="DejaVuSans-61" d="M 2194 1759 
Q 1497 1759 1228 1600 
Q 959 1441 959 1056 
Q 959 750 1161 570 
Q 1363 391 1709 391 
Q 2188 391 2477 730 
Q 2766 1069 2766 1631 
L 2766 1759 
L 2194 1759 
z
M 3341 1997 
L 3341 0 
L 2766 0 
L 2766 531 
Q 2569 213 2275 61 
Q 1981 -91 1556 -91 
Q 1019 -91 701 211 
Q 384 513 384 1019 
Q 384 1609 779 1909 
Q 1175 2209 1959 2209 
L 2766 2209 
L 2766 2266 
Q 2766 2663 2505 2880 
Q 2244 3097 1772 3097 
Q 1472 3097 1187 3025 
Q 903 2953 641 2809 
L 641 3341 
Q 956 3463 1253 3523 
Q 1550 3584 1831 3584 
Q 2591 3584 2966 3190 
Q 3341 2797 3341 1997 
z
" transform="scale(0.015625)"/>
      <path id="DejaVuSans-69" d="M 603 3500 
L 1178 3500 
L 1178 0 
L 603 0 
L 603 3500 
z
M 603 4863 
L 1178 4863 
L 1178 4134 
L 603 4134 
L 603 4863 
z
" transform="scale(0.015625)"/>
      <path id="DejaVuSans-6e" d="M 3513 2113 
L 3513 0 
L 2938 0 
L 2938 2094 
Q 2938 2591 2744 2837 
Q 2550 3084 2163 3084 
Q 1697 3084 1428 2787 
Q 1159 2491 1159 1978 
L 1159 0 
L 581 0 
L 581 3500 
L 1159 3500 
L 1159 2956 
Q 1366 3272 1645 3428 
Q 1925 3584 2291 3584 
Q 2894 3584 3203 3211 
Q 3513 2838 3513 2113 
z
" transform="scale(0.015625)"/>
      <path id="DejaVuSans-67" d="M 2906 1791 
Q 2906 2416 2648 2759 
Q 2391 3103 1925 3103 
Q 1463 3103 1205 2759 
Q 947 2416 947 1791 
Q 947 1169 1205 825 
Q 1463 481 1925 481 
Q 2391 481 2648 825 
Q 2906 1169 2906 1791 
z
M 3481 434 
Q 3481 -459 3084 -895 
Q 2688 -1331 1869 -1331 
Q 1566 -1331 1297 -1286 
Q 1028 -1241 775 -1147 
L 775 -588 
Q 1028 -725 1275 -790 
Q 1522 -856 1778 -856 
Q 2344 -856 2625 -561 
Q 2906 -266 2906 331 
L 2906 616 
Q 2728 306 2450 153 
Q 2172 0 1784 0 
Q 1141 0 747 490 
Q 353 981 353 1791 
Q 353 2603 747 3093 
Q 1141 3584 1784 3584 
Q 2172 3584 2450 3431 
Q 2728 3278 2906 2969 
L 2906 3500 
L 3481 3500 
L 3481 434 
z
" transform="scale(0.015625)"/>
      <path id="DejaVuSans-20" transform="scale(0.015625)"/>
      <path id="DejaVuSans-64" d="M 2906 2969 
L 2906 4863 
L 3481 4863 
L 3481 0 
L 2906 0 
L 2906 525 
Q 2725 213 2448 61 
Q 2172 -91 1784 -91 
Q 1150 -91 751 415 
Q 353 922 353 1747 
Q 353 2572 751 3078 
Q 1150 3584 1784 3584 
Q 2172 3584 2448 3432 
Q 2725 3281 2906 2969 
z
M 947 1747 
Q 947 1113 1208 752 
Q 1469 391 1925 391 
Q 2381 391 2643 752 
Q 2906 1113 2906 1747 
Q 2906 2381 2643 2742 
Q 2381 3103 1925 3103 
Q 1469 3103 1208 2742 
Q 947 2381 947 1747 
z
" transform="scale(0.015625)"/>
      <path id="DejaVuSans-76" d="M 191 3500 
L 800 3500 
L 1894 563 
L 2988 3500 
L 3597 3500 
L 2284 0 
L 1503 0 
L 191 3500 
z
" transform="scale(0.015625)"/>
      <path id="DejaVuSans-6c" d="M 603 4863 
L 1178 4863 
L 1178 0 
L 603 0 
L 603 4863 
z
" transform="scale(0.015625)"/>
      <path id="DejaVuSans-74" d="M 1172 4494 
L 1172 3500 
L 2356 3500 
L 2356 3053 
L 1172 3053 
L 1172 1153 
Q 1172 725 1289 603 
Q 1406 481 1766 481 
L 2356 481 
L 2356 0 
L 1766 0 
Q 1100 0 847 248 
Q 594 497 594 1153 
L 594 3053 
L 172 3053 
L 172 3500 
L 594 3500 
L 594 4494 
L 1172 4494 
z
" transform="scale(0.015625)"/>
      <path id="DejaVuSans-6f" d="M 1959 3097 
Q 1497 3097 1228 2736 
Q 959 2375 959 1747 
Q 959 1119 1226 758 
Q 1494 397 1959 397 
Q 2419 397 2687 759 
Q 2956 1122 2956 1747 
Q 2956 2369 2687 2733 
Q 2419 3097 1959 3097 
z
M 1959 3584 
Q 2709 3584 3137 3096 
Q 3566 2609 3566 1747 
Q 3566 888 3137 398 
Q 2709 -91 1959 -91 
Q 1206 -91 779 398 
Q 353 888 353 1747 
Q 353 2609 779 3096 
Q 1206 3584 1959 3584 
z
" transform="scale(0.015625)"/>
      <path id="DejaVuSans-63" d="M 3122 3366 
L 3122 2828 
Q 2878 2963 2633 3030 
Q 2388 3097 2138 3097 
Q 1578 3097 1268 2742 
Q 959 2388 959 1747 
Q 959 1106 1268 751 
Q 1578 397 2138 397 
Q 2388 397 2633 464 
Q 2878 531 3122 666 
L 3122 134 
Q 2881 22 2623 -34 
Q 2366 -91 2075 -91 
Q 1284 -91 818 406 
Q 353 903 353 1747 
Q 353 2603 823 3093 
Q 1294 3584 2113 3584 
Q 2378 3584 2631 3529 
Q 2884 3475 3122 3366 
z
" transform="scale(0.015625)"/>
      <path id="DejaVuSans-75" d="M 544 1381 
L 544 3500 
L 1119 3500 
L 1119 1403 
Q 1119 906 1312 657 
Q 1506 409 1894 409 
Q 2359 409 2629 706 
Q 2900 1003 2900 1516 
L 2900 3500 
L 3475 3500 
L 3475 0 
L 2900 0 
L 2900 538 
Q 2691 219 2414 64 
Q 2138 -91 1772 -91 
Q 1169 -91 856 284 
Q 544 659 544 1381 
z
M 1991 3584 
L 1991 3584 
z
" transform="scale(0.015625)"/>
      <path id="DejaVuSans-79" d="M 2059 -325 
Q 1816 -950 1584 -1140 
Q 1353 -1331 966 -1331 
L 506 -1331 
L 506 -850 
L 844 -850 
Q 1081 -850 1212 -737 
Q 1344 -625 1503 -206 
L 1606 56 
L 191 3500 
L 800 3500 
L 1894 763 
L 2988 3500 
L 3597 3500 
L 2059 -325 
z
" transform="scale(0.015625)"/>
     </defs>
     <use xlink:href="#DejaVuSans-54"/>
     <use xlink:href="#DejaVuSans-72" x="46.333984"/>
     <use xlink:href="#DejaVuSans-61" x="87.447266"/>
     <use xlink:href="#DejaVuSans-69" x="148.726562"/>
     <use xlink:href="#DejaVuSans-6e" x="176.509766"/>
     <use xlink:href="#DejaVuSans-69" x="239.888672"/>
     <use xlink:href="#DejaVuSans-6e" x="267.671875"/>
     <use xlink:href="#DejaVuSans-67" x="331.050781"/>
     <use xlink:href="#DejaVuSans-20" x="394.527344"/>
     <use xlink:href="#DejaVuSans-61" x="426.314453"/>
     <use xlink:href="#DejaVuSans-6e" x="487.59375"/>
     <use xlink:href="#DejaVuSans-64" x="550.972656"/>
     <use xlink:href="#DejaVuSans-20" x="614.449219"/>
     <use xlink:href="#DejaVuSans-76" x="646.236328"/>
     <use xlink:href="#DejaVuSans-61" x="705.416016"/>
     <use xlink:href="#DejaVuSans-6c" x="766.695312"/>
     <use xlink:href="#DejaVuSans-69" x="794.478516"/>
     <use xlink:href="#DejaVuSans-64" x="822.261719"/>
     <use xlink:href="#DejaVuSans-61" x="885.738281"/>
     <use xlink:href="#DejaVuSans-74" x="947.017578"/>
     <use xlink:href="#DejaVuSans-69" x="986.226562"/>
     <use xlink:href="#DejaVuSans-6f" x="1014.009766"/>
     <use xlink:href="#DejaVuSans-6e" x="1075.191406"/>
     <use xlink:href="#DejaVuSans-20" x="1138.570312"/>
     <use xlink:href="#DejaVuSans-61" x="1170.357422"/>
     <use xlink:href="#DejaVuSans-63" x="1231.636719"/>
     <use xlink:href="#DejaVuSans-63" x="1286.617188"/>
     <use xlink:href="#DejaVuSans-75" x="1341.597656"/>
     <use xlink:href="#DejaVuSans-72" x="1404.976562"/>
     <use xlink:href="#DejaVuSans-61" x="1446.089844"/>
     <use xlink:href="#DejaVuSans-63" x="1507.369141"/>
     <use xlink:href="#DejaVuSans-79" x="1562.349609"/>
    </g>
   </g>
   <g id="legend_1">
    <g id="patch_7">
     <path d="M 276.604244 418.432 
L 433.198182 418.432 
Q 436.278182 418.432 436.278182 415.352 
L 436.278182 371.683375 
Q 436.278182 368.603375 433.198182 368.603375 
L 276.604244 368.603375 
Q 273.524244 368.603375 273.524244 371.683375 
L 273.524244 415.352 
Q 273.524244 418.432 276.604244 418.432 
z
" style="fill: #eaeaf2; opacity: 0.8; stroke: #cccccc; stroke-linejoin: miter"/>
    </g>
    <g id="line2d_13">
     <path d="M 279.684244 381.074969 
L 295.084244 381.074969 
L 310.484244 381.074969 
" style="fill: none; stroke: #4c72b0; stroke-width: 1.5; stroke-linecap: round"/>
    </g>
    <g id="text_12">
     <!-- Training acc -->
     <g style="fill: #262626" transform="translate(322.804244 386.464969)scale(0.154 -0.154)">
      <use xlink:href="#DejaVuSans-54"/>
      <use xlink:href="#DejaVuSans-72" x="46.333984"/>
      <use xlink:href="#DejaVuSans-61" x="87.447266"/>
      <use xlink:href="#DejaVuSans-69" x="148.726562"/>
      <use xlink:href="#DejaVuSans-6e" x="176.509766"/>
      <use xlink:href="#DejaVuSans-69" x="239.888672"/>
      <use xlink:href="#DejaVuSans-6e" x="267.671875"/>
      <use xlink:href="#DejaVuSans-67" x="331.050781"/>
      <use xlink:href="#DejaVuSans-20" x="394.527344"/>
      <use xlink:href="#DejaVuSans-61" x="426.314453"/>
      <use xlink:href="#DejaVuSans-63" x="487.59375"/>
      <use xlink:href="#DejaVuSans-63" x="542.574219"/>
     </g>
    </g>
    <g id="line2d_14">
     <path d="M 279.684244 403.679281 
L 295.084244 403.679281 
L 310.484244 403.679281 
" style="fill: none; stroke: #c44e52; stroke-width: 1.5; stroke-linecap: round"/>
    </g>
    <g id="text_13">
     <!-- Validation acc -->
     <g style="fill: #262626" transform="translate(322.804244 409.069281)scale(0.154 -0.154)">
      <defs>
       <path id="DejaVuSans-56" d="M 1831 0 
L 50 4666 
L 709 4666 
L 2188 738 
L 3669 4666 
L 4325 4666 
L 2547 0 
L 1831 0 
z
" transform="scale(0.015625)"/>
      </defs>
      <use xlink:href="#DejaVuSans-56"/>
      <use xlink:href="#DejaVuSans-61" x="60.658203"/>
      <use xlink:href="#DejaVuSans-6c" x="121.9375"/>
      <use xlink:href="#DejaVuSans-69" x="149.720703"/>
      <use xlink:href="#DejaVuSans-64" x="177.503906"/>
      <use xlink:href="#DejaVuSans-61" x="240.980469"/>
      <use xlink:href="#DejaVuSans-74" x="302.259766"/>
      <use xlink:href="#DejaVuSans-69" x="341.46875"/>
      <use xlink:href="#DejaVuSans-6f" x="369.251953"/>
      <use xlink:href="#DejaVuSans-6e" x="430.433594"/>
      <use xlink:href="#DejaVuSans-20" x="493.8125"/>
      <use xlink:href="#DejaVuSans-61" x="525.599609"/>
      <use xlink:href="#DejaVuSans-63" x="586.878906"/>
      <use xlink:href="#DejaVuSans-63" x="641.859375"/>
     </g>
    </g>
   </g>
  </g>
  <g id="axes_2">
   <g id="patch_8">
    <path d="M 509.517818 426.132 
L 837.216 426.132 
L 837.216 57.456 
L 509.517818 57.456 
z
" style="fill: #eaeaf2"/>
   </g>
   <g id="matplotlib.axis_3">
    <g id="xtick_7">
     <g id="line2d_15">
      <path d="M 521.277322 426.132 
L 521.277322 57.456 
" clip-path="url(#p1050beb979)" style="fill: none; stroke: #ffffff; stroke-linecap: round"/>
     </g>
     <g id="text_14">
      <!-- 0 -->
      <g style="fill: #262626" transform="translate(516.378197 447.333594)scale(0.154 -0.154)">
       <use xlink:href="#DejaVuSans-30"/>
      </g>
     </g>
    </g>
    <g id="xtick_8">
     <g id="line2d_16">
      <path d="M 583.994678 426.132 
L 583.994678 57.456 
" clip-path="url(#p1050beb979)" style="fill: none; stroke: #ffffff; stroke-linecap: round"/>
     </g>
     <g id="text_15">
      <!-- 20 -->
      <g style="fill: #262626" transform="translate(574.196428 447.333594)scale(0.154 -0.154)">
       <use xlink:href="#DejaVuSans-32"/>
       <use xlink:href="#DejaVuSans-30" x="63.623047"/>
      </g>
     </g>
    </g>
    <g id="xtick_9">
     <g id="line2d_17">
      <path d="M 646.712033 426.132 
L 646.712033 57.456 
" clip-path="url(#p1050beb979)" style="fill: none; stroke: #ffffff; stroke-linecap: round"/>
     </g>
     <g id="text_16">
      <!-- 40 -->
      <g style="fill: #262626" transform="translate(636.913783 447.333594)scale(0.154 -0.154)">
       <use xlink:href="#DejaVuSans-34"/>
       <use xlink:href="#DejaVuSans-30" x="63.623047"/>
      </g>
     </g>
    </g>
    <g id="xtick_10">
     <g id="line2d_18">
      <path d="M 709.429388 426.132 
L 709.429388 57.456 
" clip-path="url(#p1050beb979)" style="fill: none; stroke: #ffffff; stroke-linecap: round"/>
     </g>
     <g id="text_17">
      <!-- 60 -->
      <g style="fill: #262626" transform="translate(699.631138 447.333594)scale(0.154 -0.154)">
       <use xlink:href="#DejaVuSans-36"/>
       <use xlink:href="#DejaVuSans-30" x="63.623047"/>
      </g>
     </g>
    </g>
    <g id="xtick_11">
     <g id="line2d_19">
      <path d="M 772.146744 426.132 
L 772.146744 57.456 
" clip-path="url(#p1050beb979)" style="fill: none; stroke: #ffffff; stroke-linecap: round"/>
     </g>
     <g id="text_18">
      <!-- 80 -->
      <g style="fill: #262626" transform="translate(762.348494 447.333594)scale(0.154 -0.154)">
       <use xlink:href="#DejaVuSans-38"/>
       <use xlink:href="#DejaVuSans-30" x="63.623047"/>
      </g>
     </g>
    </g>
    <g id="xtick_12">
     <g id="line2d_20">
      <path d="M 834.864099 426.132 
L 834.864099 57.456 
" clip-path="url(#p1050beb979)" style="fill: none; stroke: #ffffff; stroke-linecap: round"/>
     </g>
     <g id="text_19">
      <!-- 100 -->
      <g style="fill: #262626" transform="translate(820.166724 447.333594)scale(0.154 -0.154)">
       <use xlink:href="#DejaVuSans-31"/>
       <use xlink:href="#DejaVuSans-30" x="63.623047"/>
       <use xlink:href="#DejaVuSans-30" x="127.246094"/>
      </g>
     </g>
    </g>
   </g>
   <g id="matplotlib.axis_4">
    <g id="ytick_5">
     <g id="line2d_21">
      <path d="M 509.517818 375.026138 
L 837.216 375.026138 
" clip-path="url(#p1050beb979)" style="fill: none; stroke: #ffffff; stroke-linecap: round"/>
     </g>
     <g id="text_20">
      <!-- 0.2 -->
      <g style="fill: #262626" transform="translate(475.527006 380.876935)scale(0.154 -0.154)">
       <use xlink:href="#DejaVuSans-30"/>
       <use xlink:href="#DejaVuSans-2e" x="63.623047"/>
       <use xlink:href="#DejaVuSans-32" x="95.410156"/>
      </g>
     </g>
    </g>
    <g id="ytick_6">
     <g id="line2d_22">
      <path d="M 509.517818 313.893818 
L 837.216 313.893818 
" clip-path="url(#p1050beb979)" style="fill: none; stroke: #ffffff; stroke-linecap: round"/>
     </g>
     <g id="text_21">
      <!-- 0.3 -->
      <g style="fill: #262626" transform="translate(475.527006 319.744614)scale(0.154 -0.154)">
       <defs>
        <path id="DejaVuSans-33" d="M 2597 2516 
Q 3050 2419 3304 2112 
Q 3559 1806 3559 1356 
Q 3559 666 3084 287 
Q 2609 -91 1734 -91 
Q 1441 -91 1130 -33 
Q 819 25 488 141 
L 488 750 
Q 750 597 1062 519 
Q 1375 441 1716 441 
Q 2309 441 2620 675 
Q 2931 909 2931 1356 
Q 2931 1769 2642 2001 
Q 2353 2234 1838 2234 
L 1294 2234 
L 1294 2753 
L 1863 2753 
Q 2328 2753 2575 2939 
Q 2822 3125 2822 3475 
Q 2822 3834 2567 4026 
Q 2313 4219 1838 4219 
Q 1578 4219 1281 4162 
Q 984 4106 628 3988 
L 628 4550 
Q 988 4650 1302 4700 
Q 1616 4750 1894 4750 
Q 2613 4750 3031 4423 
Q 3450 4097 3450 3541 
Q 3450 3153 3228 2886 
Q 3006 2619 2597 2516 
z
" transform="scale(0.015625)"/>
       </defs>
       <use xlink:href="#DejaVuSans-30"/>
       <use xlink:href="#DejaVuSans-2e" x="63.623047"/>
       <use xlink:href="#DejaVuSans-33" x="95.410156"/>
      </g>
     </g>
    </g>
    <g id="ytick_7">
     <g id="line2d_23">
      <path d="M 509.517818 252.761497 
L 837.216 252.761497 
" clip-path="url(#p1050beb979)" style="fill: none; stroke: #ffffff; stroke-linecap: round"/>
     </g>
     <g id="text_22">
      <!-- 0.4 -->
      <g style="fill: #262626" transform="translate(475.527006 258.612294)scale(0.154 -0.154)">
       <use xlink:href="#DejaVuSans-30"/>
       <use xlink:href="#DejaVuSans-2e" x="63.623047"/>
       <use xlink:href="#DejaVuSans-34" x="95.410156"/>
      </g>
     </g>
    </g>
    <g id="ytick_8">
     <g id="line2d_24">
      <path d="M 509.517818 191.629176 
L 837.216 191.629176 
" clip-path="url(#p1050beb979)" style="fill: none; stroke: #ffffff; stroke-linecap: round"/>
     </g>
     <g id="text_23">
      <!-- 0.5 -->
      <g style="fill: #262626" transform="translate(475.527006 197.479973)scale(0.154 -0.154)">
       <defs>
        <path id="DejaVuSans-35" d="M 691 4666 
L 3169 4666 
L 3169 4134 
L 1269 4134 
L 1269 2991 
Q 1406 3038 1543 3061 
Q 1681 3084 1819 3084 
Q 2600 3084 3056 2656 
Q 3513 2228 3513 1497 
Q 3513 744 3044 326 
Q 2575 -91 1722 -91 
Q 1428 -91 1123 -41 
Q 819 9 494 109 
L 494 744 
Q 775 591 1075 516 
Q 1375 441 1709 441 
Q 2250 441 2565 725 
Q 2881 1009 2881 1497 
Q 2881 1984 2565 2268 
Q 2250 2553 1709 2553 
Q 1456 2553 1204 2497 
Q 953 2441 691 2322 
L 691 4666 
z
" transform="scale(0.015625)"/>
       </defs>
       <use xlink:href="#DejaVuSans-30"/>
       <use xlink:href="#DejaVuSans-2e" x="63.623047"/>
       <use xlink:href="#DejaVuSans-35" x="95.410156"/>
      </g>
     </g>
    </g>
    <g id="ytick_9">
     <g id="line2d_25">
      <path d="M 509.517818 130.496856 
L 837.216 130.496856 
" clip-path="url(#p1050beb979)" style="fill: none; stroke: #ffffff; stroke-linecap: round"/>
     </g>
     <g id="text_24">
      <!-- 0.6 -->
      <g style="fill: #262626" transform="translate(475.527006 136.347653)scale(0.154 -0.154)">
       <use xlink:href="#DejaVuSans-30"/>
       <use xlink:href="#DejaVuSans-2e" x="63.623047"/>
       <use xlink:href="#DejaVuSans-36" x="95.410156"/>
      </g>
     </g>
    </g>
    <g id="ytick_10">
     <g id="line2d_26">
      <path d="M 509.517818 69.364535 
L 837.216 69.364535 
" clip-path="url(#p1050beb979)" style="fill: none; stroke: #ffffff; stroke-linecap: round"/>
     </g>
     <g id="text_25">
      <!-- 0.7 -->
      <g style="fill: #262626" transform="translate(475.527006 75.215332)scale(0.154 -0.154)">
       <use xlink:href="#DejaVuSans-30"/>
       <use xlink:href="#DejaVuSans-2e" x="63.623047"/>
       <use xlink:href="#DejaVuSans-37" x="95.410156"/>
      </g>
     </g>
    </g>
   </g>
   <g id="line2d_27">
    <path d="M 524.41319 74.214 
L 527.549058 74.686014 
L 530.684926 75.414149 
L 533.820793 76.539017 
L 536.956661 78.110939 
L 540.092529 79.99608 
L 543.228397 82.475447 
L 546.364264 86.408642 
L 549.500132 90.341473 
L 552.636 95.047329 
L 555.771868 101.831374 
L 558.907736 108.829089 
L 562.043603 115.279983 
L 565.179471 122.543985 
L 568.315339 131.209198 
L 571.451207 137.992769 
L 574.587074 144.412145 
L 577.722942 151.176622 
L 580.85881 158.142855 
L 583.994678 163.58949 
L 587.130545 170.415438 
L 590.266413 177.942702 
L 593.402281 183.379863 
L 596.538149 189.789801 
L 599.674017 195.648638 
L 602.809884 199.949653 
L 605.945752 207.152294 
L 609.08162 211.969941 
L 612.217488 216.015455 
L 615.353355 220.763543 
L 618.489223 225.670116 
L 621.625091 230.215373 
L 624.760959 233.205069 
L 627.896826 237.546767 
L 631.032694 241.085305 
L 634.168562 244.701055 
L 637.30443 250.313044 
L 640.440298 253.198964 
L 643.576165 258.382264 
L 646.712033 260.784201 
L 649.847901 265.505853 
L 652.983769 272.292976 
L 656.119636 278.824835 
L 659.255504 284.703694 
L 662.391372 287.117674 
L 665.52724 295.245322 
L 668.663107 296.871336 
L 671.798975 303.975541 
L 674.934843 306.919124 
L 678.070711 311.750417 
L 681.206579 319.954985 
L 684.342446 323.404798 
L 687.478314 327.775591 
L 690.614182 326.199879 
L 693.75005 332.561355 
L 696.885917 337.335733 
L 700.021785 343.278431 
L 703.157653 342.10142 
L 706.293521 345.042107 
L 709.429388 349.546107 
L 712.565256 350.860087 
L 715.701124 351.472204 
L 718.836992 356.46928 
L 721.97286 358.780286 
L 725.108727 358.934518 
L 728.244595 361.660541 
L 731.380463 365.08175 
L 734.516331 363.809983 
L 737.652198 366.973277 
L 740.788066 370.004019 
L 743.923934 372.121496 
L 747.059802 370.720821 
L 750.195669 373.218662 
L 753.331537 377.880675 
L 756.467405 374.180235 
L 759.603273 379.720633 
L 762.73914 382.989241 
L 765.875008 385.125347 
L 769.010876 382.538142 
L 772.146744 385.675401 
L 775.282612 386.321952 
L 778.418479 387.333417 
L 781.554347 393.074669 
L 784.690215 391.000908 
L 787.826083 389.46229 
L 790.96195 391.305554 
L 794.097818 394.09436 
L 797.233686 399.004914 
L 800.369554 394.01345 
L 803.505421 396.715989 
L 806.641289 400.241209 
L 809.777157 402.055469 
L 812.913025 401.172055 
L 816.048893 400.337067 
L 819.18476 407.964508 
L 822.320628 409.374 
" clip-path="url(#p1050beb979)" style="fill: none; stroke: #4c72b0; stroke-width: 1.5; stroke-linecap: round"/>
   </g>
   <g id="line2d_28">
    <path d="M 524.41319 74.386241 
L 527.549058 75.029658 
L 530.684926 76.020144 
L 533.820793 77.419935 
L 536.956661 79.417559 
L 540.092529 82.024166 
L 543.228397 85.194902 
L 546.364264 88.973893 
L 549.500132 93.94702 
L 552.636 99.836264 
L 555.771868 106.438484 
L 558.907736 113.958934 
L 562.043603 121.141133 
L 565.179471 128.703414 
L 568.315339 136.41294 
L 571.451207 143.257252 
L 574.587074 150.099305 
L 577.722942 156.13685 
L 580.85881 162.441447 
L 583.994678 168.255374 
L 587.130545 174.038256 
L 590.266413 179.582216 
L 593.402281 185.148549 
L 596.538149 190.399477 
L 599.674017 195.061827 
L 602.809884 199.47589 
L 605.945752 204.056893 
L 609.08162 207.328561 
L 612.217488 211.279993 
L 615.353355 214.479005 
L 618.489223 216.041727 
L 621.625091 219.144944 
L 624.760959 221.124677 
L 627.896826 224.990954 
L 631.032694 227.413442 
L 634.168562 229.02131 
L 637.30443 232.107037 
L 640.440298 234.496457 
L 643.576165 236.576176 
L 646.712033 239.2941 
L 649.847901 243.148845 
L 652.983769 247.130757 
L 656.119636 246.60436 
L 659.255504 254.643719 
L 662.391372 257.95434 
L 665.52724 260.563516 
L 668.663107 264.73157 
L 671.798975 266.72351 
L 674.934843 269.770194 
L 678.070711 269.539234 
L 681.206579 277.171821 
L 684.342446 278.916331 
L 687.478314 278.200621 
L 690.614182 280.915339 
L 693.75005 286.149542 
L 696.885917 286.931769 
L 700.021785 287.661233 
L 703.157653 289.378961 
L 706.293521 289.08899 
L 709.429388 277.852259 
L 712.565256 286.705491 
L 715.701124 276.136753 
L 718.836992 291.116839 
L 721.97286 293.229005 
L 725.108727 294.153904 
L 728.244595 294.502212 
L 731.380463 293.221791 
L 734.516331 297.096029 
L 737.652198 297.630643 
L 740.788066 297.743473 
L 743.923934 295.143369 
L 747.059802 294.518973 
L 750.195669 296.566316 
L 753.331537 272.630809 
L 756.467405 292.389371 
L 759.603273 300.961851 
L 762.73914 300.880668 
L 765.875008 286.429912 
L 769.010876 298.666258 
L 772.146744 299.87823 
L 775.282612 291.998541 
L 778.418479 298.588718 
L 781.554347 294.472989 
L 784.690215 295.969248 
L 787.826083 297.924878 
L 790.96195 299.380837 
L 794.097818 286.883835 
L 797.233686 298.965375 
L 800.369554 298.853001 
L 803.505421 293.723647 
L 806.641289 294.86617 
L 809.777157 299.462312 
L 812.913025 299.572828 
L 816.048893 296.276163 
L 819.18476 278.930286 
L 822.320628 292.882465 
" clip-path="url(#p1050beb979)" style="fill: none; stroke: #c44e52; stroke-width: 1.5; stroke-linecap: round"/>
   </g>
   <g id="patch_9">
    <path d="M 509.517818 426.132 
L 509.517818 57.456 
" style="fill: none; stroke: #ffffff; stroke-width: 1.25; stroke-linejoin: miter; stroke-linecap: square"/>
   </g>
   <g id="patch_10">
    <path d="M 837.216 426.132 
L 837.216 57.456 
" style="fill: none; stroke: #ffffff; stroke-width: 1.25; stroke-linejoin: miter; stroke-linecap: square"/>
   </g>
   <g id="patch_11">
    <path d="M 509.517818 426.132 
L 837.216 426.132 
" style="fill: none; stroke: #ffffff; stroke-width: 1.25; stroke-linejoin: miter; stroke-linecap: square"/>
   </g>
   <g id="patch_12">
    <path d="M 509.517818 57.456 
L 837.216 57.456 
" style="fill: none; stroke: #ffffff; stroke-width: 1.25; stroke-linejoin: miter; stroke-linecap: square"/>
   </g>
   <g id="text_26">
    <!-- Training and validation loss -->
    <g style="fill: #262626" transform="translate(558.832909 51.456)scale(0.168 -0.168)">
     <defs>
      <path id="DejaVuSans-73" d="M 2834 3397 
L 2834 2853 
Q 2591 2978 2328 3040 
Q 2066 3103 1784 3103 
Q 1356 3103 1142 2972 
Q 928 2841 928 2578 
Q 928 2378 1081 2264 
Q 1234 2150 1697 2047 
L 1894 2003 
Q 2506 1872 2764 1633 
Q 3022 1394 3022 966 
Q 3022 478 2636 193 
Q 2250 -91 1575 -91 
Q 1294 -91 989 -36 
Q 684 19 347 128 
L 347 722 
Q 666 556 975 473 
Q 1284 391 1588 391 
Q 1994 391 2212 530 
Q 2431 669 2431 922 
Q 2431 1156 2273 1281 
Q 2116 1406 1581 1522 
L 1381 1569 
Q 847 1681 609 1914 
Q 372 2147 372 2553 
Q 372 3047 722 3315 
Q 1072 3584 1716 3584 
Q 2034 3584 2315 3537 
Q 2597 3491 2834 3397 
z
" transform="scale(0.015625)"/>
     </defs>
     <use xlink:href="#DejaVuSans-54"/>
     <use xlink:href="#DejaVuSans-72" x="46.333984"/>
     <use xlink:href="#DejaVuSans-61" x="87.447266"/>
     <use xlink:href="#DejaVuSans-69" x="148.726562"/>
     <use xlink:href="#DejaVuSans-6e" x="176.509766"/>
     <use xlink:href="#DejaVuSans-69" x="239.888672"/>
     <use xlink:href="#DejaVuSans-6e" x="267.671875"/>
     <use xlink:href="#DejaVuSans-67" x="331.050781"/>
     <use xlink:href="#DejaVuSans-20" x="394.527344"/>
     <use xlink:href="#DejaVuSans-61" x="426.314453"/>
     <use xlink:href="#DejaVuSans-6e" x="487.59375"/>
     <use xlink:href="#DejaVuSans-64" x="550.972656"/>
     <use xlink:href="#DejaVuSans-20" x="614.449219"/>
     <use xlink:href="#DejaVuSans-76" x="646.236328"/>
     <use xlink:href="#DejaVuSans-61" x="705.416016"/>
     <use xlink:href="#DejaVuSans-6c" x="766.695312"/>
     <use xlink:href="#DejaVuSans-69" x="794.478516"/>
     <use xlink:href="#DejaVuSans-64" x="822.261719"/>
     <use xlink:href="#DejaVuSans-61" x="885.738281"/>
     <use xlink:href="#DejaVuSans-74" x="947.017578"/>
     <use xlink:href="#DejaVuSans-69" x="986.226562"/>
     <use xlink:href="#DejaVuSans-6f" x="1014.009766"/>
     <use xlink:href="#DejaVuSans-6e" x="1075.191406"/>
     <use xlink:href="#DejaVuSans-20" x="1138.570312"/>
     <use xlink:href="#DejaVuSans-6c" x="1170.357422"/>
     <use xlink:href="#DejaVuSans-6f" x="1198.140625"/>
     <use xlink:href="#DejaVuSans-73" x="1259.322266"/>
     <use xlink:href="#DejaVuSans-73" x="1311.421875"/>
    </g>
   </g>
   <g id="legend_2">
    <g id="patch_13">
     <path d="M 666.4685 114.984625 
L 826.436 114.984625 
Q 829.516 114.984625 829.516 111.904625 
L 829.516 68.236 
Q 829.516 65.156 826.436 65.156 
L 666.4685 65.156 
Q 663.3885 65.156 663.3885 68.236 
L 663.3885 111.904625 
Q 663.3885 114.984625 666.4685 114.984625 
z
" style="fill: #eaeaf2; opacity: 0.8; stroke: #cccccc; stroke-linejoin: miter"/>
    </g>
    <g id="line2d_29">
     <path d="M 669.5485 77.627594 
L 684.9485 77.627594 
L 700.3485 77.627594 
" style="fill: none; stroke: #4c72b0; stroke-width: 1.5; stroke-linecap: round"/>
    </g>
    <g id="text_27">
     <!-- Training loss -->
     <g style="fill: #262626" transform="translate(712.6685 83.017594)scale(0.154 -0.154)">
      <use xlink:href="#DejaVuSans-54"/>
      <use xlink:href="#DejaVuSans-72" x="46.333984"/>
      <use xlink:href="#DejaVuSans-61" x="87.447266"/>
      <use xlink:href="#DejaVuSans-69" x="148.726562"/>
      <use xlink:href="#DejaVuSans-6e" x="176.509766"/>
      <use xlink:href="#DejaVuSans-69" x="239.888672"/>
      <use xlink:href="#DejaVuSans-6e" x="267.671875"/>
      <use xlink:href="#DejaVuSans-67" x="331.050781"/>
      <use xlink:href="#DejaVuSans-20" x="394.527344"/>
      <use xlink:href="#DejaVuSans-6c" x="426.314453"/>
      <use xlink:href="#DejaVuSans-6f" x="454.097656"/>
      <use xlink:href="#DejaVuSans-73" x="515.279297"/>
      <use xlink:href="#DejaVuSans-73" x="567.378906"/>
     </g>
    </g>
    <g id="line2d_30">
     <path d="M 669.5485 100.231906 
L 684.9485 100.231906 
L 700.3485 100.231906 
" style="fill: none; stroke: #c44e52; stroke-width: 1.5; stroke-linecap: round"/>
    </g>
    <g id="text_28">
     <!-- Validation loss -->
     <g style="fill: #262626" transform="translate(712.6685 105.621906)scale(0.154 -0.154)">
      <use xlink:href="#DejaVuSans-56"/>
      <use xlink:href="#DejaVuSans-61" x="60.658203"/>
      <use xlink:href="#DejaVuSans-6c" x="121.9375"/>
      <use xlink:href="#DejaVuSans-69" x="149.720703"/>
      <use xlink:href="#DejaVuSans-64" x="177.503906"/>
      <use xlink:href="#DejaVuSans-61" x="240.980469"/>
      <use xlink:href="#DejaVuSans-74" x="302.259766"/>
      <use xlink:href="#DejaVuSans-69" x="341.46875"/>
      <use xlink:href="#DejaVuSans-6f" x="369.251953"/>
      <use xlink:href="#DejaVuSans-6e" x="430.433594"/>
      <use xlink:href="#DejaVuSans-20" x="493.8125"/>
      <use xlink:href="#DejaVuSans-6c" x="525.599609"/>
      <use xlink:href="#DejaVuSans-6f" x="553.382812"/>
      <use xlink:href="#DejaVuSans-73" x="614.564453"/>
      <use xlink:href="#DejaVuSans-73" x="666.664062"/>
     </g>
    </g>
   </g>
  </g>
 </g>
 <defs>
  <clipPath id="p0dae8b7480">
   <rect x="116.28" y="57.456" width="327.698182" height="368.676"/>
  </clipPath>
  <clipPath id="p1050beb979">
   <rect x="509.517818" y="57.456" width="327.698182" height="368.676"/>
  </clipPath>
 </defs>
</svg>
