<?xml version="1.0" encoding="utf-8" standalone="no"?>
<!DOCTYPE svg PUBLIC "-//W3C//DTD SVG 1.1//EN"
  "http://www.w3.org/Graphics/SVG/1.1/DTD/svg11.dtd">
<svg xmlns:xlink="http://www.w3.org/1999/xlink" width="931.68pt" height="478.8pt" viewBox="0 0 931.68 478.8" xmlns="http://www.w3.org/2000/svg" version="1.1">
 <metadata>
  <rdf:RDF xmlns:dc="http://purl.org/dc/elements/1.1/" xmlns:cc="http://creativecommons.org/ns#" xmlns:rdf="http://www.w3.org/1999/02/22-rdf-syntax-ns#">
   <cc:Work>
    <dc:type rdf:resource="http://purl.org/dc/dcmitype/StillImage"/>
    <dc:date>2022-11-14T10:57:55.434380</dc:date>
    <dc:format>image/svg+xml</dc:format>
    <dc:creator>
     <cc:Agent>
      <dc:title>Matplotlib v3.5.2, https://matplotlib.org/</dc:title>
     </cc:Agent>
    </dc:creator>
   </cc:Work>
  </rdf:RDF>
 </metadata>
 <defs>
  <style type="text/css">*{stroke-linejoin: round; stroke-linecap: butt}</style>
 </defs>
 <g id="figure_1">
  <g id="patch_1">
   <path d="M 0 478.8 
L 931.68 478.8 
L 931.68 0 
L 0 0 
z
" style="fill: #ffffff"/>
  </g>
  <g id="axes_1">
   <g id="patch_2">
    <path d="M 116.46 426.132 
L 444.665455 426.132 
L 444.665455 57.456 
L 116.46 57.456 
z
" style="fill: #eaeaf2"/>
   </g>
   <g id="matplotlib.axis_1">
    <g id="xtick_1">
     <g id="line2d_1">
      <path d="M 129.151798 426.132 
L 129.151798 57.456 
" clip-path="url(#pfaed2d2f78)" style="fill: none; stroke: #ffffff; stroke-linecap: round"/>
     </g>
     <g id="text_1">
      <!-- 0 -->
      <g style="fill: #262626" transform="translate(124.252673 447.333594)scale(0.154 -0.154)">
       <defs>
        <path id="DejaVuSans-30" d="M 2034 4250 
Q 1547 4250 1301 3770 
Q 1056 3291 1056 2328 
Q 1056 1369 1301 889 
Q 1547 409 2034 409 
Q 2525 409 2770 889 
Q 3016 1369 3016 2328 
Q 3016 3291 2770 3770 
Q 2525 4250 2034 4250 
z
M 2034 4750 
Q 2819 4750 3233 4129 
Q 3647 3509 3647 2328 
Q 3647 1150 3233 529 
Q 2819 -91 2034 -91 
Q 1250 -91 836 529 
Q 422 1150 422 2328 
Q 422 3509 836 4129 
Q 1250 4750 2034 4750 
z
" transform="scale(0.015625)"/>
       </defs>
       <use xlink:href="#DejaVuSans-30"/>
      </g>
     </g>
    </g>
    <g id="xtick_2">
     <g id="line2d_2">
      <path d="M 184.817581 426.132 
L 184.817581 57.456 
" clip-path="url(#pfaed2d2f78)" style="fill: none; stroke: #ffffff; stroke-linecap: round"/>
     </g>
     <g id="text_2">
      <!-- 25 -->
      <g style="fill: #262626" transform="translate(175.019331 447.333594)scale(0.154 -0.154)">
       <defs>
        <path id="DejaVuSans-32" d="M 1228 531 
L 3431 531 
L 3431 0 
L 469 0 
L 469 531 
Q 828 903 1448 1529 
Q 2069 2156 2228 2338 
Q 2531 2678 2651 2914 
Q 2772 3150 2772 3378 
Q 2772 3750 2511 3984 
Q 2250 4219 1831 4219 
Q 1534 4219 1204 4116 
Q 875 4013 500 3803 
L 500 4441 
Q 881 4594 1212 4672 
Q 1544 4750 1819 4750 
Q 2544 4750 2975 4387 
Q 3406 4025 3406 3419 
Q 3406 3131 3298 2873 
Q 3191 2616 2906 2266 
Q 2828 2175 2409 1742 
Q 1991 1309 1228 531 
z
" transform="scale(0.015625)"/>
        <path id="DejaVuSans-35" d="M 691 4666 
L 3169 4666 
L 3169 4134 
L 1269 4134 
L 1269 2991 
Q 1406 3038 1543 3061 
Q 1681 3084 1819 3084 
Q 2600 3084 3056 2656 
Q 3513 2228 3513 1497 
Q 3513 744 3044 326 
Q 2575 -91 1722 -91 
Q 1428 -91 1123 -41 
Q 819 9 494 109 
L 494 744 
Q 775 591 1075 516 
Q 1375 441 1709 441 
Q 2250 441 2565 725 
Q 2881 1009 2881 1497 
Q 2881 1984 2565 2268 
Q 2250 2553 1709 2553 
Q 1456 2553 1204 2497 
Q 953 2441 691 2322 
L 691 4666 
z
" transform="scale(0.015625)"/>
       </defs>
       <use xlink:href="#DejaVuSans-32"/>
       <use xlink:href="#DejaVuSans-35" x="63.623047"/>
      </g>
     </g>
    </g>
    <g id="xtick_3">
     <g id="line2d_3">
      <path d="M 240.483364 426.132 
L 240.483364 57.456 
" clip-path="url(#pfaed2d2f78)" style="fill: none; stroke: #ffffff; stroke-linecap: round"/>
     </g>
     <g id="text_3">
      <!-- 50 -->
      <g style="fill: #262626" transform="translate(230.685114 447.333594)scale(0.154 -0.154)">
       <use xlink:href="#DejaVuSans-35"/>
       <use xlink:href="#DejaVuSans-30" x="63.623047"/>
      </g>
     </g>
    </g>
    <g id="xtick_4">
     <g id="line2d_4">
      <path d="M 296.149146 426.132 
L 296.149146 57.456 
" clip-path="url(#pfaed2d2f78)" style="fill: none; stroke: #ffffff; stroke-linecap: round"/>
     </g>
     <g id="text_4">
      <!-- 75 -->
      <g style="fill: #262626" transform="translate(286.350896 447.333594)scale(0.154 -0.154)">
       <defs>
        <path id="DejaVuSans-37" d="M 525 4666 
L 3525 4666 
L 3525 4397 
L 1831 0 
L 1172 0 
L 2766 4134 
L 525 4134 
L 525 4666 
z
" transform="scale(0.015625)"/>
       </defs>
       <use xlink:href="#DejaVuSans-37"/>
       <use xlink:href="#DejaVuSans-35" x="63.623047"/>
      </g>
     </g>
    </g>
    <g id="xtick_5">
     <g id="line2d_5">
      <path d="M 351.814929 426.132 
L 351.814929 57.456 
" clip-path="url(#pfaed2d2f78)" style="fill: none; stroke: #ffffff; stroke-linecap: round"/>
     </g>
     <g id="text_5">
      <!-- 100 -->
      <g style="fill: #262626" transform="translate(337.117554 447.333594)scale(0.154 -0.154)">
       <defs>
        <path id="DejaVuSans-31" d="M 794 531 
L 1825 531 
L 1825 4091 
L 703 3866 
L 703 4441 
L 1819 4666 
L 2450 4666 
L 2450 531 
L 3481 531 
L 3481 0 
L 794 0 
L 794 531 
z
" transform="scale(0.015625)"/>
       </defs>
       <use xlink:href="#DejaVuSans-31"/>
       <use xlink:href="#DejaVuSans-30" x="63.623047"/>
       <use xlink:href="#DejaVuSans-30" x="127.246094"/>
      </g>
     </g>
    </g>
    <g id="xtick_6">
     <g id="line2d_6">
      <path d="M 407.480712 426.132 
L 407.480712 57.456 
" clip-path="url(#pfaed2d2f78)" style="fill: none; stroke: #ffffff; stroke-linecap: round"/>
     </g>
     <g id="text_6">
      <!-- 125 -->
      <g style="fill: #262626" transform="translate(392.783337 447.333594)scale(0.154 -0.154)">
       <use xlink:href="#DejaVuSans-31"/>
       <use xlink:href="#DejaVuSans-32" x="63.623047"/>
       <use xlink:href="#DejaVuSans-35" x="127.246094"/>
      </g>
     </g>
    </g>
   </g>
   <g id="matplotlib.axis_2">
    <g id="ytick_1">
     <g id="line2d_7">
      <path d="M 116.46 415.18343 
L 444.665455 415.18343 
" clip-path="url(#pfaed2d2f78)" style="fill: none; stroke: #ffffff; stroke-linecap: round"/>
     </g>
     <g id="text_7">
      <!-- 0.5 -->
      <g style="fill: #262626" transform="translate(82.469187 421.034227)scale(0.154 -0.154)">
       <defs>
        <path id="DejaVuSans-2e" d="M 684 794 
L 1344 794 
L 1344 0 
L 684 0 
L 684 794 
z
" transform="scale(0.015625)"/>
       </defs>
       <use xlink:href="#DejaVuSans-30"/>
       <use xlink:href="#DejaVuSans-2e" x="63.623047"/>
       <use xlink:href="#DejaVuSans-35" x="95.410156"/>
      </g>
     </g>
    </g>
    <g id="ytick_2">
     <g id="line2d_8">
      <path d="M 116.46 343.459194 
L 444.665455 343.459194 
" clip-path="url(#pfaed2d2f78)" style="fill: none; stroke: #ffffff; stroke-linecap: round"/>
     </g>
     <g id="text_8">
      <!-- 0.6 -->
      <g style="fill: #262626" transform="translate(82.469187 349.309991)scale(0.154 -0.154)">
       <defs>
        <path id="DejaVuSans-36" d="M 2113 2584 
Q 1688 2584 1439 2293 
Q 1191 2003 1191 1497 
Q 1191 994 1439 701 
Q 1688 409 2113 409 
Q 2538 409 2786 701 
Q 3034 994 3034 1497 
Q 3034 2003 2786 2293 
Q 2538 2584 2113 2584 
z
M 3366 4563 
L 3366 3988 
Q 3128 4100 2886 4159 
Q 2644 4219 2406 4219 
Q 1781 4219 1451 3797 
Q 1122 3375 1075 2522 
Q 1259 2794 1537 2939 
Q 1816 3084 2150 3084 
Q 2853 3084 3261 2657 
Q 3669 2231 3669 1497 
Q 3669 778 3244 343 
Q 2819 -91 2113 -91 
Q 1303 -91 875 529 
Q 447 1150 447 2328 
Q 447 3434 972 4092 
Q 1497 4750 2381 4750 
Q 2619 4750 2861 4703 
Q 3103 4656 3366 4563 
z
" transform="scale(0.015625)"/>
       </defs>
       <use xlink:href="#DejaVuSans-30"/>
       <use xlink:href="#DejaVuSans-2e" x="63.623047"/>
       <use xlink:href="#DejaVuSans-36" x="95.410156"/>
      </g>
     </g>
    </g>
    <g id="ytick_3">
     <g id="line2d_9">
      <path d="M 116.46 271.734958 
L 444.665455 271.734958 
" clip-path="url(#pfaed2d2f78)" style="fill: none; stroke: #ffffff; stroke-linecap: round"/>
     </g>
     <g id="text_9">
      <!-- 0.7 -->
      <g style="fill: #262626" transform="translate(82.469187 277.585755)scale(0.154 -0.154)">
       <use xlink:href="#DejaVuSans-30"/>
       <use xlink:href="#DejaVuSans-2e" x="63.623047"/>
       <use xlink:href="#DejaVuSans-37" x="95.410156"/>
      </g>
     </g>
    </g>
    <g id="ytick_4">
     <g id="line2d_10">
      <path d="M 116.46 200.010722 
L 444.665455 200.010722 
" clip-path="url(#pfaed2d2f78)" style="fill: none; stroke: #ffffff; stroke-linecap: round"/>
     </g>
     <g id="text_10">
      <!-- 0.8 -->
      <g style="fill: #262626" transform="translate(82.469187 205.861519)scale(0.154 -0.154)">
       <defs>
        <path id="DejaVuSans-38" d="M 2034 2216 
Q 1584 2216 1326 1975 
Q 1069 1734 1069 1313 
Q 1069 891 1326 650 
Q 1584 409 2034 409 
Q 2484 409 2743 651 
Q 3003 894 3003 1313 
Q 3003 1734 2745 1975 
Q 2488 2216 2034 2216 
z
M 1403 2484 
Q 997 2584 770 2862 
Q 544 3141 544 3541 
Q 544 4100 942 4425 
Q 1341 4750 2034 4750 
Q 2731 4750 3128 4425 
Q 3525 4100 3525 3541 
Q 3525 3141 3298 2862 
Q 3072 2584 2669 2484 
Q 3125 2378 3379 2068 
Q 3634 1759 3634 1313 
Q 3634 634 3220 271 
Q 2806 -91 2034 -91 
Q 1263 -91 848 271 
Q 434 634 434 1313 
Q 434 1759 690 2068 
Q 947 2378 1403 2484 
z
M 1172 3481 
Q 1172 3119 1398 2916 
Q 1625 2713 2034 2713 
Q 2441 2713 2670 2916 
Q 2900 3119 2900 3481 
Q 2900 3844 2670 4047 
Q 2441 4250 2034 4250 
Q 1625 4250 1398 4047 
Q 1172 3844 1172 3481 
z
" transform="scale(0.015625)"/>
       </defs>
       <use xlink:href="#DejaVuSans-30"/>
       <use xlink:href="#DejaVuSans-2e" x="63.623047"/>
       <use xlink:href="#DejaVuSans-38" x="95.410156"/>
      </g>
     </g>
    </g>
    <g id="ytick_5">
     <g id="line2d_11">
      <path d="M 116.46 128.286486 
L 444.665455 128.286486 
" clip-path="url(#pfaed2d2f78)" style="fill: none; stroke: #ffffff; stroke-linecap: round"/>
     </g>
     <g id="text_11">
      <!-- 0.9 -->
      <g style="fill: #262626" transform="translate(82.469187 134.137283)scale(0.154 -0.154)">
       <defs>
        <path id="DejaVuSans-39" d="M 703 97 
L 703 672 
Q 941 559 1184 500 
Q 1428 441 1663 441 
Q 2288 441 2617 861 
Q 2947 1281 2994 2138 
Q 2813 1869 2534 1725 
Q 2256 1581 1919 1581 
Q 1219 1581 811 2004 
Q 403 2428 403 3163 
Q 403 3881 828 4315 
Q 1253 4750 1959 4750 
Q 2769 4750 3195 4129 
Q 3622 3509 3622 2328 
Q 3622 1225 3098 567 
Q 2575 -91 1691 -91 
Q 1453 -91 1209 -44 
Q 966 3 703 97 
z
M 1959 2075 
Q 2384 2075 2632 2365 
Q 2881 2656 2881 3163 
Q 2881 3666 2632 3958 
Q 2384 4250 1959 4250 
Q 1534 4250 1286 3958 
Q 1038 3666 1038 3163 
Q 1038 2656 1286 2365 
Q 1534 2075 1959 2075 
z
" transform="scale(0.015625)"/>
       </defs>
       <use xlink:href="#DejaVuSans-30"/>
       <use xlink:href="#DejaVuSans-2e" x="63.623047"/>
       <use xlink:href="#DejaVuSans-39" x="95.410156"/>
      </g>
     </g>
    </g>
   </g>
   <g id="line2d_12">
    <path d="M 131.37843 409.374 
L 133.605061 385.577652 
L 135.831692 371.947786 
L 138.058324 365.803188 
L 140.284955 352.285073 
L 142.511586 358.317963 
L 144.738218 345.47014 
L 146.964849 320.780041 
L 149.19148 300.000117 
L 151.418112 247.826868 
L 153.644743 215.986668 
L 155.871374 232.856417 
L 158.098005 251.29021 
L 160.324637 245.927656 
L 162.551268 228.946199 
L 164.777899 226.041484 
L 167.004531 214.087456 
L 169.231162 213.41712 
L 171.457793 204.926392 
L 173.684425 199.787297 
L 175.911056 197.441166 
L 178.137687 195.541911 
L 180.364318 190.402817 
L 182.59095 190.626233 
L 184.817581 184.146468 
L 187.044212 182.023796 
L 189.270844 178.448746 
L 191.497475 178.225329 
L 193.724106 172.639316 
L 195.950738 170.851812 
L 198.177369 170.293185 
L 200.404 166.271301 
L 202.630632 162.696251 
L 209.310525 158.786033 
L 211.537157 153.088311 
L 213.763788 150.96564 
L 215.990419 152.529727 
L 218.217051 148.5078 
L 220.443682 146.049961 
L 224.896945 143.145246 
L 227.123576 139.681904 
L 229.350207 139.346779 
L 231.576839 138.006109 
L 233.80347 132.867014 
L 236.030101 132.308387 
L 238.256732 132.531846 
L 240.483364 128.174752 
L 242.709995 126.945833 
L 244.936626 127.392709 
L 247.163258 124.711453 
L 249.389889 123.259074 
L 251.61652 124.041118 
L 253.843152 119.795775 
L 256.069783 118.902023 
L 258.296414 118.790272 
L 260.523046 115.997308 
L 262.749677 115.103513 
L 264.976308 114.768388 
L 267.202939 112.422257 
L 269.429571 112.869133 
L 271.656202 112.533966 
L 276.109465 109.294083 
L 278.336096 106.612827 
L 280.562727 110.076127 
L 282.789359 107.28312 
L 285.01599 107.28312 
L 287.242621 104.266696 
L 289.469252 102.926069 
L 291.695884 104.490113 
L 293.922515 102.47915 
L 296.149146 103.484653 
L 298.375778 102.032274 
L 300.602409 100.356478 
L 302.82904 102.367442 
L 305.055672 98.233807 
L 307.282303 100.915105 
L 309.508934 97.340055 
L 311.735566 98.010348 
L 313.962197 96.222844 
L 316.188828 96.334552 
L 318.415459 93.988464 
L 320.642091 93.988464 
L 322.868722 94.993924 
L 325.095353 94.770508 
L 327.321985 94.323589 
L 329.548616 91.977501 
L 331.775247 91.307166 
L 334.001879 90.078246 
L 336.22851 92.089209 
L 338.455141 91.754041 
L 340.681773 90.748581 
L 342.908404 88.514159 
L 345.135035 88.62591 
L 347.361666 87.396947 
L 349.588298 88.290742 
L 351.814929 85.162568 
L 354.04156 85.386027 
L 356.268192 87.732115 
L 358.494823 84.8274 
L 360.721454 86.391487 
L 362.948086 87.396947 
L 365.174717 84.380524 
L 367.401348 82.816437 
L 369.62798 84.157108 
L 371.854611 84.268816 
L 374.081242 81.699268 
L 376.307873 80.470349 
L 378.534505 82.704729 
L 380.761136 81.028933 
L 382.987767 81.810977 
L 385.214399 79.688305 
L 387.44103 80.917225 
L 389.667661 80.02343 
L 391.894293 79.688305 
L 394.120924 78.235926 
L 396.347555 77.230466 
L 398.574187 78.01251 
L 400.800818 76.895298 
L 403.027449 76.336671 
L 405.25408 76.224963 
L 407.480712 78.124218 
L 409.707343 78.459386 
L 411.933974 78.459386 
L 414.160606 75.219503 
L 418.613868 76.113255 
L 420.8405 76.78359 
L 423.067131 75.107752 
L 425.293762 74.437459 
L 429.747025 74.214 
L 429.747025 74.214 
" clip-path="url(#pfaed2d2f78)" style="fill: none; stroke: #4c72b0; stroke-width: 1.5; stroke-linecap: round"/>
   </g>
   <g id="line2d_13">
    <path d="M 131.37843 373.958749 
L 133.605061 360.552343 
L 135.831692 380.997099 
L 138.058324 386.694821 
L 140.284955 387.029989 
L 142.511586 382.002602 
L 144.738218 366.585232 
L 146.964849 325.025384 
L 149.19148 252.630838 
L 151.418112 191.966904 
L 153.644743 212.41166 
L 155.871374 255.647261 
L 158.098005 253.301173 
L 160.324637 246.262781 
L 162.551268 230.510286 
L 164.777899 225.482899 
L 167.004531 221.796141 
L 169.231162 213.081953 
L 171.457793 213.081953 
L 173.684425 208.054566 
L 175.911056 204.03264 
L 178.137687 202.021677 
L 180.364318 195.318495 
L 184.817581 192.637196 
L 187.044212 189.285605 
L 189.270844 188.950438 
L 191.497475 180.57146 
L 193.724106 184.593344 
L 195.950738 178.895665 
L 198.177369 177.890162 
L 200.404 175.208863 
L 202.630632 173.197943 
L 204.857263 171.857272 
L 207.083894 169.511184 
L 209.310525 167.835346 
L 211.537157 165.15409 
L 213.763788 161.467331 
L 215.990419 163.143127 
L 218.217051 156.77507 
L 220.443682 158.11574 
L 222.670313 153.758646 
L 224.896945 152.418019 
L 227.123576 148.060925 
L 229.350207 147.055464 
L 231.576839 143.033538 
L 233.80347 143.703831 
L 236.030101 143.033538 
L 238.256732 139.681904 
L 240.483364 142.363203 
L 242.709995 139.346779 
L 244.936626 137.670984 
L 247.163258 136.665481 
L 249.389889 136.330313 
L 253.843152 132.978722 
L 256.069783 133.984225 
L 258.296414 140.687407 
L 260.523046 129.627131 
L 262.749677 129.962299 
L 264.976308 129.291964 
L 267.202939 124.93487 
L 269.429571 127.281 
L 271.656202 126.945833 
L 273.882833 124.599745 
L 276.109465 123.929409 
L 278.336096 128.956796 
L 280.562727 121.918446 
L 282.789359 125.940372 
L 285.01599 123.929409 
L 289.469252 123.929409 
L 291.695884 125.605205 
L 293.922515 123.929409 
L 296.149146 120.912986 
L 298.375778 121.583279 
L 300.602409 120.912986 
L 302.82904 119.572315 
L 305.055672 119.572315 
L 307.282303 120.912986 
L 309.508934 119.237148 
L 311.735566 119.907483 
L 313.962197 120.912986 
L 316.188828 118.566855 
L 318.415459 119.907483 
L 320.642091 117.89652 
L 322.868722 118.231687 
L 325.095353 116.220724 
L 327.321985 117.561352 
L 329.548616 116.220724 
L 331.775247 117.561352 
L 334.001879 118.566855 
L 336.22851 116.89106 
L 338.455141 116.220724 
L 340.681773 117.561352 
L 342.908404 116.555892 
L 345.135035 114.544929 
L 347.361666 115.550389 
L 349.588298 116.220724 
L 351.814929 115.550389 
L 354.04156 115.550389 
L 356.268192 115.215264 
L 358.494823 115.885557 
L 360.721454 113.874594 
L 362.948086 114.880096 
L 365.174717 112.533966 
L 367.401348 114.544929 
L 369.62798 114.209761 
L 371.854611 113.204301 
L 374.081242 114.209761 
L 376.307873 113.874594 
L 378.534505 114.544929 
L 380.761136 113.539426 
L 382.987767 112.869133 
L 385.214399 114.880096 
L 387.44103 114.880096 
L 389.667661 112.533966 
L 391.894293 113.539426 
L 394.120924 112.198798 
L 396.347555 112.869133 
L 398.574187 111.86363 
L 400.800818 112.198798 
L 405.25408 112.198798 
L 407.480712 113.539426 
L 409.707343 112.198798 
L 411.933974 113.204301 
L 414.160606 110.85817 
L 416.387237 112.869133 
L 418.613868 110.85817 
L 420.8405 112.533966 
L 423.067131 111.86363 
L 425.293762 112.198798 
L 427.520393 111.86363 
L 429.747025 112.533966 
L 429.747025 112.533966 
" clip-path="url(#pfaed2d2f78)" style="fill: none; stroke: #c44e52; stroke-width: 1.5; stroke-linecap: round"/>
   </g>
   <g id="patch_3">
    <path d="M 116.46 426.132 
L 116.46 57.456 
" style="fill: none; stroke: #ffffff; stroke-width: 1.25; stroke-linejoin: miter; stroke-linecap: square"/>
   </g>
   <g id="patch_4">
    <path d="M 444.665455 426.132 
L 444.665455 57.456 
" style="fill: none; stroke: #ffffff; stroke-width: 1.25; stroke-linejoin: miter; stroke-linecap: square"/>
   </g>
   <g id="patch_5">
    <path d="M 116.46 426.132 
L 444.665455 426.132 
" style="fill: none; stroke: #ffffff; stroke-width: 1.25; stroke-linejoin: miter; stroke-linecap: square"/>
   </g>
   <g id="patch_6">
    <path d="M 116.46 57.456 
L 444.665455 57.456 
" style="fill: none; stroke: #ffffff; stroke-width: 1.25; stroke-linejoin: miter; stroke-linecap: square"/>
   </g>
   <g id="text_12">
    <!-- Training and validation accuracy -->
    <g style="fill: #262626" transform="translate(144.354102 51.456)scale(0.168 -0.168)">
     <defs>
      <path id="DejaVuSans-54" d="M -19 4666 
L 3928 4666 
L 3928 4134 
L 2272 4134 
L 2272 0 
L 1638 0 
L 1638 4134 
L -19 4134 
L -19 4666 
z
" transform="scale(0.015625)"/>
      <path id="DejaVuSans-72" d="M 2631 2963 
Q 2534 3019 2420 3045 
Q 2306 3072 2169 3072 
Q 1681 3072 1420 2755 
Q 1159 2438 1159 1844 
L 1159 0 
L 581 0 
L 581 3500 
L 1159 3500 
L 1159 2956 
Q 1341 3275 1631 3429 
Q 1922 3584 2338 3584 
Q 2397 3584 2469 3576 
Q 2541 3569 2628 3553 
L 2631 2963 
z
" transform="scale(0.015625)"/>
      <path id="DejaVuSans-61" d="M 2194 1759 
Q 1497 1759 1228 1600 
Q 959 1441 959 1056 
Q 959 750 1161 570 
Q 1363 391 1709 391 
Q 2188 391 2477 730 
Q 2766 1069 2766 1631 
L 2766 1759 
L 2194 1759 
z
M 3341 1997 
L 3341 0 
L 2766 0 
L 2766 531 
Q 2569 213 2275 61 
Q 1981 -91 1556 -91 
Q 1019 -91 701 211 
Q 384 513 384 1019 
Q 384 1609 779 1909 
Q 1175 2209 1959 2209 
L 2766 2209 
L 2766 2266 
Q 2766 2663 2505 2880 
Q 2244 3097 1772 3097 
Q 1472 3097 1187 3025 
Q 903 2953 641 2809 
L 641 3341 
Q 956 3463 1253 3523 
Q 1550 3584 1831 3584 
Q 2591 3584 2966 3190 
Q 3341 2797 3341 1997 
z
" transform="scale(0.015625)"/>
      <path id="DejaVuSans-69" d="M 603 3500 
L 1178 3500 
L 1178 0 
L 603 0 
L 603 3500 
z
M 603 4863 
L 1178 4863 
L 1178 4134 
L 603 4134 
L 603 4863 
z
" transform="scale(0.015625)"/>
      <path id="DejaVuSans-6e" d="M 3513 2113 
L 3513 0 
L 2938 0 
L 2938 2094 
Q 2938 2591 2744 2837 
Q 2550 3084 2163 3084 
Q 1697 3084 1428 2787 
Q 1159 2491 1159 1978 
L 1159 0 
L 581 0 
L 581 3500 
L 1159 3500 
L 1159 2956 
Q 1366 3272 1645 3428 
Q 1925 3584 2291 3584 
Q 2894 3584 3203 3211 
Q 3513 2838 3513 2113 
z
" transform="scale(0.015625)"/>
      <path id="DejaVuSans-67" d="M 2906 1791 
Q 2906 2416 2648 2759 
Q 2391 3103 1925 3103 
Q 1463 3103 1205 2759 
Q 947 2416 947 1791 
Q 947 1169 1205 825 
Q 1463 481 1925 481 
Q 2391 481 2648 825 
Q 2906 1169 2906 1791 
z
M 3481 434 
Q 3481 -459 3084 -895 
Q 2688 -1331 1869 -1331 
Q 1566 -1331 1297 -1286 
Q 1028 -1241 775 -1147 
L 775 -588 
Q 1028 -725 1275 -790 
Q 1522 -856 1778 -856 
Q 2344 -856 2625 -561 
Q 2906 -266 2906 331 
L 2906 616 
Q 2728 306 2450 153 
Q 2172 0 1784 0 
Q 1141 0 747 490 
Q 353 981 353 1791 
Q 353 2603 747 3093 
Q 1141 3584 1784 3584 
Q 2172 3584 2450 3431 
Q 2728 3278 2906 2969 
L 2906 3500 
L 3481 3500 
L 3481 434 
z
" transform="scale(0.015625)"/>
      <path id="DejaVuSans-20" transform="scale(0.015625)"/>
      <path id="DejaVuSans-64" d="M 2906 2969 
L 2906 4863 
L 3481 4863 
L 3481 0 
L 2906 0 
L 2906 525 
Q 2725 213 2448 61 
Q 2172 -91 1784 -91 
Q 1150 -91 751 415 
Q 353 922 353 1747 
Q 353 2572 751 3078 
Q 1150 3584 1784 3584 
Q 2172 3584 2448 3432 
Q 2725 3281 2906 2969 
z
M 947 1747 
Q 947 1113 1208 752 
Q 1469 391 1925 391 
Q 2381 391 2643 752 
Q 2906 1113 2906 1747 
Q 2906 2381 2643 2742 
Q 2381 3103 1925 3103 
Q 1469 3103 1208 2742 
Q 947 2381 947 1747 
z
" transform="scale(0.015625)"/>
      <path id="DejaVuSans-76" d="M 191 3500 
L 800 3500 
L 1894 563 
L 2988 3500 
L 3597 3500 
L 2284 0 
L 1503 0 
L 191 3500 
z
" transform="scale(0.015625)"/>
      <path id="DejaVuSans-6c" d="M 603 4863 
L 1178 4863 
L 1178 0 
L 603 0 
L 603 4863 
z
" transform="scale(0.015625)"/>
      <path id="DejaVuSans-74" d="M 1172 4494 
L 1172 3500 
L 2356 3500 
L 2356 3053 
L 1172 3053 
L 1172 1153 
Q 1172 725 1289 603 
Q 1406 481 1766 481 
L 2356 481 
L 2356 0 
L 1766 0 
Q 1100 0 847 248 
Q 594 497 594 1153 
L 594 3053 
L 172 3053 
L 172 3500 
L 594 3500 
L 594 4494 
L 1172 4494 
z
" transform="scale(0.015625)"/>
      <path id="DejaVuSans-6f" d="M 1959 3097 
Q 1497 3097 1228 2736 
Q 959 2375 959 1747 
Q 959 1119 1226 758 
Q 1494 397 1959 397 
Q 2419 397 2687 759 
Q 2956 1122 2956 1747 
Q 2956 2369 2687 2733 
Q 2419 3097 1959 3097 
z
M 1959 3584 
Q 2709 3584 3137 3096 
Q 3566 2609 3566 1747 
Q 3566 888 3137 398 
Q 2709 -91 1959 -91 
Q 1206 -91 779 398 
Q 353 888 353 1747 
Q 353 2609 779 3096 
Q 1206 3584 1959 3584 
z
" transform="scale(0.015625)"/>
      <path id="DejaVuSans-63" d="M 3122 3366 
L 3122 2828 
Q 2878 2963 2633 3030 
Q 2388 3097 2138 3097 
Q 1578 3097 1268 2742 
Q 959 2388 959 1747 
Q 959 1106 1268 751 
Q 1578 397 2138 397 
Q 2388 397 2633 464 
Q 2878 531 3122 666 
L 3122 134 
Q 2881 22 2623 -34 
Q 2366 -91 2075 -91 
Q 1284 -91 818 406 
Q 353 903 353 1747 
Q 353 2603 823 3093 
Q 1294 3584 2113 3584 
Q 2378 3584 2631 3529 
Q 2884 3475 3122 3366 
z
" transform="scale(0.015625)"/>
      <path id="DejaVuSans-75" d="M 544 1381 
L 544 3500 
L 1119 3500 
L 1119 1403 
Q 1119 906 1312 657 
Q 1506 409 1894 409 
Q 2359 409 2629 706 
Q 2900 1003 2900 1516 
L 2900 3500 
L 3475 3500 
L 3475 0 
L 2900 0 
L 2900 538 
Q 2691 219 2414 64 
Q 2138 -91 1772 -91 
Q 1169 -91 856 284 
Q 544 659 544 1381 
z
M 1991 3584 
L 1991 3584 
z
" transform="scale(0.015625)"/>
      <path id="DejaVuSans-79" d="M 2059 -325 
Q 1816 -950 1584 -1140 
Q 1353 -1331 966 -1331 
L 506 -1331 
L 506 -850 
L 844 -850 
Q 1081 -850 1212 -737 
Q 1344 -625 1503 -206 
L 1606 56 
L 191 3500 
L 800 3500 
L 1894 763 
L 2988 3500 
L 3597 3500 
L 2059 -325 
z
" transform="scale(0.015625)"/>
     </defs>
     <use xlink:href="#DejaVuSans-54"/>
     <use xlink:href="#DejaVuSans-72" x="46.333984"/>
     <use xlink:href="#DejaVuSans-61" x="87.447266"/>
     <use xlink:href="#DejaVuSans-69" x="148.726562"/>
     <use xlink:href="#DejaVuSans-6e" x="176.509766"/>
     <use xlink:href="#DejaVuSans-69" x="239.888672"/>
     <use xlink:href="#DejaVuSans-6e" x="267.671875"/>
     <use xlink:href="#DejaVuSans-67" x="331.050781"/>
     <use xlink:href="#DejaVuSans-20" x="394.527344"/>
     <use xlink:href="#DejaVuSans-61" x="426.314453"/>
     <use xlink:href="#DejaVuSans-6e" x="487.59375"/>
     <use xlink:href="#DejaVuSans-64" x="550.972656"/>
     <use xlink:href="#DejaVuSans-20" x="614.449219"/>
     <use xlink:href="#DejaVuSans-76" x="646.236328"/>
     <use xlink:href="#DejaVuSans-61" x="705.416016"/>
     <use xlink:href="#DejaVuSans-6c" x="766.695312"/>
     <use xlink:href="#DejaVuSans-69" x="794.478516"/>
     <use xlink:href="#DejaVuSans-64" x="822.261719"/>
     <use xlink:href="#DejaVuSans-61" x="885.738281"/>
     <use xlink:href="#DejaVuSans-74" x="947.017578"/>
     <use xlink:href="#DejaVuSans-69" x="986.226562"/>
     <use xlink:href="#DejaVuSans-6f" x="1014.009766"/>
     <use xlink:href="#DejaVuSans-6e" x="1075.191406"/>
     <use xlink:href="#DejaVuSans-20" x="1138.570312"/>
     <use xlink:href="#DejaVuSans-61" x="1170.357422"/>
     <use xlink:href="#DejaVuSans-63" x="1231.636719"/>
     <use xlink:href="#DejaVuSans-63" x="1286.617188"/>
     <use xlink:href="#DejaVuSans-75" x="1341.597656"/>
     <use xlink:href="#DejaVuSans-72" x="1404.976562"/>
     <use xlink:href="#DejaVuSans-61" x="1446.089844"/>
     <use xlink:href="#DejaVuSans-63" x="1507.369141"/>
     <use xlink:href="#DejaVuSans-79" x="1562.349609"/>
    </g>
   </g>
   <g id="legend_1">
    <g id="patch_7">
     <path d="M 277.291517 418.432 
L 433.885455 418.432 
Q 436.965455 418.432 436.965455 415.352 
L 436.965455 371.683375 
Q 436.965455 368.603375 433.885455 368.603375 
L 277.291517 368.603375 
Q 274.211517 368.603375 274.211517 371.683375 
L 274.211517 415.352 
Q 274.211517 418.432 277.291517 418.432 
z
" style="fill: #eaeaf2; opacity: 0.8; stroke: #cccccc; stroke-linejoin: miter"/>
    </g>
    <g id="line2d_14">
     <path d="M 280.371517 381.074969 
L 295.771517 381.074969 
L 311.171517 381.074969 
" style="fill: none; stroke: #4c72b0; stroke-width: 1.5; stroke-linecap: round"/>
    </g>
    <g id="text_13">
     <!-- Training acc -->
     <g style="fill: #262626" transform="translate(323.491517 386.464969)scale(0.154 -0.154)">
      <use xlink:href="#DejaVuSans-54"/>
      <use xlink:href="#DejaVuSans-72" x="46.333984"/>
      <use xlink:href="#DejaVuSans-61" x="87.447266"/>
      <use xlink:href="#DejaVuSans-69" x="148.726562"/>
      <use xlink:href="#DejaVuSans-6e" x="176.509766"/>
      <use xlink:href="#DejaVuSans-69" x="239.888672"/>
      <use xlink:href="#DejaVuSans-6e" x="267.671875"/>
      <use xlink:href="#DejaVuSans-67" x="331.050781"/>
      <use xlink:href="#DejaVuSans-20" x="394.527344"/>
      <use xlink:href="#DejaVuSans-61" x="426.314453"/>
      <use xlink:href="#DejaVuSans-63" x="487.59375"/>
      <use xlink:href="#DejaVuSans-63" x="542.574219"/>
     </g>
    </g>
    <g id="line2d_15">
     <path d="M 280.371517 403.679281 
L 295.771517 403.679281 
L 311.171517 403.679281 
" style="fill: none; stroke: #c44e52; stroke-width: 1.5; stroke-linecap: round"/>
    </g>
    <g id="text_14">
     <!-- Validation acc -->
     <g style="fill: #262626" transform="translate(323.491517 409.069281)scale(0.154 -0.154)">
      <defs>
       <path id="DejaVuSans-56" d="M 1831 0 
L 50 4666 
L 709 4666 
L 2188 738 
L 3669 4666 
L 4325 4666 
L 2547 0 
L 1831 0 
z
" transform="scale(0.015625)"/>
      </defs>
      <use xlink:href="#DejaVuSans-56"/>
      <use xlink:href="#DejaVuSans-61" x="60.658203"/>
      <use xlink:href="#DejaVuSans-6c" x="121.9375"/>
      <use xlink:href="#DejaVuSans-69" x="149.720703"/>
      <use xlink:href="#DejaVuSans-64" x="177.503906"/>
      <use xlink:href="#DejaVuSans-61" x="240.980469"/>
      <use xlink:href="#DejaVuSans-74" x="302.259766"/>
      <use xlink:href="#DejaVuSans-69" x="341.46875"/>
      <use xlink:href="#DejaVuSans-6f" x="369.251953"/>
      <use xlink:href="#DejaVuSans-6e" x="430.433594"/>
      <use xlink:href="#DejaVuSans-20" x="493.8125"/>
      <use xlink:href="#DejaVuSans-61" x="525.599609"/>
      <use xlink:href="#DejaVuSans-63" x="586.878906"/>
      <use xlink:href="#DejaVuSans-63" x="641.859375"/>
     </g>
    </g>
   </g>
  </g>
  <g id="axes_2">
   <g id="patch_8">
    <path d="M 510.306545 426.132 
L 838.512 426.132 
L 838.512 57.456 
L 510.306545 57.456 
z
" style="fill: #eaeaf2"/>
   </g>
   <g id="matplotlib.axis_3">
    <g id="xtick_7">
     <g id="line2d_16">
      <path d="M 522.998344 426.132 
L 522.998344 57.456 
" clip-path="url(#pc420e2526d)" style="fill: none; stroke: #ffffff; stroke-linecap: round"/>
     </g>
     <g id="text_15">
      <!-- 0 -->
      <g style="fill: #262626" transform="translate(518.099219 447.333594)scale(0.154 -0.154)">
       <use xlink:href="#DejaVuSans-30"/>
      </g>
     </g>
    </g>
    <g id="xtick_8">
     <g id="line2d_17">
      <path d="M 578.664127 426.132 
L 578.664127 57.456 
" clip-path="url(#pc420e2526d)" style="fill: none; stroke: #ffffff; stroke-linecap: round"/>
     </g>
     <g id="text_16">
      <!-- 25 -->
      <g style="fill: #262626" transform="translate(568.865877 447.333594)scale(0.154 -0.154)">
       <use xlink:href="#DejaVuSans-32"/>
       <use xlink:href="#DejaVuSans-35" x="63.623047"/>
      </g>
     </g>
    </g>
    <g id="xtick_9">
     <g id="line2d_18">
      <path d="M 634.329909 426.132 
L 634.329909 57.456 
" clip-path="url(#pc420e2526d)" style="fill: none; stroke: #ffffff; stroke-linecap: round"/>
     </g>
     <g id="text_17">
      <!-- 50 -->
      <g style="fill: #262626" transform="translate(624.531659 447.333594)scale(0.154 -0.154)">
       <use xlink:href="#DejaVuSans-35"/>
       <use xlink:href="#DejaVuSans-30" x="63.623047"/>
      </g>
     </g>
    </g>
    <g id="xtick_10">
     <g id="line2d_19">
      <path d="M 689.995692 426.132 
L 689.995692 57.456 
" clip-path="url(#pc420e2526d)" style="fill: none; stroke: #ffffff; stroke-linecap: round"/>
     </g>
     <g id="text_18">
      <!-- 75 -->
      <g style="fill: #262626" transform="translate(680.197442 447.333594)scale(0.154 -0.154)">
       <use xlink:href="#DejaVuSans-37"/>
       <use xlink:href="#DejaVuSans-35" x="63.623047"/>
      </g>
     </g>
    </g>
    <g id="xtick_11">
     <g id="line2d_20">
      <path d="M 745.661475 426.132 
L 745.661475 57.456 
" clip-path="url(#pc420e2526d)" style="fill: none; stroke: #ffffff; stroke-linecap: round"/>
     </g>
     <g id="text_19">
      <!-- 100 -->
      <g style="fill: #262626" transform="translate(730.9641 447.333594)scale(0.154 -0.154)">
       <use xlink:href="#DejaVuSans-31"/>
       <use xlink:href="#DejaVuSans-30" x="63.623047"/>
       <use xlink:href="#DejaVuSans-30" x="127.246094"/>
      </g>
     </g>
    </g>
    <g id="xtick_12">
     <g id="line2d_21">
      <path d="M 801.327257 426.132 
L 801.327257 57.456 
" clip-path="url(#pc420e2526d)" style="fill: none; stroke: #ffffff; stroke-linecap: round"/>
     </g>
     <g id="text_20">
      <!-- 125 -->
      <g style="fill: #262626" transform="translate(786.629882 447.333594)scale(0.154 -0.154)">
       <use xlink:href="#DejaVuSans-31"/>
       <use xlink:href="#DejaVuSans-32" x="63.623047"/>
       <use xlink:href="#DejaVuSans-35" x="127.246094"/>
      </g>
     </g>
    </g>
   </g>
   <g id="matplotlib.axis_4">
    <g id="ytick_6">
     <g id="line2d_22">
      <path d="M 510.306545 397.220017 
L 838.512 397.220017 
" clip-path="url(#pc420e2526d)" style="fill: none; stroke: #ffffff; stroke-linecap: round"/>
     </g>
     <g id="text_21">
      <!-- 0.1 -->
      <g style="fill: #262626" transform="translate(476.315733 403.070814)scale(0.154 -0.154)">
       <use xlink:href="#DejaVuSans-30"/>
       <use xlink:href="#DejaVuSans-2e" x="63.623047"/>
       <use xlink:href="#DejaVuSans-31" x="95.410156"/>
      </g>
     </g>
    </g>
    <g id="ytick_7">
     <g id="line2d_23">
      <path d="M 510.306545 342.736225 
L 838.512 342.736225 
" clip-path="url(#pc420e2526d)" style="fill: none; stroke: #ffffff; stroke-linecap: round"/>
     </g>
     <g id="text_22">
      <!-- 0.2 -->
      <g style="fill: #262626" transform="translate(476.315733 348.587022)scale(0.154 -0.154)">
       <use xlink:href="#DejaVuSans-30"/>
       <use xlink:href="#DejaVuSans-2e" x="63.623047"/>
       <use xlink:href="#DejaVuSans-32" x="95.410156"/>
      </g>
     </g>
    </g>
    <g id="ytick_8">
     <g id="line2d_24">
      <path d="M 510.306545 288.252434 
L 838.512 288.252434 
" clip-path="url(#pc420e2526d)" style="fill: none; stroke: #ffffff; stroke-linecap: round"/>
     </g>
     <g id="text_23">
      <!-- 0.3 -->
      <g style="fill: #262626" transform="translate(476.315733 294.103231)scale(0.154 -0.154)">
       <defs>
        <path id="DejaVuSans-33" d="M 2597 2516 
Q 3050 2419 3304 2112 
Q 3559 1806 3559 1356 
Q 3559 666 3084 287 
Q 2609 -91 1734 -91 
Q 1441 -91 1130 -33 
Q 819 25 488 141 
L 488 750 
Q 750 597 1062 519 
Q 1375 441 1716 441 
Q 2309 441 2620 675 
Q 2931 909 2931 1356 
Q 2931 1769 2642 2001 
Q 2353 2234 1838 2234 
L 1294 2234 
L 1294 2753 
L 1863 2753 
Q 2328 2753 2575 2939 
Q 2822 3125 2822 3475 
Q 2822 3834 2567 4026 
Q 2313 4219 1838 4219 
Q 1578 4219 1281 4162 
Q 984 4106 628 3988 
L 628 4550 
Q 988 4650 1302 4700 
Q 1616 4750 1894 4750 
Q 2613 4750 3031 4423 
Q 3450 4097 3450 3541 
Q 3450 3153 3228 2886 
Q 3006 2619 2597 2516 
z
" transform="scale(0.015625)"/>
       </defs>
       <use xlink:href="#DejaVuSans-30"/>
       <use xlink:href="#DejaVuSans-2e" x="63.623047"/>
       <use xlink:href="#DejaVuSans-33" x="95.410156"/>
      </g>
     </g>
    </g>
    <g id="ytick_9">
     <g id="line2d_25">
      <path d="M 510.306545 233.768643 
L 838.512 233.768643 
" clip-path="url(#pc420e2526d)" style="fill: none; stroke: #ffffff; stroke-linecap: round"/>
     </g>
     <g id="text_24">
      <!-- 0.4 -->
      <g style="fill: #262626" transform="translate(476.315733 239.61944)scale(0.154 -0.154)">
       <defs>
        <path id="DejaVuSans-34" d="M 2419 4116 
L 825 1625 
L 2419 1625 
L 2419 4116 
z
M 2253 4666 
L 3047 4666 
L 3047 1625 
L 3713 1625 
L 3713 1100 
L 3047 1100 
L 3047 0 
L 2419 0 
L 2419 1100 
L 313 1100 
L 313 1709 
L 2253 4666 
z
" transform="scale(0.015625)"/>
       </defs>
       <use xlink:href="#DejaVuSans-30"/>
       <use xlink:href="#DejaVuSans-2e" x="63.623047"/>
       <use xlink:href="#DejaVuSans-34" x="95.410156"/>
      </g>
     </g>
    </g>
    <g id="ytick_10">
     <g id="line2d_26">
      <path d="M 510.306545 179.284851 
L 838.512 179.284851 
" clip-path="url(#pc420e2526d)" style="fill: none; stroke: #ffffff; stroke-linecap: round"/>
     </g>
     <g id="text_25">
      <!-- 0.5 -->
      <g style="fill: #262626" transform="translate(476.315733 185.135648)scale(0.154 -0.154)">
       <use xlink:href="#DejaVuSans-30"/>
       <use xlink:href="#DejaVuSans-2e" x="63.623047"/>
       <use xlink:href="#DejaVuSans-35" x="95.410156"/>
      </g>
     </g>
    </g>
    <g id="ytick_11">
     <g id="line2d_27">
      <path d="M 510.306545 124.80106 
L 838.512 124.80106 
" clip-path="url(#pc420e2526d)" style="fill: none; stroke: #ffffff; stroke-linecap: round"/>
     </g>
     <g id="text_26">
      <!-- 0.6 -->
      <g style="fill: #262626" transform="translate(476.315733 130.651857)scale(0.154 -0.154)">
       <use xlink:href="#DejaVuSans-30"/>
       <use xlink:href="#DejaVuSans-2e" x="63.623047"/>
       <use xlink:href="#DejaVuSans-36" x="95.410156"/>
      </g>
     </g>
    </g>
    <g id="ytick_12">
     <g id="line2d_28">
      <path d="M 510.306545 70.317269 
L 838.512 70.317269 
" clip-path="url(#pc420e2526d)" style="fill: none; stroke: #ffffff; stroke-linecap: round"/>
     </g>
     <g id="text_27">
      <!-- 0.7 -->
      <g style="fill: #262626" transform="translate(476.315733 76.168066)scale(0.154 -0.154)">
       <use xlink:href="#DejaVuSans-30"/>
       <use xlink:href="#DejaVuSans-2e" x="63.623047"/>
       <use xlink:href="#DejaVuSans-37" x="95.410156"/>
      </g>
     </g>
    </g>
   </g>
   <g id="line2d_29">
    <path d="M 525.224975 74.214 
L 527.451607 74.761786 
L 529.678238 75.186233 
L 531.904869 75.753828 
L 534.1315 76.481395 
L 536.358132 77.083447 
L 538.584763 78.369842 
L 540.811394 79.853878 
L 543.038026 81.632657 
L 545.264657 84.589656 
L 547.491288 89.243273 
L 556.397813 115.734161 
L 558.624445 123.655431 
L 560.851076 130.737129 
L 565.304339 145.65485 
L 569.757601 161.100678 
L 571.984233 167.668266 
L 574.210864 176.791723 
L 576.437495 182.751609 
L 578.664127 190.738137 
L 580.890758 195.236768 
L 583.117389 201.506675 
L 585.34402 205.97158 
L 587.570652 212.585087 
L 589.797283 219.813603 
L 592.023914 221.769565 
L 594.250546 226.750609 
L 596.477177 231.164528 
L 598.703808 236.503965 
L 600.93044 239.35409 
L 603.157071 244.241412 
L 605.383702 250.71112 
L 607.610334 252.719512 
L 612.063596 258.296032 
L 614.290227 262.791139 
L 616.516859 265.849379 
L 620.970121 272.846073 
L 623.196753 277.571004 
L 625.423384 278.899421 
L 627.650015 284.151274 
L 629.876647 285.821034 
L 632.103278 287.671891 
L 634.329909 294.35103 
L 636.556541 295.356858 
L 638.783172 298.519585 
L 641.009803 302.979148 
L 643.236434 304.023134 
L 645.463066 305.517757 
L 647.689697 311.046149 
L 649.916328 311.644401 
L 652.14296 315.497853 
L 656.596222 320.255609 
L 658.822854 321.937328 
L 661.049485 326.011568 
L 663.276116 327.475414 
L 665.502748 327.75805 
L 667.729379 330.457069 
L 669.95601 334.689479 
L 672.182641 337.98744 
L 674.409273 337.182688 
L 676.635904 340.051981 
L 678.862535 340.232436 
L 681.089167 344.205557 
L 683.315798 344.656982 
L 685.542429 346.884588 
L 687.769061 348.243864 
L 689.995692 351.731422 
L 692.222323 351.581973 
L 694.448954 354.315188 
L 696.675586 354.171267 
L 701.128848 357.110194 
L 705.582111 360.66465 
L 707.808742 361.101542 
L 710.035374 362.800149 
L 712.262005 365.78083 
L 714.488636 366.797732 
L 716.715268 366.52025 
L 718.941899 368.500868 
L 721.16853 368.691593 
L 723.395161 372.030075 
L 725.621793 372.661216 
L 727.848424 374.209009 
L 730.075055 374.340581 
L 732.301687 374.638798 
L 734.528318 376.846074 
L 736.754949 377.691395 
L 738.981581 377.891732 
L 741.208212 379.58196 
L 743.434843 381.731886 
L 745.661475 382.788756 
L 747.888106 383.061082 
L 750.114737 383.45894 
L 752.341368 384.178835 
L 754.568 385.018103 
L 756.794631 383.516615 
L 759.021262 388.169558 
L 761.247894 388.738311 
L 763.474525 387.836284 
L 767.927788 390.323904 
L 770.154419 392.119497 
L 772.38105 392.201431 
L 774.607682 392.003618 
L 776.834313 394.299612 
L 779.060944 394.40155 
L 781.287575 395.783713 
L 783.514207 395.68337 
L 785.740838 397.913902 
L 787.967469 398.992356 
L 790.194101 400.222634 
L 792.420732 399.711772 
L 794.647363 401.865217 
L 796.873995 402.414173 
L 799.100626 402.323998 
L 801.327257 402.686612 
L 803.553888 402.880053 
L 805.78052 402.133366 
L 808.007151 404.647835 
L 810.233782 405.230292 
L 812.460414 404.139307 
L 814.687045 405.179436 
L 816.913676 407.583612 
L 819.140308 408.679732 
L 821.366939 407.005084 
L 823.59357 409.374 
L 823.59357 409.374 
" clip-path="url(#pc420e2526d)" style="fill: none; stroke: #4c72b0; stroke-width: 1.5; stroke-linecap: round"/>
   </g>
   <g id="line2d_30">
    <path d="M 525.224975 74.457074 
L 529.678238 75.49049 
L 531.904869 76.073544 
L 534.1315 76.773312 
L 536.358132 77.649841 
L 538.584763 78.817021 
L 540.811394 80.431087 
L 543.038026 82.737484 
L 545.264657 86.366226 
L 547.491288 92.103919 
L 549.71792 99.213999 
L 556.397813 119.488158 
L 560.851076 134.1605 
L 574.210864 180.906078 
L 576.437495 188.186766 
L 578.664127 194.344715 
L 580.890758 200.90563 
L 583.117389 205.944333 
L 585.34402 211.69245 
L 587.570652 216.424948 
L 589.797283 221.696025 
L 592.023914 225.816015 
L 594.250546 230.431506 
L 596.477177 234.534056 
L 598.703808 238.115563 
L 600.93044 242.120998 
L 603.157071 245.617323 
L 605.383702 249.358526 
L 607.610334 252.78037 
L 609.836965 255.799397 
L 612.063596 259.249267 
L 614.290227 261.963663 
L 616.516859 265.437045 
L 618.74349 268.447693 
L 620.970121 271.158744 
L 623.196753 273.67035 
L 625.423384 276.97082 
L 629.876647 282.031249 
L 632.103278 284.872378 
L 634.329909 286.157701 
L 636.556541 289.622672 
L 638.783172 292.094708 
L 641.009803 293.9392 
L 643.236434 296.411495 
L 645.463066 297.665529 
L 647.689697 300.382977 
L 649.916328 302.005925 
L 652.14296 298.108307 
L 654.369591 305.910931 
L 658.822854 309.233094 
L 661.049485 310.628182 
L 663.276116 312.365944 
L 667.729379 315.0705 
L 669.95601 315.684267 
L 672.182641 314.463756 
L 674.409273 318.809519 
L 676.635904 318.555914 
L 678.862535 320.27183 
L 681.089167 321.827547 
L 683.315798 322.69724 
L 685.542429 318.96979 
L 687.769061 324.242354 
L 689.995692 325.620912 
L 696.675586 327.926465 
L 698.902217 328.494296 
L 701.128848 328.402011 
L 703.35548 329.683299 
L 705.582111 329.930871 
L 707.808742 329.406345 
L 710.035374 331.118875 
L 712.262005 331.492669 
L 714.488636 331.418594 
L 716.715268 332.903523 
L 718.941899 333.241522 
L 721.16853 332.290519 
L 723.395161 333.813729 
L 725.621793 334.434803 
L 727.848424 334.259739 
L 730.075055 335.055121 
L 732.301687 335.318639 
L 734.528318 335.314523 
L 736.754949 335.976839 
L 738.981581 335.507074 
L 741.208212 336.42975 
L 743.434843 336.423231 
L 745.661475 332.614456 
L 747.888106 336.723713 
L 752.341368 337.314211 
L 754.568 336.79273 
L 756.794631 337.16792 
L 759.021262 336.730224 
L 761.247894 337.193803 
L 763.474525 337.258371 
L 765.701156 336.477772 
L 767.927788 337.731051 
L 770.154419 337.61052 
L 772.38105 337.136265 
L 774.607682 338.080042 
L 779.060944 338.201352 
L 781.287575 337.088511 
L 783.514207 334.594214 
L 785.740838 337.31193 
L 787.967469 334.103259 
L 790.194101 336.07648 
L 792.420732 337.027783 
L 794.647363 336.501788 
L 796.873995 336.347272 
L 799.100626 337.389245 
L 801.327257 330.152812 
L 803.553888 337.291641 
L 805.78052 337.234258 
L 808.007151 335.794022 
L 810.233782 336.946011 
L 812.460414 336.381249 
L 814.687045 333.423316 
L 816.913676 336.619257 
L 819.140308 336.834484 
L 821.366939 331.855161 
L 823.59357 336.972105 
L 823.59357 336.972105 
" clip-path="url(#pc420e2526d)" style="fill: none; stroke: #c44e52; stroke-width: 1.5; stroke-linecap: round"/>
   </g>
   <g id="patch_9">
    <path d="M 510.306545 426.132 
L 510.306545 57.456 
" style="fill: none; stroke: #ffffff; stroke-width: 1.25; stroke-linejoin: miter; stroke-linecap: square"/>
   </g>
   <g id="patch_10">
    <path d="M 838.512 426.132 
L 838.512 57.456 
" style="fill: none; stroke: #ffffff; stroke-width: 1.25; stroke-linejoin: miter; stroke-linecap: square"/>
   </g>
   <g id="patch_11">
    <path d="M 510.306545 426.132 
L 838.512 426.132 
" style="fill: none; stroke: #ffffff; stroke-width: 1.25; stroke-linejoin: miter; stroke-linecap: square"/>
   </g>
   <g id="patch_12">
    <path d="M 510.306545 57.456 
L 838.512 57.456 
" style="fill: none; stroke: #ffffff; stroke-width: 1.25; stroke-linejoin: miter; stroke-linecap: square"/>
   </g>
   <g id="text_28">
    <!-- Training and validation loss -->
    <g style="fill: #262626" transform="translate(559.875273 51.456)scale(0.168 -0.168)">
     <defs>
      <path id="DejaVuSans-73" d="M 2834 3397 
L 2834 2853 
Q 2591 2978 2328 3040 
Q 2066 3103 1784 3103 
Q 1356 3103 1142 2972 
Q 928 2841 928 2578 
Q 928 2378 1081 2264 
Q 1234 2150 1697 2047 
L 1894 2003 
Q 2506 1872 2764 1633 
Q 3022 1394 3022 966 
Q 3022 478 2636 193 
Q 2250 -91 1575 -91 
Q 1294 -91 989 -36 
Q 684 19 347 128 
L 347 722 
Q 666 556 975 473 
Q 1284 391 1588 391 
Q 1994 391 2212 530 
Q 2431 669 2431 922 
Q 2431 1156 2273 1281 
Q 2116 1406 1581 1522 
L 1381 1569 
Q 847 1681 609 1914 
Q 372 2147 372 2553 
Q 372 3047 722 3315 
Q 1072 3584 1716 3584 
Q 2034 3584 2315 3537 
Q 2597 3491 2834 3397 
z
" transform="scale(0.015625)"/>
     </defs>
     <use xlink:href="#DejaVuSans-54"/>
     <use xlink:href="#DejaVuSans-72" x="46.333984"/>
     <use xlink:href="#DejaVuSans-61" x="87.447266"/>
     <use xlink:href="#DejaVuSans-69" x="148.726562"/>
     <use xlink:href="#DejaVuSans-6e" x="176.509766"/>
     <use xlink:href="#DejaVuSans-69" x="239.888672"/>
     <use xlink:href="#DejaVuSans-6e" x="267.671875"/>
     <use xlink:href="#DejaVuSans-67" x="331.050781"/>
     <use xlink:href="#DejaVuSans-20" x="394.527344"/>
     <use xlink:href="#DejaVuSans-61" x="426.314453"/>
     <use xlink:href="#DejaVuSans-6e" x="487.59375"/>
     <use xlink:href="#DejaVuSans-64" x="550.972656"/>
     <use xlink:href="#DejaVuSans-20" x="614.449219"/>
     <use xlink:href="#DejaVuSans-76" x="646.236328"/>
     <use xlink:href="#DejaVuSans-61" x="705.416016"/>
     <use xlink:href="#DejaVuSans-6c" x="766.695312"/>
     <use xlink:href="#DejaVuSans-69" x="794.478516"/>
     <use xlink:href="#DejaVuSans-64" x="822.261719"/>
     <use xlink:href="#DejaVuSans-61" x="885.738281"/>
     <use xlink:href="#DejaVuSans-74" x="947.017578"/>
     <use xlink:href="#DejaVuSans-69" x="986.226562"/>
     <use xlink:href="#DejaVuSans-6f" x="1014.009766"/>
     <use xlink:href="#DejaVuSans-6e" x="1075.191406"/>
     <use xlink:href="#DejaVuSans-20" x="1138.570312"/>
     <use xlink:href="#DejaVuSans-6c" x="1170.357422"/>
     <use xlink:href="#DejaVuSans-6f" x="1198.140625"/>
     <use xlink:href="#DejaVuSans-73" x="1259.322266"/>
     <use xlink:href="#DejaVuSans-73" x="1311.421875"/>
    </g>
   </g>
   <g id="legend_2">
    <g id="patch_13">
     <path d="M 667.7645 114.984625 
L 827.732 114.984625 
Q 830.812 114.984625 830.812 111.904625 
L 830.812 68.236 
Q 830.812 65.156 827.732 65.156 
L 667.7645 65.156 
Q 664.6845 65.156 664.6845 68.236 
L 664.6845 111.904625 
Q 664.6845 114.984625 667.7645 114.984625 
z
" style="fill: #eaeaf2; opacity: 0.8; stroke: #cccccc; stroke-linejoin: miter"/>
    </g>
    <g id="line2d_31">
     <path d="M 670.8445 77.627594 
L 686.2445 77.627594 
L 701.6445 77.627594 
" style="fill: none; stroke: #4c72b0; stroke-width: 1.5; stroke-linecap: round"/>
    </g>
    <g id="text_29">
     <!-- Training loss -->
     <g style="fill: #262626" transform="translate(713.9645 83.017594)scale(0.154 -0.154)">
      <use xlink:href="#DejaVuSans-54"/>
      <use xlink:href="#DejaVuSans-72" x="46.333984"/>
      <use xlink:href="#DejaVuSans-61" x="87.447266"/>
      <use xlink:href="#DejaVuSans-69" x="148.726562"/>
      <use xlink:href="#DejaVuSans-6e" x="176.509766"/>
      <use xlink:href="#DejaVuSans-69" x="239.888672"/>
      <use xlink:href="#DejaVuSans-6e" x="267.671875"/>
      <use xlink:href="#DejaVuSans-67" x="331.050781"/>
      <use xlink:href="#DejaVuSans-20" x="394.527344"/>
      <use xlink:href="#DejaVuSans-6c" x="426.314453"/>
      <use xlink:href="#DejaVuSans-6f" x="454.097656"/>
      <use xlink:href="#DejaVuSans-73" x="515.279297"/>
      <use xlink:href="#DejaVuSans-73" x="567.378906"/>
     </g>
    </g>
    <g id="line2d_32">
     <path d="M 670.8445 100.231906 
L 686.2445 100.231906 
L 701.6445 100.231906 
" style="fill: none; stroke: #c44e52; stroke-width: 1.5; stroke-linecap: round"/>
    </g>
    <g id="text_30">
     <!-- Validation loss -->
     <g style="fill: #262626" transform="translate(713.9645 105.621906)scale(0.154 -0.154)">
      <use xlink:href="#DejaVuSans-56"/>
      <use xlink:href="#DejaVuSans-61" x="60.658203"/>
      <use xlink:href="#DejaVuSans-6c" x="121.9375"/>
      <use xlink:href="#DejaVuSans-69" x="149.720703"/>
      <use xlink:href="#DejaVuSans-64" x="177.503906"/>
      <use xlink:href="#DejaVuSans-61" x="240.980469"/>
      <use xlink:href="#DejaVuSans-74" x="302.259766"/>
      <use xlink:href="#DejaVuSans-69" x="341.46875"/>
      <use xlink:href="#DejaVuSans-6f" x="369.251953"/>
      <use xlink:href="#DejaVuSans-6e" x="430.433594"/>
      <use xlink:href="#DejaVuSans-20" x="493.8125"/>
      <use xlink:href="#DejaVuSans-6c" x="525.599609"/>
      <use xlink:href="#DejaVuSans-6f" x="553.382812"/>
      <use xlink:href="#DejaVuSans-73" x="614.564453"/>
      <use xlink:href="#DejaVuSans-73" x="666.664062"/>
     </g>
    </g>
   </g>
  </g>
 </g>
 <defs>
  <clipPath id="pfaed2d2f78">
   <rect x="116.46" y="57.456" width="328.205455" height="368.676"/>
  </clipPath>
  <clipPath id="pc420e2526d">
   <rect x="510.306545" y="57.456" width="328.205455" height="368.676"/>
  </clipPath>
 </defs>
</svg>
