<?xml version="1.0" encoding="utf-8" standalone="no"?>
<!DOCTYPE svg PUBLIC "-//W3C//DTD SVG 1.1//EN"
  "http://www.w3.org/Graphics/SVG/1.1/DTD/svg11.dtd">
<svg xmlns:xlink="http://www.w3.org/1999/xlink" width="864pt" height="720pt" viewBox="0 0 864 720" xmlns="http://www.w3.org/2000/svg" version="1.1">
 <metadata>
  <rdf:RDF xmlns:dc="http://purl.org/dc/elements/1.1/" xmlns:cc="http://creativecommons.org/ns#" xmlns:rdf="http://www.w3.org/1999/02/22-rdf-syntax-ns#">
   <cc:Work>
    <dc:type rdf:resource="http://purl.org/dc/dcmitype/StillImage"/>
    <dc:date>2022-12-05T19:13:55.068701</dc:date>
    <dc:format>image/svg+xml</dc:format>
    <dc:creator>
     <cc:Agent>
      <dc:title>Matplotlib v3.6.2, https://matplotlib.org/</dc:title>
     </cc:Agent>
    </dc:creator>
   </cc:Work>
  </rdf:RDF>
 </metadata>
 <defs>
  <style type="text/css">*{stroke-linejoin: round; stroke-linecap: butt}</style>
 </defs>
 <g id="figure_1">
  <g id="patch_1">
   <path d="M 0 720 
L 864 720 
L 864 0 
L 0 0 
z
" style="fill: #ffffff"/>
  </g>
  <g id="axes_1">
   <g id="patch_2">
    <path d="M 108 640.8 
L 412.363636 640.8 
L 412.363636 86.4 
L 108 86.4 
z
" style="fill: #eaeaf2"/>
   </g>
   <g id="matplotlib.axis_1">
    <g id="xtick_1">
     <g id="line2d_1">
      <path d="M 111.952774 640.8 
L 111.952774 86.4 
" clip-path="url(#p0a58c20b2f)" style="fill: none; stroke: #ffffff; stroke-linecap: round"/>
     </g>
     <g id="text_1">
      <!-- 0 -->
      <g style="fill: #262626" transform="translate(107.753524 660.329938) scale(0.132 -0.132)">
       <defs>
        <path id="DejaVuSans-30" d="M 2034 4250 
Q 1547 4250 1301 3770 
Q 1056 3291 1056 2328 
Q 1056 1369 1301 889 
Q 1547 409 2034 409 
Q 2525 409 2770 889 
Q 3016 1369 3016 2328 
Q 3016 3291 2770 3770 
Q 2525 4250 2034 4250 
z
M 2034 4750 
Q 2819 4750 3233 4129 
Q 3647 3509 3647 2328 
Q 3647 1150 3233 529 
Q 2819 -91 2034 -91 
Q 1250 -91 836 529 
Q 422 1150 422 2328 
Q 422 3509 836 4129 
Q 1250 4750 2034 4750 
z
" transform="scale(0.015625)"/>
       </defs>
       <use xlink:href="#DejaVuSans-30"/>
      </g>
     </g>
    </g>
    <g id="xtick_2">
     <g id="line2d_2">
      <path d="M 161.362456 640.8 
L 161.362456 86.4 
" clip-path="url(#p0a58c20b2f)" style="fill: none; stroke: #ffffff; stroke-linecap: round"/>
     </g>
     <g id="text_2">
      <!-- 5 -->
      <g style="fill: #262626" transform="translate(157.163206 660.329938) scale(0.132 -0.132)">
       <defs>
        <path id="DejaVuSans-35" d="M 691 4666 
L 3169 4666 
L 3169 4134 
L 1269 4134 
L 1269 2991 
Q 1406 3038 1543 3061 
Q 1681 3084 1819 3084 
Q 2600 3084 3056 2656 
Q 3513 2228 3513 1497 
Q 3513 744 3044 326 
Q 2575 -91 1722 -91 
Q 1428 -91 1123 -41 
Q 819 9 494 109 
L 494 744 
Q 775 591 1075 516 
Q 1375 441 1709 441 
Q 2250 441 2565 725 
Q 2881 1009 2881 1497 
Q 2881 1984 2565 2268 
Q 2250 2553 1709 2553 
Q 1456 2553 1204 2497 
Q 953 2441 691 2322 
L 691 4666 
z
" transform="scale(0.015625)"/>
       </defs>
       <use xlink:href="#DejaVuSans-35"/>
      </g>
     </g>
    </g>
    <g id="xtick_3">
     <g id="line2d_3">
      <path d="M 210.772137 640.8 
L 210.772137 86.4 
" clip-path="url(#p0a58c20b2f)" style="fill: none; stroke: #ffffff; stroke-linecap: round"/>
     </g>
     <g id="text_3">
      <!-- 10 -->
      <g style="fill: #262626" transform="translate(202.373637 660.329938) scale(0.132 -0.132)">
       <defs>
        <path id="DejaVuSans-31" d="M 794 531 
L 1825 531 
L 1825 4091 
L 703 3866 
L 703 4441 
L 1819 4666 
L 2450 4666 
L 2450 531 
L 3481 531 
L 3481 0 
L 794 0 
L 794 531 
z
" transform="scale(0.015625)"/>
       </defs>
       <use xlink:href="#DejaVuSans-31"/>
       <use xlink:href="#DejaVuSans-30" x="63.623047"/>
      </g>
     </g>
    </g>
    <g id="xtick_4">
     <g id="line2d_4">
      <path d="M 260.181818 640.8 
L 260.181818 86.4 
" clip-path="url(#p0a58c20b2f)" style="fill: none; stroke: #ffffff; stroke-linecap: round"/>
     </g>
     <g id="text_4">
      <!-- 15 -->
      <g style="fill: #262626" transform="translate(251.783318 660.329938) scale(0.132 -0.132)">
       <use xlink:href="#DejaVuSans-31"/>
       <use xlink:href="#DejaVuSans-35" x="63.623047"/>
      </g>
     </g>
    </g>
    <g id="xtick_5">
     <g id="line2d_5">
      <path d="M 309.591499 640.8 
L 309.591499 86.4 
" clip-path="url(#p0a58c20b2f)" style="fill: none; stroke: #ffffff; stroke-linecap: round"/>
     </g>
     <g id="text_5">
      <!-- 20 -->
      <g style="fill: #262626" transform="translate(301.192999 660.329938) scale(0.132 -0.132)">
       <defs>
        <path id="DejaVuSans-32" d="M 1228 531 
L 3431 531 
L 3431 0 
L 469 0 
L 469 531 
Q 828 903 1448 1529 
Q 2069 2156 2228 2338 
Q 2531 2678 2651 2914 
Q 2772 3150 2772 3378 
Q 2772 3750 2511 3984 
Q 2250 4219 1831 4219 
Q 1534 4219 1204 4116 
Q 875 4013 500 3803 
L 500 4441 
Q 881 4594 1212 4672 
Q 1544 4750 1819 4750 
Q 2544 4750 2975 4387 
Q 3406 4025 3406 3419 
Q 3406 3131 3298 2873 
Q 3191 2616 2906 2266 
Q 2828 2175 2409 1742 
Q 1991 1309 1228 531 
z
" transform="scale(0.015625)"/>
       </defs>
       <use xlink:href="#DejaVuSans-32"/>
       <use xlink:href="#DejaVuSans-30" x="63.623047"/>
      </g>
     </g>
    </g>
    <g id="xtick_6">
     <g id="line2d_6">
      <path d="M 359.001181 640.8 
L 359.001181 86.4 
" clip-path="url(#p0a58c20b2f)" style="fill: none; stroke: #ffffff; stroke-linecap: round"/>
     </g>
     <g id="text_6">
      <!-- 25 -->
      <g style="fill: #262626" transform="translate(350.602681 660.329938) scale(0.132 -0.132)">
       <use xlink:href="#DejaVuSans-32"/>
       <use xlink:href="#DejaVuSans-35" x="63.623047"/>
      </g>
     </g>
    </g>
    <g id="xtick_7">
     <g id="line2d_7">
      <path d="M 408.410862 640.8 
L 408.410862 86.4 
" clip-path="url(#p0a58c20b2f)" style="fill: none; stroke: #ffffff; stroke-linecap: round"/>
     </g>
     <g id="text_7">
      <!-- 30 -->
      <g style="fill: #262626" transform="translate(400.012362 660.329938) scale(0.132 -0.132)">
       <defs>
        <path id="DejaVuSans-33" d="M 2597 2516 
Q 3050 2419 3304 2112 
Q 3559 1806 3559 1356 
Q 3559 666 3084 287 
Q 2609 -91 1734 -91 
Q 1441 -91 1130 -33 
Q 819 25 488 141 
L 488 750 
Q 750 597 1062 519 
Q 1375 441 1716 441 
Q 2309 441 2620 675 
Q 2931 909 2931 1356 
Q 2931 1769 2642 2001 
Q 2353 2234 1838 2234 
L 1294 2234 
L 1294 2753 
L 1863 2753 
Q 2328 2753 2575 2939 
Q 2822 3125 2822 3475 
Q 2822 3834 2567 4026 
Q 2313 4219 1838 4219 
Q 1578 4219 1281 4162 
Q 984 4106 628 3988 
L 628 4550 
Q 988 4650 1302 4700 
Q 1616 4750 1894 4750 
Q 2613 4750 3031 4423 
Q 3450 4097 3450 3541 
Q 3450 3153 3228 2886 
Q 3006 2619 2597 2516 
z
" transform="scale(0.015625)"/>
       </defs>
       <use xlink:href="#DejaVuSans-33"/>
       <use xlink:href="#DejaVuSans-30" x="63.623047"/>
      </g>
     </g>
    </g>
   </g>
   <g id="matplotlib.axis_2">
    <g id="ytick_1">
     <g id="line2d_8">
      <path d="M 108 583.856363 
L 412.363636 583.856363 
" clip-path="url(#p0a58c20b2f)" style="fill: none; stroke: #ffffff; stroke-linecap: round"/>
     </g>
     <g id="text_8">
      <!-- 0.6 -->
      <g style="fill: #262626" transform="translate(77.507875 588.871332) scale(0.132 -0.132)">
       <defs>
        <path id="DejaVuSans-2e" d="M 684 794 
L 1344 794 
L 1344 0 
L 684 0 
L 684 794 
z
" transform="scale(0.015625)"/>
        <path id="DejaVuSans-36" d="M 2113 2584 
Q 1688 2584 1439 2293 
Q 1191 2003 1191 1497 
Q 1191 994 1439 701 
Q 1688 409 2113 409 
Q 2538 409 2786 701 
Q 3034 994 3034 1497 
Q 3034 2003 2786 2293 
Q 2538 2584 2113 2584 
z
M 3366 4563 
L 3366 3988 
Q 3128 4100 2886 4159 
Q 2644 4219 2406 4219 
Q 1781 4219 1451 3797 
Q 1122 3375 1075 2522 
Q 1259 2794 1537 2939 
Q 1816 3084 2150 3084 
Q 2853 3084 3261 2657 
Q 3669 2231 3669 1497 
Q 3669 778 3244 343 
Q 2819 -91 2113 -91 
Q 1303 -91 875 529 
Q 447 1150 447 2328 
Q 447 3434 972 4092 
Q 1497 4750 2381 4750 
Q 2619 4750 2861 4703 
Q 3103 4656 3366 4563 
z
" transform="scale(0.015625)"/>
       </defs>
       <use xlink:href="#DejaVuSans-30"/>
       <use xlink:href="#DejaVuSans-2e" x="63.623047"/>
       <use xlink:href="#DejaVuSans-36" x="95.410156"/>
      </g>
     </g>
    </g>
    <g id="ytick_2">
     <g id="line2d_9">
      <path d="M 108 464.678452 
L 412.363636 464.678452 
" clip-path="url(#p0a58c20b2f)" style="fill: none; stroke: #ffffff; stroke-linecap: round"/>
     </g>
     <g id="text_9">
      <!-- 0.7 -->
      <g style="fill: #262626" transform="translate(77.507875 469.693421) scale(0.132 -0.132)">
       <defs>
        <path id="DejaVuSans-37" d="M 525 4666 
L 3525 4666 
L 3525 4397 
L 1831 0 
L 1172 0 
L 2766 4134 
L 525 4134 
L 525 4666 
z
" transform="scale(0.015625)"/>
       </defs>
       <use xlink:href="#DejaVuSans-30"/>
       <use xlink:href="#DejaVuSans-2e" x="63.623047"/>
       <use xlink:href="#DejaVuSans-37" x="95.410156"/>
      </g>
     </g>
    </g>
    <g id="ytick_3">
     <g id="line2d_10">
      <path d="M 108 345.500542 
L 412.363636 345.500542 
" clip-path="url(#p0a58c20b2f)" style="fill: none; stroke: #ffffff; stroke-linecap: round"/>
     </g>
     <g id="text_10">
      <!-- 0.8 -->
      <g style="fill: #262626" transform="translate(77.507875 350.51551) scale(0.132 -0.132)">
       <defs>
        <path id="DejaVuSans-38" d="M 2034 2216 
Q 1584 2216 1326 1975 
Q 1069 1734 1069 1313 
Q 1069 891 1326 650 
Q 1584 409 2034 409 
Q 2484 409 2743 651 
Q 3003 894 3003 1313 
Q 3003 1734 2745 1975 
Q 2488 2216 2034 2216 
z
M 1403 2484 
Q 997 2584 770 2862 
Q 544 3141 544 3541 
Q 544 4100 942 4425 
Q 1341 4750 2034 4750 
Q 2731 4750 3128 4425 
Q 3525 4100 3525 3541 
Q 3525 3141 3298 2862 
Q 3072 2584 2669 2484 
Q 3125 2378 3379 2068 
Q 3634 1759 3634 1313 
Q 3634 634 3220 271 
Q 2806 -91 2034 -91 
Q 1263 -91 848 271 
Q 434 634 434 1313 
Q 434 1759 690 2068 
Q 947 2378 1403 2484 
z
M 1172 3481 
Q 1172 3119 1398 2916 
Q 1625 2713 2034 2713 
Q 2441 2713 2670 2916 
Q 2900 3119 2900 3481 
Q 2900 3844 2670 4047 
Q 2441 4250 2034 4250 
Q 1625 4250 1398 4047 
Q 1172 3844 1172 3481 
z
" transform="scale(0.015625)"/>
       </defs>
       <use xlink:href="#DejaVuSans-30"/>
       <use xlink:href="#DejaVuSans-2e" x="63.623047"/>
       <use xlink:href="#DejaVuSans-38" x="95.410156"/>
      </g>
     </g>
    </g>
    <g id="ytick_4">
     <g id="line2d_11">
      <path d="M 108 226.322631 
L 412.363636 226.322631 
" clip-path="url(#p0a58c20b2f)" style="fill: none; stroke: #ffffff; stroke-linecap: round"/>
     </g>
     <g id="text_11">
      <!-- 0.9 -->
      <g style="fill: #262626" transform="translate(77.507875 231.3376) scale(0.132 -0.132)">
       <defs>
        <path id="DejaVuSans-39" d="M 703 97 
L 703 672 
Q 941 559 1184 500 
Q 1428 441 1663 441 
Q 2288 441 2617 861 
Q 2947 1281 2994 2138 
Q 2813 1869 2534 1725 
Q 2256 1581 1919 1581 
Q 1219 1581 811 2004 
Q 403 2428 403 3163 
Q 403 3881 828 4315 
Q 1253 4750 1959 4750 
Q 2769 4750 3195 4129 
Q 3622 3509 3622 2328 
Q 3622 1225 3098 567 
Q 2575 -91 1691 -91 
Q 1453 -91 1209 -44 
Q 966 3 703 97 
z
M 1959 2075 
Q 2384 2075 2632 2365 
Q 2881 2656 2881 3163 
Q 2881 3666 2632 3958 
Q 2384 4250 1959 4250 
Q 1534 4250 1286 3958 
Q 1038 3666 1038 3163 
Q 1038 2656 1286 2365 
Q 1534 2075 1959 2075 
z
" transform="scale(0.015625)"/>
       </defs>
       <use xlink:href="#DejaVuSans-30"/>
       <use xlink:href="#DejaVuSans-2e" x="63.623047"/>
       <use xlink:href="#DejaVuSans-39" x="95.410156"/>
      </g>
     </g>
    </g>
    <g id="ytick_5">
     <g id="line2d_12">
      <path d="M 108 107.14472 
L 412.363636 107.14472 
" clip-path="url(#p0a58c20b2f)" style="fill: none; stroke: #ffffff; stroke-linecap: round"/>
     </g>
     <g id="text_12">
      <!-- 1.0 -->
      <g style="fill: #262626" transform="translate(77.507875 112.159689) scale(0.132 -0.132)">
       <use xlink:href="#DejaVuSans-31"/>
       <use xlink:href="#DejaVuSans-2e" x="63.623047"/>
       <use xlink:href="#DejaVuSans-30" x="95.410156"/>
      </g>
     </g>
    </g>
   </g>
   <g id="line2d_13">
    <path d="M 121.834711 615.6 
L 131.716647 449.642012 
L 141.598583 365.363494 
L 151.480519 308.93035 
L 161.362456 247.299463 
L 171.244392 212.214356 
L 181.126328 194.393378 
L 191.008264 179.728155 
L 200.890201 164.691701 
L 210.772137 157.637514 
L 220.654073 145.014351 
L 230.536009 142.229828 
L 240.417946 136.846397 
L 250.299882 135.361327 
L 260.181818 133.690571 
L 270.063754 128.121524 
L 279.945691 126.82207 
L 289.827627 125.337001 
L 299.709563 120.696105 
L 309.591499 121.253024 
L 319.473436 119.025419 
L 329.355372 119.582267 
L 339.237308 118.282813 
L 349.119244 116.055209 
L 359.001181 113.641989 
L 368.883117 114.01322 
L 378.765053 112.156848 
L 388.646989 112.713767 
L 398.528926 111.6 
" clip-path="url(#p0a58c20b2f)" style="fill: none; stroke: #4c72b0; stroke-width: 1.5; stroke-linecap: round"/>
   </g>
   <g id="line2d_14">
    <path d="M 121.834711 465.792233 
L 131.716647 402.304974 
L 141.598583 334.919353 
L 151.480519 282.570116 
L 161.362456 240.802195 
L 171.244392 233.005473 
L 181.126328 213.513809 
L 191.008264 205.717087 
L 200.890201 208.501611 
L 210.772137 205.717087 
L 220.654073 207.944763 
L 230.536009 204.046402 
L 240.417946 201.261878 
L 250.299882 219.082856 
L 260.181818 196.249679 
L 270.063754 202.375645 
L 279.945691 201.818726 
L 289.827627 204.60332 
L 299.709563 200.704959 
L 309.591499 197.363517 
L 319.473436 196.806598 
L 329.355372 202.932564 
L 339.237308 205.160168 
L 349.119244 200.704959 
L 359.001181 203.489483 
L 368.883117 210.172367 
L 378.765053 203.489483 
L 388.646989 199.034203 
L 398.528926 205.160168 
" clip-path="url(#p0a58c20b2f)" style="fill: none; stroke: #c44e52; stroke-width: 1.5; stroke-linecap: round"/>
   </g>
   <g id="patch_3">
    <path d="M 108 640.8 
L 108 86.4 
" style="fill: none; stroke: #ffffff; stroke-width: 1.25; stroke-linejoin: miter; stroke-linecap: square"/>
   </g>
   <g id="patch_4">
    <path d="M 412.363636 640.8 
L 412.363636 86.4 
" style="fill: none; stroke: #ffffff; stroke-width: 1.25; stroke-linejoin: miter; stroke-linecap: square"/>
   </g>
   <g id="patch_5">
    <path d="M 108 640.8 
L 412.363636 640.8 
" style="fill: none; stroke: #ffffff; stroke-width: 1.25; stroke-linejoin: miter; stroke-linecap: square"/>
   </g>
   <g id="patch_6">
    <path d="M 108 86.4 
L 412.363636 86.4 
" style="fill: none; stroke: #ffffff; stroke-width: 1.25; stroke-linejoin: miter; stroke-linecap: square"/>
   </g>
   <g id="text_13">
    <!-- Training and validation accuracy -->
    <g style="fill: #262626" transform="translate(143.431568 80.4) scale(0.144 -0.144)">
     <defs>
      <path id="DejaVuSans-54" d="M -19 4666 
L 3928 4666 
L 3928 4134 
L 2272 4134 
L 2272 0 
L 1638 0 
L 1638 4134 
L -19 4134 
L -19 4666 
z
" transform="scale(0.015625)"/>
      <path id="DejaVuSans-72" d="M 2631 2963 
Q 2534 3019 2420 3045 
Q 2306 3072 2169 3072 
Q 1681 3072 1420 2755 
Q 1159 2438 1159 1844 
L 1159 0 
L 581 0 
L 581 3500 
L 1159 3500 
L 1159 2956 
Q 1341 3275 1631 3429 
Q 1922 3584 2338 3584 
Q 2397 3584 2469 3576 
Q 2541 3569 2628 3553 
L 2631 2963 
z
" transform="scale(0.015625)"/>
      <path id="DejaVuSans-61" d="M 2194 1759 
Q 1497 1759 1228 1600 
Q 959 1441 959 1056 
Q 959 750 1161 570 
Q 1363 391 1709 391 
Q 2188 391 2477 730 
Q 2766 1069 2766 1631 
L 2766 1759 
L 2194 1759 
z
M 3341 1997 
L 3341 0 
L 2766 0 
L 2766 531 
Q 2569 213 2275 61 
Q 1981 -91 1556 -91 
Q 1019 -91 701 211 
Q 384 513 384 1019 
Q 384 1609 779 1909 
Q 1175 2209 1959 2209 
L 2766 2209 
L 2766 2266 
Q 2766 2663 2505 2880 
Q 2244 3097 1772 3097 
Q 1472 3097 1187 3025 
Q 903 2953 641 2809 
L 641 3341 
Q 956 3463 1253 3523 
Q 1550 3584 1831 3584 
Q 2591 3584 2966 3190 
Q 3341 2797 3341 1997 
z
" transform="scale(0.015625)"/>
      <path id="DejaVuSans-69" d="M 603 3500 
L 1178 3500 
L 1178 0 
L 603 0 
L 603 3500 
z
M 603 4863 
L 1178 4863 
L 1178 4134 
L 603 4134 
L 603 4863 
z
" transform="scale(0.015625)"/>
      <path id="DejaVuSans-6e" d="M 3513 2113 
L 3513 0 
L 2938 0 
L 2938 2094 
Q 2938 2591 2744 2837 
Q 2550 3084 2163 3084 
Q 1697 3084 1428 2787 
Q 1159 2491 1159 1978 
L 1159 0 
L 581 0 
L 581 3500 
L 1159 3500 
L 1159 2956 
Q 1366 3272 1645 3428 
Q 1925 3584 2291 3584 
Q 2894 3584 3203 3211 
Q 3513 2838 3513 2113 
z
" transform="scale(0.015625)"/>
      <path id="DejaVuSans-67" d="M 2906 1791 
Q 2906 2416 2648 2759 
Q 2391 3103 1925 3103 
Q 1463 3103 1205 2759 
Q 947 2416 947 1791 
Q 947 1169 1205 825 
Q 1463 481 1925 481 
Q 2391 481 2648 825 
Q 2906 1169 2906 1791 
z
M 3481 434 
Q 3481 -459 3084 -895 
Q 2688 -1331 1869 -1331 
Q 1566 -1331 1297 -1286 
Q 1028 -1241 775 -1147 
L 775 -588 
Q 1028 -725 1275 -790 
Q 1522 -856 1778 -856 
Q 2344 -856 2625 -561 
Q 2906 -266 2906 331 
L 2906 616 
Q 2728 306 2450 153 
Q 2172 0 1784 0 
Q 1141 0 747 490 
Q 353 981 353 1791 
Q 353 2603 747 3093 
Q 1141 3584 1784 3584 
Q 2172 3584 2450 3431 
Q 2728 3278 2906 2969 
L 2906 3500 
L 3481 3500 
L 3481 434 
z
" transform="scale(0.015625)"/>
      <path id="DejaVuSans-20" transform="scale(0.015625)"/>
      <path id="DejaVuSans-64" d="M 2906 2969 
L 2906 4863 
L 3481 4863 
L 3481 0 
L 2906 0 
L 2906 525 
Q 2725 213 2448 61 
Q 2172 -91 1784 -91 
Q 1150 -91 751 415 
Q 353 922 353 1747 
Q 353 2572 751 3078 
Q 1150 3584 1784 3584 
Q 2172 3584 2448 3432 
Q 2725 3281 2906 2969 
z
M 947 1747 
Q 947 1113 1208 752 
Q 1469 391 1925 391 
Q 2381 391 2643 752 
Q 2906 1113 2906 1747 
Q 2906 2381 2643 2742 
Q 2381 3103 1925 3103 
Q 1469 3103 1208 2742 
Q 947 2381 947 1747 
z
" transform="scale(0.015625)"/>
      <path id="DejaVuSans-76" d="M 191 3500 
L 800 3500 
L 1894 563 
L 2988 3500 
L 3597 3500 
L 2284 0 
L 1503 0 
L 191 3500 
z
" transform="scale(0.015625)"/>
      <path id="DejaVuSans-6c" d="M 603 4863 
L 1178 4863 
L 1178 0 
L 603 0 
L 603 4863 
z
" transform="scale(0.015625)"/>
      <path id="DejaVuSans-74" d="M 1172 4494 
L 1172 3500 
L 2356 3500 
L 2356 3053 
L 1172 3053 
L 1172 1153 
Q 1172 725 1289 603 
Q 1406 481 1766 481 
L 2356 481 
L 2356 0 
L 1766 0 
Q 1100 0 847 248 
Q 594 497 594 1153 
L 594 3053 
L 172 3053 
L 172 3500 
L 594 3500 
L 594 4494 
L 1172 4494 
z
" transform="scale(0.015625)"/>
      <path id="DejaVuSans-6f" d="M 1959 3097 
Q 1497 3097 1228 2736 
Q 959 2375 959 1747 
Q 959 1119 1226 758 
Q 1494 397 1959 397 
Q 2419 397 2687 759 
Q 2956 1122 2956 1747 
Q 2956 2369 2687 2733 
Q 2419 3097 1959 3097 
z
M 1959 3584 
Q 2709 3584 3137 3096 
Q 3566 2609 3566 1747 
Q 3566 888 3137 398 
Q 2709 -91 1959 -91 
Q 1206 -91 779 398 
Q 353 888 353 1747 
Q 353 2609 779 3096 
Q 1206 3584 1959 3584 
z
" transform="scale(0.015625)"/>
      <path id="DejaVuSans-63" d="M 3122 3366 
L 3122 2828 
Q 2878 2963 2633 3030 
Q 2388 3097 2138 3097 
Q 1578 3097 1268 2742 
Q 959 2388 959 1747 
Q 959 1106 1268 751 
Q 1578 397 2138 397 
Q 2388 397 2633 464 
Q 2878 531 3122 666 
L 3122 134 
Q 2881 22 2623 -34 
Q 2366 -91 2075 -91 
Q 1284 -91 818 406 
Q 353 903 353 1747 
Q 353 2603 823 3093 
Q 1294 3584 2113 3584 
Q 2378 3584 2631 3529 
Q 2884 3475 3122 3366 
z
" transform="scale(0.015625)"/>
      <path id="DejaVuSans-75" d="M 544 1381 
L 544 3500 
L 1119 3500 
L 1119 1403 
Q 1119 906 1312 657 
Q 1506 409 1894 409 
Q 2359 409 2629 706 
Q 2900 1003 2900 1516 
L 2900 3500 
L 3475 3500 
L 3475 0 
L 2900 0 
L 2900 538 
Q 2691 219 2414 64 
Q 2138 -91 1772 -91 
Q 1169 -91 856 284 
Q 544 659 544 1381 
z
M 1991 3584 
L 1991 3584 
z
" transform="scale(0.015625)"/>
      <path id="DejaVuSans-79" d="M 2059 -325 
Q 1816 -950 1584 -1140 
Q 1353 -1331 966 -1331 
L 506 -1331 
L 506 -850 
L 844 -850 
Q 1081 -850 1212 -737 
Q 1344 -625 1503 -206 
L 1606 56 
L 191 3500 
L 800 3500 
L 1894 763 
L 2988 3500 
L 3597 3500 
L 2059 -325 
z
" transform="scale(0.015625)"/>
     </defs>
     <use xlink:href="#DejaVuSans-54"/>
     <use xlink:href="#DejaVuSans-72" x="46.333984"/>
     <use xlink:href="#DejaVuSans-61" x="87.447266"/>
     <use xlink:href="#DejaVuSans-69" x="148.726562"/>
     <use xlink:href="#DejaVuSans-6e" x="176.509766"/>
     <use xlink:href="#DejaVuSans-69" x="239.888672"/>
     <use xlink:href="#DejaVuSans-6e" x="267.671875"/>
     <use xlink:href="#DejaVuSans-67" x="331.050781"/>
     <use xlink:href="#DejaVuSans-20" x="394.527344"/>
     <use xlink:href="#DejaVuSans-61" x="426.314453"/>
     <use xlink:href="#DejaVuSans-6e" x="487.59375"/>
     <use xlink:href="#DejaVuSans-64" x="550.972656"/>
     <use xlink:href="#DejaVuSans-20" x="614.449219"/>
     <use xlink:href="#DejaVuSans-76" x="646.236328"/>
     <use xlink:href="#DejaVuSans-61" x="705.416016"/>
     <use xlink:href="#DejaVuSans-6c" x="766.695312"/>
     <use xlink:href="#DejaVuSans-69" x="794.478516"/>
     <use xlink:href="#DejaVuSans-64" x="822.261719"/>
     <use xlink:href="#DejaVuSans-61" x="885.738281"/>
     <use xlink:href="#DejaVuSans-74" x="947.017578"/>
     <use xlink:href="#DejaVuSans-69" x="986.226562"/>
     <use xlink:href="#DejaVuSans-6f" x="1014.009766"/>
     <use xlink:href="#DejaVuSans-6e" x="1075.191406"/>
     <use xlink:href="#DejaVuSans-20" x="1138.570312"/>
     <use xlink:href="#DejaVuSans-61" x="1170.357422"/>
     <use xlink:href="#DejaVuSans-63" x="1231.636719"/>
     <use xlink:href="#DejaVuSans-63" x="1286.617188"/>
     <use xlink:href="#DejaVuSans-75" x="1341.597656"/>
     <use xlink:href="#DejaVuSans-72" x="1404.976562"/>
     <use xlink:href="#DejaVuSans-61" x="1446.089844"/>
     <use xlink:href="#DejaVuSans-63" x="1507.369141"/>
     <use xlink:href="#DejaVuSans-79" x="1562.349609"/>
    </g>
   </g>
   <g id="legend_1">
    <g id="patch_7">
     <path d="M 268.900261 634.2 
L 403.123636 634.2 
Q 405.763636 634.2 405.763636 631.56 
L 405.763636 594.12975 
Q 405.763636 591.48975 403.123636 591.48975 
L 268.900261 591.48975 
Q 266.260261 591.48975 266.260261 594.12975 
L 266.260261 631.56 
Q 266.260261 634.2 268.900261 634.2 
z
" style="fill: #eaeaf2; opacity: 0.8; stroke: #cccccc; stroke-linejoin: miter"/>
    </g>
    <g id="line2d_15">
     <path d="M 271.540261 602.179688 
L 284.740261 602.179688 
L 297.940261 602.179688 
" style="fill: none; stroke: #4c72b0; stroke-width: 1.5; stroke-linecap: round"/>
    </g>
    <g id="text_14">
     <!-- Training acc -->
     <g style="fill: #262626" transform="translate(308.500261 606.799688) scale(0.132 -0.132)">
      <use xlink:href="#DejaVuSans-54"/>
      <use xlink:href="#DejaVuSans-72" x="46.333984"/>
      <use xlink:href="#DejaVuSans-61" x="87.447266"/>
      <use xlink:href="#DejaVuSans-69" x="148.726562"/>
      <use xlink:href="#DejaVuSans-6e" x="176.509766"/>
      <use xlink:href="#DejaVuSans-69" x="239.888672"/>
      <use xlink:href="#DejaVuSans-6e" x="267.671875"/>
      <use xlink:href="#DejaVuSans-67" x="331.050781"/>
      <use xlink:href="#DejaVuSans-20" x="394.527344"/>
      <use xlink:href="#DejaVuSans-61" x="426.314453"/>
      <use xlink:href="#DejaVuSans-63" x="487.59375"/>
      <use xlink:href="#DejaVuSans-63" x="542.574219"/>
     </g>
    </g>
    <g id="line2d_16">
     <path d="M 271.540261 621.554813 
L 284.740261 621.554813 
L 297.940261 621.554813 
" style="fill: none; stroke: #c44e52; stroke-width: 1.5; stroke-linecap: round"/>
    </g>
    <g id="text_15">
     <!-- Validation acc -->
     <g style="fill: #262626" transform="translate(308.500261 626.174813) scale(0.132 -0.132)">
      <defs>
       <path id="DejaVuSans-56" d="M 1831 0 
L 50 4666 
L 709 4666 
L 2188 738 
L 3669 4666 
L 4325 4666 
L 2547 0 
L 1831 0 
z
" transform="scale(0.015625)"/>
      </defs>
      <use xlink:href="#DejaVuSans-56"/>
      <use xlink:href="#DejaVuSans-61" x="60.658203"/>
      <use xlink:href="#DejaVuSans-6c" x="121.9375"/>
      <use xlink:href="#DejaVuSans-69" x="149.720703"/>
      <use xlink:href="#DejaVuSans-64" x="177.503906"/>
      <use xlink:href="#DejaVuSans-61" x="240.980469"/>
      <use xlink:href="#DejaVuSans-74" x="302.259766"/>
      <use xlink:href="#DejaVuSans-69" x="341.46875"/>
      <use xlink:href="#DejaVuSans-6f" x="369.251953"/>
      <use xlink:href="#DejaVuSans-6e" x="430.433594"/>
      <use xlink:href="#DejaVuSans-20" x="493.8125"/>
      <use xlink:href="#DejaVuSans-61" x="525.599609"/>
      <use xlink:href="#DejaVuSans-63" x="586.878906"/>
      <use xlink:href="#DejaVuSans-63" x="641.859375"/>
     </g>
    </g>
   </g>
  </g>
  <g id="axes_2">
   <g id="patch_8">
    <path d="M 473.236364 640.8 
L 777.6 640.8 
L 777.6 86.4 
L 473.236364 86.4 
z
" style="fill: #eaeaf2"/>
   </g>
   <g id="matplotlib.axis_3">
    <g id="xtick_8">
     <g id="line2d_17">
      <path d="M 477.189138 640.8 
L 477.189138 86.4 
" clip-path="url(#p7573497477)" style="fill: none; stroke: #ffffff; stroke-linecap: round"/>
     </g>
     <g id="text_16">
      <!-- 0 -->
      <g style="fill: #262626" transform="translate(472.989888 660.329938) scale(0.132 -0.132)">
       <use xlink:href="#DejaVuSans-30"/>
      </g>
     </g>
    </g>
    <g id="xtick_9">
     <g id="line2d_18">
      <path d="M 526.598819 640.8 
L 526.598819 86.4 
" clip-path="url(#p7573497477)" style="fill: none; stroke: #ffffff; stroke-linecap: round"/>
     </g>
     <g id="text_17">
      <!-- 5 -->
      <g style="fill: #262626" transform="translate(522.399569 660.329938) scale(0.132 -0.132)">
       <use xlink:href="#DejaVuSans-35"/>
      </g>
     </g>
    </g>
    <g id="xtick_10">
     <g id="line2d_19">
      <path d="M 576.008501 640.8 
L 576.008501 86.4 
" clip-path="url(#p7573497477)" style="fill: none; stroke: #ffffff; stroke-linecap: round"/>
     </g>
     <g id="text_18">
      <!-- 10 -->
      <g style="fill: #262626" transform="translate(567.610001 660.329938) scale(0.132 -0.132)">
       <use xlink:href="#DejaVuSans-31"/>
       <use xlink:href="#DejaVuSans-30" x="63.623047"/>
      </g>
     </g>
    </g>
    <g id="xtick_11">
     <g id="line2d_20">
      <path d="M 625.418182 640.8 
L 625.418182 86.4 
" clip-path="url(#p7573497477)" style="fill: none; stroke: #ffffff; stroke-linecap: round"/>
     </g>
     <g id="text_19">
      <!-- 15 -->
      <g style="fill: #262626" transform="translate(617.019682 660.329938) scale(0.132 -0.132)">
       <use xlink:href="#DejaVuSans-31"/>
       <use xlink:href="#DejaVuSans-35" x="63.623047"/>
      </g>
     </g>
    </g>
    <g id="xtick_12">
     <g id="line2d_21">
      <path d="M 674.827863 640.8 
L 674.827863 86.4 
" clip-path="url(#p7573497477)" style="fill: none; stroke: #ffffff; stroke-linecap: round"/>
     </g>
     <g id="text_20">
      <!-- 20 -->
      <g style="fill: #262626" transform="translate(666.429363 660.329938) scale(0.132 -0.132)">
       <use xlink:href="#DejaVuSans-32"/>
       <use xlink:href="#DejaVuSans-30" x="63.623047"/>
      </g>
     </g>
    </g>
    <g id="xtick_13">
     <g id="line2d_22">
      <path d="M 724.237544 640.8 
L 724.237544 86.4 
" clip-path="url(#p7573497477)" style="fill: none; stroke: #ffffff; stroke-linecap: round"/>
     </g>
     <g id="text_21">
      <!-- 25 -->
      <g style="fill: #262626" transform="translate(715.839044 660.329938) scale(0.132 -0.132)">
       <use xlink:href="#DejaVuSans-32"/>
       <use xlink:href="#DejaVuSans-35" x="63.623047"/>
      </g>
     </g>
    </g>
    <g id="xtick_14">
     <g id="line2d_23">
      <path d="M 773.647226 640.8 
L 773.647226 86.4 
" clip-path="url(#p7573497477)" style="fill: none; stroke: #ffffff; stroke-linecap: round"/>
     </g>
     <g id="text_22">
      <!-- 30 -->
      <g style="fill: #262626" transform="translate(765.248726 660.329938) scale(0.132 -0.132)">
       <use xlink:href="#DejaVuSans-33"/>
       <use xlink:href="#DejaVuSans-30" x="63.623047"/>
      </g>
     </g>
    </g>
   </g>
   <g id="matplotlib.axis_4">
    <g id="ytick_6">
     <g id="line2d_24">
      <path d="M 473.236364 629.520039 
L 777.6 629.520039 
" clip-path="url(#p7573497477)" style="fill: none; stroke: #ffffff; stroke-linecap: round"/>
     </g>
     <g id="text_23">
      <!-- 0.0 -->
      <g style="fill: #262626" transform="translate(442.744239 634.535008) scale(0.132 -0.132)">
       <use xlink:href="#DejaVuSans-30"/>
       <use xlink:href="#DejaVuSans-2e" x="63.623047"/>
       <use xlink:href="#DejaVuSans-30" x="95.410156"/>
      </g>
     </g>
    </g>
    <g id="ytick_7">
     <g id="line2d_25">
      <path d="M 473.236364 554.569864 
L 777.6 554.569864 
" clip-path="url(#p7573497477)" style="fill: none; stroke: #ffffff; stroke-linecap: round"/>
     </g>
     <g id="text_24">
      <!-- 0.1 -->
      <g style="fill: #262626" transform="translate(442.744239 559.584833) scale(0.132 -0.132)">
       <use xlink:href="#DejaVuSans-30"/>
       <use xlink:href="#DejaVuSans-2e" x="63.623047"/>
       <use xlink:href="#DejaVuSans-31" x="95.410156"/>
      </g>
     </g>
    </g>
    <g id="ytick_8">
     <g id="line2d_26">
      <path d="M 473.236364 479.619689 
L 777.6 479.619689 
" clip-path="url(#p7573497477)" style="fill: none; stroke: #ffffff; stroke-linecap: round"/>
     </g>
     <g id="text_25">
      <!-- 0.2 -->
      <g style="fill: #262626" transform="translate(442.744239 484.634657) scale(0.132 -0.132)">
       <use xlink:href="#DejaVuSans-30"/>
       <use xlink:href="#DejaVuSans-2e" x="63.623047"/>
       <use xlink:href="#DejaVuSans-32" x="95.410156"/>
      </g>
     </g>
    </g>
    <g id="ytick_9">
     <g id="line2d_27">
      <path d="M 473.236364 404.669514 
L 777.6 404.669514 
" clip-path="url(#p7573497477)" style="fill: none; stroke: #ffffff; stroke-linecap: round"/>
     </g>
     <g id="text_26">
      <!-- 0.3 -->
      <g style="fill: #262626" transform="translate(442.744239 409.684482) scale(0.132 -0.132)">
       <use xlink:href="#DejaVuSans-30"/>
       <use xlink:href="#DejaVuSans-2e" x="63.623047"/>
       <use xlink:href="#DejaVuSans-33" x="95.410156"/>
      </g>
     </g>
    </g>
    <g id="ytick_10">
     <g id="line2d_28">
      <path d="M 473.236364 329.719338 
L 777.6 329.719338 
" clip-path="url(#p7573497477)" style="fill: none; stroke: #ffffff; stroke-linecap: round"/>
     </g>
     <g id="text_27">
      <!-- 0.4 -->
      <g style="fill: #262626" transform="translate(442.744239 334.734307) scale(0.132 -0.132)">
       <defs>
        <path id="DejaVuSans-34" d="M 2419 4116 
L 825 1625 
L 2419 1625 
L 2419 4116 
z
M 2253 4666 
L 3047 4666 
L 3047 1625 
L 3713 1625 
L 3713 1100 
L 3047 1100 
L 3047 0 
L 2419 0 
L 2419 1100 
L 313 1100 
L 313 1709 
L 2253 4666 
z
" transform="scale(0.015625)"/>
       </defs>
       <use xlink:href="#DejaVuSans-30"/>
       <use xlink:href="#DejaVuSans-2e" x="63.623047"/>
       <use xlink:href="#DejaVuSans-34" x="95.410156"/>
      </g>
     </g>
    </g>
    <g id="ytick_11">
     <g id="line2d_29">
      <path d="M 473.236364 254.769163 
L 777.6 254.769163 
" clip-path="url(#p7573497477)" style="fill: none; stroke: #ffffff; stroke-linecap: round"/>
     </g>
     <g id="text_28">
      <!-- 0.5 -->
      <g style="fill: #262626" transform="translate(442.744239 259.784132) scale(0.132 -0.132)">
       <use xlink:href="#DejaVuSans-30"/>
       <use xlink:href="#DejaVuSans-2e" x="63.623047"/>
       <use xlink:href="#DejaVuSans-35" x="95.410156"/>
      </g>
     </g>
    </g>
    <g id="ytick_12">
     <g id="line2d_30">
      <path d="M 473.236364 179.818988 
L 777.6 179.818988 
" clip-path="url(#p7573497477)" style="fill: none; stroke: #ffffff; stroke-linecap: round"/>
     </g>
     <g id="text_29">
      <!-- 0.6 -->
      <g style="fill: #262626" transform="translate(442.744239 184.833957) scale(0.132 -0.132)">
       <use xlink:href="#DejaVuSans-30"/>
       <use xlink:href="#DejaVuSans-2e" x="63.623047"/>
       <use xlink:href="#DejaVuSans-36" x="95.410156"/>
      </g>
     </g>
    </g>
    <g id="ytick_13">
     <g id="line2d_31">
      <path d="M 473.236364 104.868813 
L 777.6 104.868813 
" clip-path="url(#p7573497477)" style="fill: none; stroke: #ffffff; stroke-linecap: round"/>
     </g>
     <g id="text_30">
      <!-- 0.7 -->
      <g style="fill: #262626" transform="translate(442.744239 109.883782) scale(0.132 -0.132)">
       <use xlink:href="#DejaVuSans-30"/>
       <use xlink:href="#DejaVuSans-2e" x="63.623047"/>
       <use xlink:href="#DejaVuSans-37" x="95.410156"/>
      </g>
     </g>
    </g>
   </g>
   <g id="line2d_32">
    <path d="M 487.071074 111.6 
L 496.953011 163.575001 
L 506.834947 254.369333 
L 516.716883 325.705997 
L 526.598819 388.641734 
L 536.480756 439.237991 
L 546.362692 463.516697 
L 556.244628 487.975382 
L 566.126564 515.971639 
L 576.008501 529.985058 
L 585.890437 544.539151 
L 595.772373 555.304328 
L 605.654309 560.983019 
L 615.536246 566.016928 
L 625.418182 567.239711 
L 635.300118 581.155199 
L 645.182054 585.519345 
L 655.063991 588.903426 
L 664.945927 596.482579 
L 674.827863 593.060255 
L 684.709799 598.31846 
L 694.591736 599.069186 
L 704.473672 602.062413 
L 714.355608 606.747186 
L 724.237544 611.322044 
L 734.119481 611.061585 
L 744.001417 611.596073 
L 753.883353 609.146693 
L 763.765289 615.6 
" clip-path="url(#p7573497477)" style="fill: none; stroke: #4c72b0; stroke-width: 1.5; stroke-linecap: round"/>
   </g>
   <g id="line2d_33">
    <path d="M 487.071074 119.27451 
L 496.953011 226.057321 
L 506.834947 304.287017 
L 516.716883 371.492808 
L 526.598819 413.016757 
L 536.480756 430.822388 
L 546.362692 446.725719 
L 556.244628 455.286825 
L 566.126564 460.964137 
L 576.008501 458.345259 
L 585.890437 444.006951 
L 595.772373 450.478406 
L 605.654309 453.26585 
L 615.536246 413.431933 
L 625.418182 454.942222 
L 635.300118 431.387377 
L 645.182054 403.934688 
L 655.063991 425.041242 
L 664.945927 380.456737 
L 674.827863 447.490423 
L 684.709799 395.657462 
L 694.591736 342.651658 
L 704.473672 348.147784 
L 714.355608 376.179334 
L 724.237544 311.547177 
L 734.119481 312.19287 
L 744.001417 357.030206 
L 753.883353 363.894914 
L 763.765289 298.983278 
" clip-path="url(#p7573497477)" style="fill: none; stroke: #c44e52; stroke-width: 1.5; stroke-linecap: round"/>
   </g>
   <g id="patch_9">
    <path d="M 473.236364 640.8 
L 473.236364 86.4 
" style="fill: none; stroke: #ffffff; stroke-width: 1.25; stroke-linejoin: miter; stroke-linecap: square"/>
   </g>
   <g id="patch_10">
    <path d="M 777.6 640.8 
L 777.6 86.4 
" style="fill: none; stroke: #ffffff; stroke-width: 1.25; stroke-linejoin: miter; stroke-linecap: square"/>
   </g>
   <g id="patch_11">
    <path d="M 473.236364 640.8 
L 777.6 640.8 
" style="fill: none; stroke: #ffffff; stroke-width: 1.25; stroke-linejoin: miter; stroke-linecap: square"/>
   </g>
   <g id="patch_12">
    <path d="M 473.236364 86.4 
L 777.6 86.4 
" style="fill: none; stroke: #ffffff; stroke-width: 1.25; stroke-linejoin: miter; stroke-linecap: square"/>
   </g>
   <g id="text_31">
    <!-- Training and validation loss -->
    <g style="fill: #262626" transform="translate(527.246182 80.4) scale(0.144 -0.144)">
     <defs>
      <path id="DejaVuSans-73" d="M 2834 3397 
L 2834 2853 
Q 2591 2978 2328 3040 
Q 2066 3103 1784 3103 
Q 1356 3103 1142 2972 
Q 928 2841 928 2578 
Q 928 2378 1081 2264 
Q 1234 2150 1697 2047 
L 1894 2003 
Q 2506 1872 2764 1633 
Q 3022 1394 3022 966 
Q 3022 478 2636 193 
Q 2250 -91 1575 -91 
Q 1294 -91 989 -36 
Q 684 19 347 128 
L 347 722 
Q 666 556 975 473 
Q 1284 391 1588 391 
Q 1994 391 2212 530 
Q 2431 669 2431 922 
Q 2431 1156 2273 1281 
Q 2116 1406 1581 1522 
L 1381 1569 
Q 847 1681 609 1914 
Q 372 2147 372 2553 
Q 372 3047 722 3315 
Q 1072 3584 1716 3584 
Q 2034 3584 2315 3537 
Q 2597 3491 2834 3397 
z
" transform="scale(0.015625)"/>
     </defs>
     <use xlink:href="#DejaVuSans-54"/>
     <use xlink:href="#DejaVuSans-72" x="46.333984"/>
     <use xlink:href="#DejaVuSans-61" x="87.447266"/>
     <use xlink:href="#DejaVuSans-69" x="148.726562"/>
     <use xlink:href="#DejaVuSans-6e" x="176.509766"/>
     <use xlink:href="#DejaVuSans-69" x="239.888672"/>
     <use xlink:href="#DejaVuSans-6e" x="267.671875"/>
     <use xlink:href="#DejaVuSans-67" x="331.050781"/>
     <use xlink:href="#DejaVuSans-20" x="394.527344"/>
     <use xlink:href="#DejaVuSans-61" x="426.314453"/>
     <use xlink:href="#DejaVuSans-6e" x="487.59375"/>
     <use xlink:href="#DejaVuSans-64" x="550.972656"/>
     <use xlink:href="#DejaVuSans-20" x="614.449219"/>
     <use xlink:href="#DejaVuSans-76" x="646.236328"/>
     <use xlink:href="#DejaVuSans-61" x="705.416016"/>
     <use xlink:href="#DejaVuSans-6c" x="766.695312"/>
     <use xlink:href="#DejaVuSans-69" x="794.478516"/>
     <use xlink:href="#DejaVuSans-64" x="822.261719"/>
     <use xlink:href="#DejaVuSans-61" x="885.738281"/>
     <use xlink:href="#DejaVuSans-74" x="947.017578"/>
     <use xlink:href="#DejaVuSans-69" x="986.226562"/>
     <use xlink:href="#DejaVuSans-6f" x="1014.009766"/>
     <use xlink:href="#DejaVuSans-6e" x="1075.191406"/>
     <use xlink:href="#DejaVuSans-20" x="1138.570312"/>
     <use xlink:href="#DejaVuSans-6c" x="1170.357422"/>
     <use xlink:href="#DejaVuSans-6f" x="1198.140625"/>
     <use xlink:href="#DejaVuSans-73" x="1259.322266"/>
     <use xlink:href="#DejaVuSans-73" x="1311.421875"/>
    </g>
   </g>
   <g id="legend_2">
    <g id="patch_13">
     <path d="M 631.245 135.71025 
L 768.36 135.71025 
Q 771 135.71025 771 133.07025 
L 771 95.64 
Q 771 93 768.36 93 
L 631.245 93 
Q 628.605 93 628.605 95.64 
L 628.605 133.07025 
Q 628.605 135.71025 631.245 135.71025 
z
" style="fill: #eaeaf2; opacity: 0.8; stroke: #cccccc; stroke-linejoin: miter"/>
    </g>
    <g id="line2d_34">
     <path d="M 633.885 103.689937 
L 647.085 103.689937 
L 660.285 103.689937 
" style="fill: none; stroke: #4c72b0; stroke-width: 1.5; stroke-linecap: round"/>
    </g>
    <g id="text_32">
     <!-- Training loss -->
     <g style="fill: #262626" transform="translate(670.845 108.309937) scale(0.132 -0.132)">
      <use xlink:href="#DejaVuSans-54"/>
      <use xlink:href="#DejaVuSans-72" x="46.333984"/>
      <use xlink:href="#DejaVuSans-61" x="87.447266"/>
      <use xlink:href="#DejaVuSans-69" x="148.726562"/>
      <use xlink:href="#DejaVuSans-6e" x="176.509766"/>
      <use xlink:href="#DejaVuSans-69" x="239.888672"/>
      <use xlink:href="#DejaVuSans-6e" x="267.671875"/>
      <use xlink:href="#DejaVuSans-67" x="331.050781"/>
      <use xlink:href="#DejaVuSans-20" x="394.527344"/>
      <use xlink:href="#DejaVuSans-6c" x="426.314453"/>
      <use xlink:href="#DejaVuSans-6f" x="454.097656"/>
      <use xlink:href="#DejaVuSans-73" x="515.279297"/>
      <use xlink:href="#DejaVuSans-73" x="567.378906"/>
     </g>
    </g>
    <g id="line2d_35">
     <path d="M 633.885 123.065062 
L 647.085 123.065062 
L 660.285 123.065062 
" style="fill: none; stroke: #c44e52; stroke-width: 1.5; stroke-linecap: round"/>
    </g>
    <g id="text_33">
     <!-- Validation loss -->
     <g style="fill: #262626" transform="translate(670.845 127.685062) scale(0.132 -0.132)">
      <use xlink:href="#DejaVuSans-56"/>
      <use xlink:href="#DejaVuSans-61" x="60.658203"/>
      <use xlink:href="#DejaVuSans-6c" x="121.9375"/>
      <use xlink:href="#DejaVuSans-69" x="149.720703"/>
      <use xlink:href="#DejaVuSans-64" x="177.503906"/>
      <use xlink:href="#DejaVuSans-61" x="240.980469"/>
      <use xlink:href="#DejaVuSans-74" x="302.259766"/>
      <use xlink:href="#DejaVuSans-69" x="341.46875"/>
      <use xlink:href="#DejaVuSans-6f" x="369.251953"/>
      <use xlink:href="#DejaVuSans-6e" x="430.433594"/>
      <use xlink:href="#DejaVuSans-20" x="493.8125"/>
      <use xlink:href="#DejaVuSans-6c" x="525.599609"/>
      <use xlink:href="#DejaVuSans-6f" x="553.382812"/>
      <use xlink:href="#DejaVuSans-73" x="614.564453"/>
      <use xlink:href="#DejaVuSans-73" x="666.664062"/>
     </g>
    </g>
   </g>
  </g>
 </g>
 <defs>
  <clipPath id="p0a58c20b2f">
   <rect x="108" y="86.4" width="304.363636" height="554.4"/>
  </clipPath>
  <clipPath id="p7573497477">
   <rect x="473.236364" y="86.4" width="304.363636" height="554.4"/>
  </clipPath>
 </defs>
</svg>
