<?xml version="1.0" encoding="utf-8" standalone="no"?>
<!DOCTYPE svg PUBLIC "-//W3C//DTD SVG 1.1//EN"
  "http://www.w3.org/Graphics/SVG/1.1/DTD/svg11.dtd">
<svg xmlns:xlink="http://www.w3.org/1999/xlink" width="931.68pt" height="478.8pt" viewBox="0 0 931.68 478.8" xmlns="http://www.w3.org/2000/svg" version="1.1">
 <metadata>
  <rdf:RDF xmlns:dc="http://purl.org/dc/elements/1.1/" xmlns:cc="http://creativecommons.org/ns#" xmlns:rdf="http://www.w3.org/1999/02/22-rdf-syntax-ns#">
   <cc:Work>
    <dc:type rdf:resource="http://purl.org/dc/dcmitype/StillImage"/>
    <dc:date>2022-11-14T18:05:18.285470</dc:date>
    <dc:format>image/svg+xml</dc:format>
    <dc:creator>
     <cc:Agent>
      <dc:title>Matplotlib v3.5.2, https://matplotlib.org/</dc:title>
     </cc:Agent>
    </dc:creator>
   </cc:Work>
  </rdf:RDF>
 </metadata>
 <defs>
  <style type="text/css">*{stroke-linejoin: round; stroke-linecap: butt}</style>
 </defs>
 <g id="figure_1">
  <g id="patch_1">
   <path d="M 0 478.8 
L 931.68 478.8 
L 931.68 0 
L 0 0 
z
" style="fill: #ffffff"/>
  </g>
  <g id="axes_1">
   <g id="patch_2">
    <path d="M 116.46 426.132 
L 444.665455 426.132 
L 444.665455 57.456 
L 116.46 57.456 
z
" style="fill: #eaeaf2"/>
   </g>
   <g id="matplotlib.axis_1">
    <g id="xtick_1">
     <g id="line2d_1">
      <path d="M 129.87909 426.132 
L 129.87909 57.456 
" clip-path="url(#peae6c6047e)" style="fill: none; stroke: #ffffff; stroke-linecap: round"/>
     </g>
     <g id="text_1">
      <!-- 0 -->
      <g style="fill: #262626" transform="translate(124.979965 447.333594)scale(0.154 -0.154)">
       <defs>
        <path id="DejaVuSans-30" d="M 2034 4250 
Q 1547 4250 1301 3770 
Q 1056 3291 1056 2328 
Q 1056 1369 1301 889 
Q 1547 409 2034 409 
Q 2525 409 2770 889 
Q 3016 1369 3016 2328 
Q 3016 3291 2770 3770 
Q 2525 4250 2034 4250 
z
M 2034 4750 
Q 2819 4750 3233 4129 
Q 3647 3509 3647 2328 
Q 3647 1150 3233 529 
Q 2819 -91 2034 -91 
Q 1250 -91 836 529 
Q 422 1150 422 2328 
Q 422 3509 836 4129 
Q 1250 4750 2034 4750 
z
" transform="scale(0.015625)"/>
       </defs>
       <use xlink:href="#DejaVuSans-30"/>
      </g>
     </g>
    </g>
    <g id="xtick_2">
     <g id="line2d_2">
      <path d="M 204.846074 426.132 
L 204.846074 57.456 
" clip-path="url(#peae6c6047e)" style="fill: none; stroke: #ffffff; stroke-linecap: round"/>
     </g>
     <g id="text_2">
      <!-- 50 -->
      <g style="fill: #262626" transform="translate(195.047824 447.333594)scale(0.154 -0.154)">
       <defs>
        <path id="DejaVuSans-35" d="M 691 4666 
L 3169 4666 
L 3169 4134 
L 1269 4134 
L 1269 2991 
Q 1406 3038 1543 3061 
Q 1681 3084 1819 3084 
Q 2600 3084 3056 2656 
Q 3513 2228 3513 1497 
Q 3513 744 3044 326 
Q 2575 -91 1722 -91 
Q 1428 -91 1123 -41 
Q 819 9 494 109 
L 494 744 
Q 775 591 1075 516 
Q 1375 441 1709 441 
Q 2250 441 2565 725 
Q 2881 1009 2881 1497 
Q 2881 1984 2565 2268 
Q 2250 2553 1709 2553 
Q 1456 2553 1204 2497 
Q 953 2441 691 2322 
L 691 4666 
z
" transform="scale(0.015625)"/>
       </defs>
       <use xlink:href="#DejaVuSans-35"/>
       <use xlink:href="#DejaVuSans-30" x="63.623047"/>
      </g>
     </g>
    </g>
    <g id="xtick_3">
     <g id="line2d_3">
      <path d="M 279.813057 426.132 
L 279.813057 57.456 
" clip-path="url(#peae6c6047e)" style="fill: none; stroke: #ffffff; stroke-linecap: round"/>
     </g>
     <g id="text_3">
      <!-- 100 -->
      <g style="fill: #262626" transform="translate(265.115682 447.333594)scale(0.154 -0.154)">
       <defs>
        <path id="DejaVuSans-31" d="M 794 531 
L 1825 531 
L 1825 4091 
L 703 3866 
L 703 4441 
L 1819 4666 
L 2450 4666 
L 2450 531 
L 3481 531 
L 3481 0 
L 794 0 
L 794 531 
z
" transform="scale(0.015625)"/>
       </defs>
       <use xlink:href="#DejaVuSans-31"/>
       <use xlink:href="#DejaVuSans-30" x="63.623047"/>
       <use xlink:href="#DejaVuSans-30" x="127.246094"/>
      </g>
     </g>
    </g>
    <g id="xtick_4">
     <g id="line2d_4">
      <path d="M 354.780041 426.132 
L 354.780041 57.456 
" clip-path="url(#peae6c6047e)" style="fill: none; stroke: #ffffff; stroke-linecap: round"/>
     </g>
     <g id="text_4">
      <!-- 150 -->
      <g style="fill: #262626" transform="translate(340.082666 447.333594)scale(0.154 -0.154)">
       <use xlink:href="#DejaVuSans-31"/>
       <use xlink:href="#DejaVuSans-35" x="63.623047"/>
       <use xlink:href="#DejaVuSans-30" x="127.246094"/>
      </g>
     </g>
    </g>
    <g id="xtick_5">
     <g id="line2d_5">
      <path d="M 429.747025 426.132 
L 429.747025 57.456 
" clip-path="url(#peae6c6047e)" style="fill: none; stroke: #ffffff; stroke-linecap: round"/>
     </g>
     <g id="text_5">
      <!-- 200 -->
      <g style="fill: #262626" transform="translate(415.04965 447.333594)scale(0.154 -0.154)">
       <defs>
        <path id="DejaVuSans-32" d="M 1228 531 
L 3431 531 
L 3431 0 
L 469 0 
L 469 531 
Q 828 903 1448 1529 
Q 2069 2156 2228 2338 
Q 2531 2678 2651 2914 
Q 2772 3150 2772 3378 
Q 2772 3750 2511 3984 
Q 2250 4219 1831 4219 
Q 1534 4219 1204 4116 
Q 875 4013 500 3803 
L 500 4441 
Q 881 4594 1212 4672 
Q 1544 4750 1819 4750 
Q 2544 4750 2975 4387 
Q 3406 4025 3406 3419 
Q 3406 3131 3298 2873 
Q 3191 2616 2906 2266 
Q 2828 2175 2409 1742 
Q 1991 1309 1228 531 
z
" transform="scale(0.015625)"/>
       </defs>
       <use xlink:href="#DejaVuSans-32"/>
       <use xlink:href="#DejaVuSans-30" x="63.623047"/>
       <use xlink:href="#DejaVuSans-30" x="127.246094"/>
      </g>
     </g>
    </g>
   </g>
   <g id="matplotlib.axis_2">
    <g id="ytick_1">
     <g id="line2d_6">
      <path d="M 116.46 424.172061 
L 444.665455 424.172061 
" clip-path="url(#peae6c6047e)" style="fill: none; stroke: #ffffff; stroke-linecap: round"/>
     </g>
     <g id="text_6">
      <!-- 0.52 -->
      <g style="fill: #262626" transform="translate(72.670937 430.022858)scale(0.154 -0.154)">
       <defs>
        <path id="DejaVuSans-2e" d="M 684 794 
L 1344 794 
L 1344 0 
L 684 0 
L 684 794 
z
" transform="scale(0.015625)"/>
       </defs>
       <use xlink:href="#DejaVuSans-30"/>
       <use xlink:href="#DejaVuSans-2e" x="63.623047"/>
       <use xlink:href="#DejaVuSans-35" x="95.410156"/>
       <use xlink:href="#DejaVuSans-32" x="159.033203"/>
      </g>
     </g>
    </g>
    <g id="ytick_2">
     <g id="line2d_7">
      <path d="M 116.46 364.490044 
L 444.665455 364.490044 
" clip-path="url(#peae6c6047e)" style="fill: none; stroke: #ffffff; stroke-linecap: round"/>
     </g>
     <g id="text_7">
      <!-- 0.54 -->
      <g style="fill: #262626" transform="translate(72.670937 370.34084)scale(0.154 -0.154)">
       <defs>
        <path id="DejaVuSans-34" d="M 2419 4116 
L 825 1625 
L 2419 1625 
L 2419 4116 
z
M 2253 4666 
L 3047 4666 
L 3047 1625 
L 3713 1625 
L 3713 1100 
L 3047 1100 
L 3047 0 
L 2419 0 
L 2419 1100 
L 313 1100 
L 313 1709 
L 2253 4666 
z
" transform="scale(0.015625)"/>
       </defs>
       <use xlink:href="#DejaVuSans-30"/>
       <use xlink:href="#DejaVuSans-2e" x="63.623047"/>
       <use xlink:href="#DejaVuSans-35" x="95.410156"/>
       <use xlink:href="#DejaVuSans-34" x="159.033203"/>
      </g>
     </g>
    </g>
    <g id="ytick_3">
     <g id="line2d_8">
      <path d="M 116.46 304.808026 
L 444.665455 304.808026 
" clip-path="url(#peae6c6047e)" style="fill: none; stroke: #ffffff; stroke-linecap: round"/>
     </g>
     <g id="text_8">
      <!-- 0.56 -->
      <g style="fill: #262626" transform="translate(72.670937 310.658823)scale(0.154 -0.154)">
       <defs>
        <path id="DejaVuSans-36" d="M 2113 2584 
Q 1688 2584 1439 2293 
Q 1191 2003 1191 1497 
Q 1191 994 1439 701 
Q 1688 409 2113 409 
Q 2538 409 2786 701 
Q 3034 994 3034 1497 
Q 3034 2003 2786 2293 
Q 2538 2584 2113 2584 
z
M 3366 4563 
L 3366 3988 
Q 3128 4100 2886 4159 
Q 2644 4219 2406 4219 
Q 1781 4219 1451 3797 
Q 1122 3375 1075 2522 
Q 1259 2794 1537 2939 
Q 1816 3084 2150 3084 
Q 2853 3084 3261 2657 
Q 3669 2231 3669 1497 
Q 3669 778 3244 343 
Q 2819 -91 2113 -91 
Q 1303 -91 875 529 
Q 447 1150 447 2328 
Q 447 3434 972 4092 
Q 1497 4750 2381 4750 
Q 2619 4750 2861 4703 
Q 3103 4656 3366 4563 
z
" transform="scale(0.015625)"/>
       </defs>
       <use xlink:href="#DejaVuSans-30"/>
       <use xlink:href="#DejaVuSans-2e" x="63.623047"/>
       <use xlink:href="#DejaVuSans-35" x="95.410156"/>
       <use xlink:href="#DejaVuSans-36" x="159.033203"/>
      </g>
     </g>
    </g>
    <g id="ytick_4">
     <g id="line2d_9">
      <path d="M 116.46 245.126008 
L 444.665455 245.126008 
" clip-path="url(#peae6c6047e)" style="fill: none; stroke: #ffffff; stroke-linecap: round"/>
     </g>
     <g id="text_9">
      <!-- 0.58 -->
      <g style="fill: #262626" transform="translate(72.670937 250.976805)scale(0.154 -0.154)">
       <defs>
        <path id="DejaVuSans-38" d="M 2034 2216 
Q 1584 2216 1326 1975 
Q 1069 1734 1069 1313 
Q 1069 891 1326 650 
Q 1584 409 2034 409 
Q 2484 409 2743 651 
Q 3003 894 3003 1313 
Q 3003 1734 2745 1975 
Q 2488 2216 2034 2216 
z
M 1403 2484 
Q 997 2584 770 2862 
Q 544 3141 544 3541 
Q 544 4100 942 4425 
Q 1341 4750 2034 4750 
Q 2731 4750 3128 4425 
Q 3525 4100 3525 3541 
Q 3525 3141 3298 2862 
Q 3072 2584 2669 2484 
Q 3125 2378 3379 2068 
Q 3634 1759 3634 1313 
Q 3634 634 3220 271 
Q 2806 -91 2034 -91 
Q 1263 -91 848 271 
Q 434 634 434 1313 
Q 434 1759 690 2068 
Q 947 2378 1403 2484 
z
M 1172 3481 
Q 1172 3119 1398 2916 
Q 1625 2713 2034 2713 
Q 2441 2713 2670 2916 
Q 2900 3119 2900 3481 
Q 2900 3844 2670 4047 
Q 2441 4250 2034 4250 
Q 1625 4250 1398 4047 
Q 1172 3844 1172 3481 
z
" transform="scale(0.015625)"/>
       </defs>
       <use xlink:href="#DejaVuSans-30"/>
       <use xlink:href="#DejaVuSans-2e" x="63.623047"/>
       <use xlink:href="#DejaVuSans-35" x="95.410156"/>
       <use xlink:href="#DejaVuSans-38" x="159.033203"/>
      </g>
     </g>
    </g>
    <g id="ytick_5">
     <g id="line2d_10">
      <path d="M 116.46 185.44399 
L 444.665455 185.44399 
" clip-path="url(#peae6c6047e)" style="fill: none; stroke: #ffffff; stroke-linecap: round"/>
     </g>
     <g id="text_10">
      <!-- 0.60 -->
      <g style="fill: #262626" transform="translate(72.670937 191.294787)scale(0.154 -0.154)">
       <use xlink:href="#DejaVuSans-30"/>
       <use xlink:href="#DejaVuSans-2e" x="63.623047"/>
       <use xlink:href="#DejaVuSans-36" x="95.410156"/>
       <use xlink:href="#DejaVuSans-30" x="159.033203"/>
      </g>
     </g>
    </g>
    <g id="ytick_6">
     <g id="line2d_11">
      <path d="M 116.46 125.761973 
L 444.665455 125.761973 
" clip-path="url(#peae6c6047e)" style="fill: none; stroke: #ffffff; stroke-linecap: round"/>
     </g>
     <g id="text_11">
      <!-- 0.62 -->
      <g style="fill: #262626" transform="translate(72.670937 131.612769)scale(0.154 -0.154)">
       <use xlink:href="#DejaVuSans-30"/>
       <use xlink:href="#DejaVuSans-2e" x="63.623047"/>
       <use xlink:href="#DejaVuSans-36" x="95.410156"/>
       <use xlink:href="#DejaVuSans-32" x="159.033203"/>
      </g>
     </g>
    </g>
    <g id="ytick_7">
     <g id="line2d_12">
      <path d="M 116.46 66.079955 
L 444.665455 66.079955 
" clip-path="url(#peae6c6047e)" style="fill: none; stroke: #ffffff; stroke-linecap: round"/>
     </g>
     <g id="text_12">
      <!-- 0.64 -->
      <g style="fill: #262626" transform="translate(72.670937 71.930752)scale(0.154 -0.154)">
       <use xlink:href="#DejaVuSans-30"/>
       <use xlink:href="#DejaVuSans-2e" x="63.623047"/>
       <use xlink:href="#DejaVuSans-36" x="95.410156"/>
       <use xlink:href="#DejaVuSans-34" x="159.033203"/>
      </g>
     </g>
    </g>
   </g>
   <g id="line2d_13">
    <path d="M 131.37843 409.374 
L 132.877769 309.414044 
L 134.377109 264.334015 
L 135.876449 265.804079 
L 137.375788 262.86395 
L 138.875128 263.353971 
L 140.374468 261.884085 
L 141.873807 261.394063 
L 143.373147 261.394063 
L 144.872487 261.884085 
L 146.371826 261.884085 
L 147.871166 261.394063 
L 149.370506 261.884085 
L 156.867204 261.884085 
L 158.366544 261.394063 
L 159.865884 261.884085 
L 165.863242 261.884085 
L 167.362582 260.904041 
L 168.861922 261.394063 
L 177.85796 261.394063 
L 179.357299 259.433977 
L 180.856639 260.904041 
L 182.355979 258.943955 
L 183.855318 261.394063 
L 185.354658 260.904041 
L 186.853998 259.433977 
L 189.852677 261.394063 
L 191.352017 258.453933 
L 192.851356 258.943955 
L 194.350696 260.904041 
L 198.848715 256.494025 
L 200.348055 257.474068 
L 203.346734 253.554073 
L 204.846074 254.044095 
L 206.345413 254.044095 
L 207.844753 251.593987 
L 209.344093 253.554073 
L 210.843432 254.533939 
L 212.342772 249.634079 
L 213.842112 247.183971 
L 215.341451 246.693949 
L 216.840791 244.734041 
L 218.340131 240.324024 
L 219.83947 241.794089 
L 221.33881 244.734041 
L 222.83815 240.324024 
L 224.33749 229.544083 
L 225.836829 233.953921 
L 227.336169 223.17398 
L 228.835509 224.154023 
L 230.334848 223.664002 
L 231.834188 217.294077 
L 233.333528 206.513958 
L 234.832867 213.374082 
L 236.332207 202.593963 
L 237.831547 200.144033 
L 239.330886 198.673968 
L 240.830226 193.77393 
L 242.329566 182.993989 
L 243.828905 178.093951 
L 245.328245 175.153999 
L 246.827585 173.683935 
L 248.326924 170.253962 
L 249.826264 164.374058 
L 251.325604 161.433929 
L 254.324283 154.573982 
L 255.823623 154.083961 
L 257.322962 146.243971 
L 258.822302 148.204057 
L 260.321642 138.894003 
L 261.820981 137.91396 
L 263.320321 123.214024 
L 264.819661 124.193889 
L 266.319 128.603906 
L 267.81834 116.3539 
L 269.31768 111.45404 
L 270.817019 112.433905 
L 272.316359 115.374034 
L 273.815699 108.51391 
L 275.315038 105.573958 
L 276.814378 106.554002 
L 278.313718 107.044023 
L 279.813057 104.103894 
L 281.312397 99.204034 
L 282.811737 102.143985 
L 284.311076 98.22399 
L 285.810416 98.714012 
L 287.309756 90.874022 
L 288.809095 96.753926 
L 290.308435 103.124028 
L 291.807775 96.263904 
L 293.307114 91.853888 
L 294.806454 93.323952 
L 296.305794 91.364044 
L 297.805134 95.773882 
L 299.304473 86.464006 
L 300.803813 93.813974 
L 302.303153 90.384001 
L 305.301832 89.403958 
L 306.801172 90.874022 
L 308.300511 95.773882 
L 309.799851 82.544011 
L 311.299191 90.384001 
L 312.79853 83.523876 
L 314.29787 86.954028 
L 315.79721 83.034033 
L 317.296549 86.954028 
L 318.795889 87.933893 
L 320.295229 83.523876 
L 321.794568 83.523876 
L 323.293908 80.093903 
L 324.793248 88.423914 
L 326.292587 84.013898 
L 327.791927 81.073946 
L 329.291267 84.993941 
L 330.790606 84.993941 
L 332.289946 87.444049 
L 333.789286 79.603882 
L 335.288625 87.933893 
L 336.787965 83.523876 
L 338.287305 85.483963 
L 339.786644 78.624016 
L 341.285984 79.603882 
L 342.785324 79.603882 
L 344.284663 83.523876 
L 345.784003 83.523876 
L 347.283343 84.50392 
L 348.782682 83.034033 
L 350.282022 82.544011 
L 351.781362 76.66393 
L 353.280701 86.464006 
L 354.780041 75.683887 
L 356.279381 83.034033 
L 357.77872 81.073946 
L 359.27806 74.214 
L 360.7774 84.993941 
L 362.276739 79.603882 
L 363.776079 80.583925 
L 365.275419 79.603882 
L 366.774759 84.013898 
L 368.274098 80.583925 
L 369.773438 80.093903 
L 371.272778 78.133995 
L 372.772117 84.50392 
L 374.271457 82.544011 
L 375.770797 86.464006 
L 377.270136 79.114038 
L 378.769476 81.563968 
L 380.268816 82.544011 
L 381.768155 81.073946 
L 383.267495 80.093903 
L 384.766835 80.583925 
L 386.266174 82.05399 
L 387.765514 82.05399 
L 389.264854 84.50392 
L 390.764193 84.50392 
L 392.263533 79.603882 
L 393.762873 83.523876 
L 395.262212 80.093903 
L 396.761552 82.05399 
L 398.260892 81.073946 
L 399.760231 85.973984 
L 401.259571 80.583925 
L 402.758911 80.093903 
L 404.25825 78.624016 
L 405.75759 80.583925 
L 407.25693 83.034033 
L 408.756269 80.583925 
L 410.255609 83.034033 
L 411.754949 80.093903 
L 413.254288 80.093903 
L 414.753628 84.50392 
L 416.252968 84.013898 
L 417.752307 79.114038 
L 419.251647 87.933893 
L 420.750987 82.05399 
L 422.250326 83.034033 
L 423.749666 79.114038 
L 425.249006 79.603882 
L 426.748345 81.073946 
L 428.247685 85.483963 
L 429.747025 79.114038 
L 429.747025 79.114038 
" clip-path="url(#peae6c6047e)" style="fill: none; stroke: #4c72b0; stroke-width: 1.5; stroke-linecap: round"/>
   </g>
   <g id="line2d_14">
    <path d="M 131.37843 248.885439 
L 132.877769 241.053276 
L 201.847394 241.053276 
L 203.346734 233.220935 
L 209.344093 233.220935 
L 210.843432 229.304853 
L 215.341451 229.304853 
L 216.840791 225.388593 
L 221.33881 225.388593 
L 222.83815 213.64017 
L 224.33749 213.64017 
L 225.836829 217.55643 
L 230.334848 217.55643 
L 231.834188 221.472511 
L 233.333528 221.472511 
L 234.832867 194.059584 
L 236.332207 194.059584 
L 237.831547 190.143324 
L 245.328245 190.143324 
L 246.827585 162.730396 
L 248.326924 166.646478 
L 249.826264 166.646478 
L 251.325604 147.065713 
L 254.324283 147.065713 
L 255.823623 150.981973 
L 261.820981 150.981973 
L 263.320321 139.23355 
L 266.319 139.23355 
L 267.81834 115.736704 
L 276.814378 115.736704 
L 278.313718 119.652785 
L 279.813057 119.652785 
L 281.312397 123.568867 
L 288.809095 123.568867 
L 290.308435 127.485127 
L 291.807775 127.485127 
L 293.307114 131.401208 
L 294.806454 131.401208 
L 296.305794 127.485127 
L 303.802492 127.485127 
L 305.301832 123.568867 
L 311.299191 123.568867 
L 314.29787 115.736704 
L 317.296549 115.736704 
L 318.795889 103.988281 
L 335.288625 103.988281 
L 336.787965 115.736704 
L 354.780041 115.736704 
L 356.279381 111.820444 
L 420.750987 111.820444 
L 422.250326 115.736704 
L 423.749666 111.820444 
L 428.247685 111.820444 
L 429.747025 115.736704 
L 429.747025 115.736704 
" clip-path="url(#peae6c6047e)" style="fill: none; stroke: #c44e52; stroke-width: 1.5; stroke-linecap: round"/>
   </g>
   <g id="patch_3">
    <path d="M 116.46 426.132 
L 116.46 57.456 
" style="fill: none; stroke: #ffffff; stroke-width: 1.25; stroke-linejoin: miter; stroke-linecap: square"/>
   </g>
   <g id="patch_4">
    <path d="M 444.665455 426.132 
L 444.665455 57.456 
" style="fill: none; stroke: #ffffff; stroke-width: 1.25; stroke-linejoin: miter; stroke-linecap: square"/>
   </g>
   <g id="patch_5">
    <path d="M 116.46 426.132 
L 444.665455 426.132 
" style="fill: none; stroke: #ffffff; stroke-width: 1.25; stroke-linejoin: miter; stroke-linecap: square"/>
   </g>
   <g id="patch_6">
    <path d="M 116.46 57.456 
L 444.665455 57.456 
" style="fill: none; stroke: #ffffff; stroke-width: 1.25; stroke-linejoin: miter; stroke-linecap: square"/>
   </g>
   <g id="text_13">
    <!-- Training and validation accuracy -->
    <g style="fill: #262626" transform="translate(144.354102 51.456)scale(0.168 -0.168)">
     <defs>
      <path id="DejaVuSans-54" d="M -19 4666 
L 3928 4666 
L 3928 4134 
L 2272 4134 
L 2272 0 
L 1638 0 
L 1638 4134 
L -19 4134 
L -19 4666 
z
" transform="scale(0.015625)"/>
      <path id="DejaVuSans-72" d="M 2631 2963 
Q 2534 3019 2420 3045 
Q 2306 3072 2169 3072 
Q 1681 3072 1420 2755 
Q 1159 2438 1159 1844 
L 1159 0 
L 581 0 
L 581 3500 
L 1159 3500 
L 1159 2956 
Q 1341 3275 1631 3429 
Q 1922 3584 2338 3584 
Q 2397 3584 2469 3576 
Q 2541 3569 2628 3553 
L 2631 2963 
z
" transform="scale(0.015625)"/>
      <path id="DejaVuSans-61" d="M 2194 1759 
Q 1497 1759 1228 1600 
Q 959 1441 959 1056 
Q 959 750 1161 570 
Q 1363 391 1709 391 
Q 2188 391 2477 730 
Q 2766 1069 2766 1631 
L 2766 1759 
L 2194 1759 
z
M 3341 1997 
L 3341 0 
L 2766 0 
L 2766 531 
Q 2569 213 2275 61 
Q 1981 -91 1556 -91 
Q 1019 -91 701 211 
Q 384 513 384 1019 
Q 384 1609 779 1909 
Q 1175 2209 1959 2209 
L 2766 2209 
L 2766 2266 
Q 2766 2663 2505 2880 
Q 2244 3097 1772 3097 
Q 1472 3097 1187 3025 
Q 903 2953 641 2809 
L 641 3341 
Q 956 3463 1253 3523 
Q 1550 3584 1831 3584 
Q 2591 3584 2966 3190 
Q 3341 2797 3341 1997 
z
" transform="scale(0.015625)"/>
      <path id="DejaVuSans-69" d="M 603 3500 
L 1178 3500 
L 1178 0 
L 603 0 
L 603 3500 
z
M 603 4863 
L 1178 4863 
L 1178 4134 
L 603 4134 
L 603 4863 
z
" transform="scale(0.015625)"/>
      <path id="DejaVuSans-6e" d="M 3513 2113 
L 3513 0 
L 2938 0 
L 2938 2094 
Q 2938 2591 2744 2837 
Q 2550 3084 2163 3084 
Q 1697 3084 1428 2787 
Q 1159 2491 1159 1978 
L 1159 0 
L 581 0 
L 581 3500 
L 1159 3500 
L 1159 2956 
Q 1366 3272 1645 3428 
Q 1925 3584 2291 3584 
Q 2894 3584 3203 3211 
Q 3513 2838 3513 2113 
z
" transform="scale(0.015625)"/>
      <path id="DejaVuSans-67" d="M 2906 1791 
Q 2906 2416 2648 2759 
Q 2391 3103 1925 3103 
Q 1463 3103 1205 2759 
Q 947 2416 947 1791 
Q 947 1169 1205 825 
Q 1463 481 1925 481 
Q 2391 481 2648 825 
Q 2906 1169 2906 1791 
z
M 3481 434 
Q 3481 -459 3084 -895 
Q 2688 -1331 1869 -1331 
Q 1566 -1331 1297 -1286 
Q 1028 -1241 775 -1147 
L 775 -588 
Q 1028 -725 1275 -790 
Q 1522 -856 1778 -856 
Q 2344 -856 2625 -561 
Q 2906 -266 2906 331 
L 2906 616 
Q 2728 306 2450 153 
Q 2172 0 1784 0 
Q 1141 0 747 490 
Q 353 981 353 1791 
Q 353 2603 747 3093 
Q 1141 3584 1784 3584 
Q 2172 3584 2450 3431 
Q 2728 3278 2906 2969 
L 2906 3500 
L 3481 3500 
L 3481 434 
z
" transform="scale(0.015625)"/>
      <path id="DejaVuSans-20" transform="scale(0.015625)"/>
      <path id="DejaVuSans-64" d="M 2906 2969 
L 2906 4863 
L 3481 4863 
L 3481 0 
L 2906 0 
L 2906 525 
Q 2725 213 2448 61 
Q 2172 -91 1784 -91 
Q 1150 -91 751 415 
Q 353 922 353 1747 
Q 353 2572 751 3078 
Q 1150 3584 1784 3584 
Q 2172 3584 2448 3432 
Q 2725 3281 2906 2969 
z
M 947 1747 
Q 947 1113 1208 752 
Q 1469 391 1925 391 
Q 2381 391 2643 752 
Q 2906 1113 2906 1747 
Q 2906 2381 2643 2742 
Q 2381 3103 1925 3103 
Q 1469 3103 1208 2742 
Q 947 2381 947 1747 
z
" transform="scale(0.015625)"/>
      <path id="DejaVuSans-76" d="M 191 3500 
L 800 3500 
L 1894 563 
L 2988 3500 
L 3597 3500 
L 2284 0 
L 1503 0 
L 191 3500 
z
" transform="scale(0.015625)"/>
      <path id="DejaVuSans-6c" d="M 603 4863 
L 1178 4863 
L 1178 0 
L 603 0 
L 603 4863 
z
" transform="scale(0.015625)"/>
      <path id="DejaVuSans-74" d="M 1172 4494 
L 1172 3500 
L 2356 3500 
L 2356 3053 
L 1172 3053 
L 1172 1153 
Q 1172 725 1289 603 
Q 1406 481 1766 481 
L 2356 481 
L 2356 0 
L 1766 0 
Q 1100 0 847 248 
Q 594 497 594 1153 
L 594 3053 
L 172 3053 
L 172 3500 
L 594 3500 
L 594 4494 
L 1172 4494 
z
" transform="scale(0.015625)"/>
      <path id="DejaVuSans-6f" d="M 1959 3097 
Q 1497 3097 1228 2736 
Q 959 2375 959 1747 
Q 959 1119 1226 758 
Q 1494 397 1959 397 
Q 2419 397 2687 759 
Q 2956 1122 2956 1747 
Q 2956 2369 2687 2733 
Q 2419 3097 1959 3097 
z
M 1959 3584 
Q 2709 3584 3137 3096 
Q 3566 2609 3566 1747 
Q 3566 888 3137 398 
Q 2709 -91 1959 -91 
Q 1206 -91 779 398 
Q 353 888 353 1747 
Q 353 2609 779 3096 
Q 1206 3584 1959 3584 
z
" transform="scale(0.015625)"/>
      <path id="DejaVuSans-63" d="M 3122 3366 
L 3122 2828 
Q 2878 2963 2633 3030 
Q 2388 3097 2138 3097 
Q 1578 3097 1268 2742 
Q 959 2388 959 1747 
Q 959 1106 1268 751 
Q 1578 397 2138 397 
Q 2388 397 2633 464 
Q 2878 531 3122 666 
L 3122 134 
Q 2881 22 2623 -34 
Q 2366 -91 2075 -91 
Q 1284 -91 818 406 
Q 353 903 353 1747 
Q 353 2603 823 3093 
Q 1294 3584 2113 3584 
Q 2378 3584 2631 3529 
Q 2884 3475 3122 3366 
z
" transform="scale(0.015625)"/>
      <path id="DejaVuSans-75" d="M 544 1381 
L 544 3500 
L 1119 3500 
L 1119 1403 
Q 1119 906 1312 657 
Q 1506 409 1894 409 
Q 2359 409 2629 706 
Q 2900 1003 2900 1516 
L 2900 3500 
L 3475 3500 
L 3475 0 
L 2900 0 
L 2900 538 
Q 2691 219 2414 64 
Q 2138 -91 1772 -91 
Q 1169 -91 856 284 
Q 544 659 544 1381 
z
M 1991 3584 
L 1991 3584 
z
" transform="scale(0.015625)"/>
      <path id="DejaVuSans-79" d="M 2059 -325 
Q 1816 -950 1584 -1140 
Q 1353 -1331 966 -1331 
L 506 -1331 
L 506 -850 
L 844 -850 
Q 1081 -850 1212 -737 
Q 1344 -625 1503 -206 
L 1606 56 
L 191 3500 
L 800 3500 
L 1894 763 
L 2988 3500 
L 3597 3500 
L 2059 -325 
z
" transform="scale(0.015625)"/>
     </defs>
     <use xlink:href="#DejaVuSans-54"/>
     <use xlink:href="#DejaVuSans-72" x="46.333984"/>
     <use xlink:href="#DejaVuSans-61" x="87.447266"/>
     <use xlink:href="#DejaVuSans-69" x="148.726562"/>
     <use xlink:href="#DejaVuSans-6e" x="176.509766"/>
     <use xlink:href="#DejaVuSans-69" x="239.888672"/>
     <use xlink:href="#DejaVuSans-6e" x="267.671875"/>
     <use xlink:href="#DejaVuSans-67" x="331.050781"/>
     <use xlink:href="#DejaVuSans-20" x="394.527344"/>
     <use xlink:href="#DejaVuSans-61" x="426.314453"/>
     <use xlink:href="#DejaVuSans-6e" x="487.59375"/>
     <use xlink:href="#DejaVuSans-64" x="550.972656"/>
     <use xlink:href="#DejaVuSans-20" x="614.449219"/>
     <use xlink:href="#DejaVuSans-76" x="646.236328"/>
     <use xlink:href="#DejaVuSans-61" x="705.416016"/>
     <use xlink:href="#DejaVuSans-6c" x="766.695312"/>
     <use xlink:href="#DejaVuSans-69" x="794.478516"/>
     <use xlink:href="#DejaVuSans-64" x="822.261719"/>
     <use xlink:href="#DejaVuSans-61" x="885.738281"/>
     <use xlink:href="#DejaVuSans-74" x="947.017578"/>
     <use xlink:href="#DejaVuSans-69" x="986.226562"/>
     <use xlink:href="#DejaVuSans-6f" x="1014.009766"/>
     <use xlink:href="#DejaVuSans-6e" x="1075.191406"/>
     <use xlink:href="#DejaVuSans-20" x="1138.570312"/>
     <use xlink:href="#DejaVuSans-61" x="1170.357422"/>
     <use xlink:href="#DejaVuSans-63" x="1231.636719"/>
     <use xlink:href="#DejaVuSans-63" x="1286.617188"/>
     <use xlink:href="#DejaVuSans-75" x="1341.597656"/>
     <use xlink:href="#DejaVuSans-72" x="1404.976562"/>
     <use xlink:href="#DejaVuSans-61" x="1446.089844"/>
     <use xlink:href="#DejaVuSans-63" x="1507.369141"/>
     <use xlink:href="#DejaVuSans-79" x="1562.349609"/>
    </g>
   </g>
   <g id="legend_1">
    <g id="patch_7">
     <path d="M 277.291517 418.432 
L 433.885455 418.432 
Q 436.965455 418.432 436.965455 415.352 
L 436.965455 371.683375 
Q 436.965455 368.603375 433.885455 368.603375 
L 277.291517 368.603375 
Q 274.211517 368.603375 274.211517 371.683375 
L 274.211517 415.352 
Q 274.211517 418.432 277.291517 418.432 
z
" style="fill: #eaeaf2; opacity: 0.8; stroke: #cccccc; stroke-linejoin: miter"/>
    </g>
    <g id="line2d_15">
     <path d="M 280.371517 381.074969 
L 295.771517 381.074969 
L 311.171517 381.074969 
" style="fill: none; stroke: #4c72b0; stroke-width: 1.5; stroke-linecap: round"/>
    </g>
    <g id="text_14">
     <!-- Training acc -->
     <g style="fill: #262626" transform="translate(323.491517 386.464969)scale(0.154 -0.154)">
      <use xlink:href="#DejaVuSans-54"/>
      <use xlink:href="#DejaVuSans-72" x="46.333984"/>
      <use xlink:href="#DejaVuSans-61" x="87.447266"/>
      <use xlink:href="#DejaVuSans-69" x="148.726562"/>
      <use xlink:href="#DejaVuSans-6e" x="176.509766"/>
      <use xlink:href="#DejaVuSans-69" x="239.888672"/>
      <use xlink:href="#DejaVuSans-6e" x="267.671875"/>
      <use xlink:href="#DejaVuSans-67" x="331.050781"/>
      <use xlink:href="#DejaVuSans-20" x="394.527344"/>
      <use xlink:href="#DejaVuSans-61" x="426.314453"/>
      <use xlink:href="#DejaVuSans-63" x="487.59375"/>
      <use xlink:href="#DejaVuSans-63" x="542.574219"/>
     </g>
    </g>
    <g id="line2d_16">
     <path d="M 280.371517 403.679281 
L 295.771517 403.679281 
L 311.171517 403.679281 
" style="fill: none; stroke: #c44e52; stroke-width: 1.5; stroke-linecap: round"/>
    </g>
    <g id="text_15">
     <!-- Validation acc -->
     <g style="fill: #262626" transform="translate(323.491517 409.069281)scale(0.154 -0.154)">
      <defs>
       <path id="DejaVuSans-56" d="M 1831 0 
L 50 4666 
L 709 4666 
L 2188 738 
L 3669 4666 
L 4325 4666 
L 2547 0 
L 1831 0 
z
" transform="scale(0.015625)"/>
      </defs>
      <use xlink:href="#DejaVuSans-56"/>
      <use xlink:href="#DejaVuSans-61" x="60.658203"/>
      <use xlink:href="#DejaVuSans-6c" x="121.9375"/>
      <use xlink:href="#DejaVuSans-69" x="149.720703"/>
      <use xlink:href="#DejaVuSans-64" x="177.503906"/>
      <use xlink:href="#DejaVuSans-61" x="240.980469"/>
      <use xlink:href="#DejaVuSans-74" x="302.259766"/>
      <use xlink:href="#DejaVuSans-69" x="341.46875"/>
      <use xlink:href="#DejaVuSans-6f" x="369.251953"/>
      <use xlink:href="#DejaVuSans-6e" x="430.433594"/>
      <use xlink:href="#DejaVuSans-20" x="493.8125"/>
      <use xlink:href="#DejaVuSans-61" x="525.599609"/>
      <use xlink:href="#DejaVuSans-63" x="586.878906"/>
      <use xlink:href="#DejaVuSans-63" x="641.859375"/>
     </g>
    </g>
   </g>
  </g>
  <g id="axes_2">
   <g id="patch_8">
    <path d="M 510.306545 426.132 
L 838.512 426.132 
L 838.512 57.456 
L 510.306545 57.456 
z
" style="fill: #eaeaf2"/>
   </g>
   <g id="matplotlib.axis_3">
    <g id="xtick_6">
     <g id="line2d_17">
      <path d="M 523.725636 426.132 
L 523.725636 57.456 
" clip-path="url(#p5838ce21ce)" style="fill: none; stroke: #ffffff; stroke-linecap: round"/>
     </g>
     <g id="text_16">
      <!-- 0 -->
      <g style="fill: #262626" transform="translate(518.826511 447.333594)scale(0.154 -0.154)">
       <use xlink:href="#DejaVuSans-30"/>
      </g>
     </g>
    </g>
    <g id="xtick_7">
     <g id="line2d_18">
      <path d="M 598.692619 426.132 
L 598.692619 57.456 
" clip-path="url(#p5838ce21ce)" style="fill: none; stroke: #ffffff; stroke-linecap: round"/>
     </g>
     <g id="text_17">
      <!-- 50 -->
      <g style="fill: #262626" transform="translate(588.894369 447.333594)scale(0.154 -0.154)">
       <use xlink:href="#DejaVuSans-35"/>
       <use xlink:href="#DejaVuSans-30" x="63.623047"/>
      </g>
     </g>
    </g>
    <g id="xtick_8">
     <g id="line2d_19">
      <path d="M 673.659603 426.132 
L 673.659603 57.456 
" clip-path="url(#p5838ce21ce)" style="fill: none; stroke: #ffffff; stroke-linecap: round"/>
     </g>
     <g id="text_18">
      <!-- 100 -->
      <g style="fill: #262626" transform="translate(658.962228 447.333594)scale(0.154 -0.154)">
       <use xlink:href="#DejaVuSans-31"/>
       <use xlink:href="#DejaVuSans-30" x="63.623047"/>
       <use xlink:href="#DejaVuSans-30" x="127.246094"/>
      </g>
     </g>
    </g>
    <g id="xtick_9">
     <g id="line2d_20">
      <path d="M 748.626587 426.132 
L 748.626587 57.456 
" clip-path="url(#p5838ce21ce)" style="fill: none; stroke: #ffffff; stroke-linecap: round"/>
     </g>
     <g id="text_19">
      <!-- 150 -->
      <g style="fill: #262626" transform="translate(733.929212 447.333594)scale(0.154 -0.154)">
       <use xlink:href="#DejaVuSans-31"/>
       <use xlink:href="#DejaVuSans-35" x="63.623047"/>
       <use xlink:href="#DejaVuSans-30" x="127.246094"/>
      </g>
     </g>
    </g>
    <g id="xtick_10">
     <g id="line2d_21">
      <path d="M 823.59357 426.132 
L 823.59357 57.456 
" clip-path="url(#p5838ce21ce)" style="fill: none; stroke: #ffffff; stroke-linecap: round"/>
     </g>
     <g id="text_20">
      <!-- 200 -->
      <g style="fill: #262626" transform="translate(808.896195 447.333594)scale(0.154 -0.154)">
       <use xlink:href="#DejaVuSans-32"/>
       <use xlink:href="#DejaVuSans-30" x="63.623047"/>
       <use xlink:href="#DejaVuSans-30" x="127.246094"/>
      </g>
     </g>
    </g>
   </g>
   <g id="matplotlib.axis_4">
    <g id="ytick_8">
     <g id="line2d_22">
      <path d="M 510.306545 360.134772 
L 838.512 360.134772 
" clip-path="url(#p5838ce21ce)" style="fill: none; stroke: #ffffff; stroke-linecap: round"/>
     </g>
     <g id="text_21">
      <!-- 0.65 -->
      <g style="fill: #262626" transform="translate(466.517483 365.985569)scale(0.154 -0.154)">
       <use xlink:href="#DejaVuSans-30"/>
       <use xlink:href="#DejaVuSans-2e" x="63.623047"/>
       <use xlink:href="#DejaVuSans-36" x="95.410156"/>
       <use xlink:href="#DejaVuSans-35" x="159.033203"/>
      </g>
     </g>
    </g>
    <g id="ytick_9">
     <g id="line2d_23">
      <path d="M 510.306545 291.858555 
L 838.512 291.858555 
" clip-path="url(#p5838ce21ce)" style="fill: none; stroke: #ffffff; stroke-linecap: round"/>
     </g>
     <g id="text_22">
      <!-- 0.66 -->
      <g style="fill: #262626" transform="translate(466.517483 297.709352)scale(0.154 -0.154)">
       <use xlink:href="#DejaVuSans-30"/>
       <use xlink:href="#DejaVuSans-2e" x="63.623047"/>
       <use xlink:href="#DejaVuSans-36" x="95.410156"/>
       <use xlink:href="#DejaVuSans-36" x="159.033203"/>
      </g>
     </g>
    </g>
    <g id="ytick_10">
     <g id="line2d_24">
      <path d="M 510.306545 223.582338 
L 838.512 223.582338 
" clip-path="url(#p5838ce21ce)" style="fill: none; stroke: #ffffff; stroke-linecap: round"/>
     </g>
     <g id="text_23">
      <!-- 0.67 -->
      <g style="fill: #262626" transform="translate(466.517483 229.433135)scale(0.154 -0.154)">
       <defs>
        <path id="DejaVuSans-37" d="M 525 4666 
L 3525 4666 
L 3525 4397 
L 1831 0 
L 1172 0 
L 2766 4134 
L 525 4134 
L 525 4666 
z
" transform="scale(0.015625)"/>
       </defs>
       <use xlink:href="#DejaVuSans-30"/>
       <use xlink:href="#DejaVuSans-2e" x="63.623047"/>
       <use xlink:href="#DejaVuSans-36" x="95.410156"/>
       <use xlink:href="#DejaVuSans-37" x="159.033203"/>
      </g>
     </g>
    </g>
    <g id="ytick_11">
     <g id="line2d_25">
      <path d="M 510.306545 155.306121 
L 838.512 155.306121 
" clip-path="url(#p5838ce21ce)" style="fill: none; stroke: #ffffff; stroke-linecap: round"/>
     </g>
     <g id="text_24">
      <!-- 0.68 -->
      <g style="fill: #262626" transform="translate(466.517483 161.156918)scale(0.154 -0.154)">
       <use xlink:href="#DejaVuSans-30"/>
       <use xlink:href="#DejaVuSans-2e" x="63.623047"/>
       <use xlink:href="#DejaVuSans-36" x="95.410156"/>
       <use xlink:href="#DejaVuSans-38" x="159.033203"/>
      </g>
     </g>
    </g>
    <g id="ytick_12">
     <g id="line2d_26">
      <path d="M 510.306545 87.029904 
L 838.512 87.029904 
" clip-path="url(#p5838ce21ce)" style="fill: none; stroke: #ffffff; stroke-linecap: round"/>
     </g>
     <g id="text_25">
      <!-- 0.69 -->
      <g style="fill: #262626" transform="translate(466.517483 92.880701)scale(0.154 -0.154)">
       <defs>
        <path id="DejaVuSans-39" d="M 703 97 
L 703 672 
Q 941 559 1184 500 
Q 1428 441 1663 441 
Q 2288 441 2617 861 
Q 2947 1281 2994 2138 
Q 2813 1869 2534 1725 
Q 2256 1581 1919 1581 
Q 1219 1581 811 2004 
Q 403 2428 403 3163 
Q 403 3881 828 4315 
Q 1253 4750 1959 4750 
Q 2769 4750 3195 4129 
Q 3622 3509 3622 2328 
Q 3622 1225 3098 567 
Q 2575 -91 1691 -91 
Q 1453 -91 1209 -44 
Q 966 3 703 97 
z
M 1959 2075 
Q 2384 2075 2632 2365 
Q 2881 2656 2881 3163 
Q 2881 3666 2632 3958 
Q 2384 4250 1959 4250 
Q 1534 4250 1286 3958 
Q 1038 3666 1038 3163 
Q 1038 2656 1286 2365 
Q 1534 2075 1959 2075 
z
" transform="scale(0.015625)"/>
       </defs>
       <use xlink:href="#DejaVuSans-30"/>
       <use xlink:href="#DejaVuSans-2e" x="63.623047"/>
       <use xlink:href="#DejaVuSans-36" x="95.410156"/>
       <use xlink:href="#DejaVuSans-39" x="159.033203"/>
      </g>
     </g>
    </g>
   </g>
   <g id="line2d_27">
    <path d="M 525.224975 74.214 
L 528.223655 102.041379 
L 529.722994 111.744885 
L 531.222334 124.07978 
L 532.721674 123.634161 
L 534.221013 129.21152 
L 535.720353 136.255963 
L 537.219693 134.090133 
L 540.218372 145.054801 
L 541.717712 143.934446 
L 543.217051 140.878191 
L 544.716391 148.996189 
L 546.215731 148.698703 
L 547.71507 144.920912 
L 549.21441 146.188586 
L 550.71375 147.979608 
L 552.213089 153.354709 
L 553.712429 151.313408 
L 555.211769 152.196506 
L 556.711108 156.928614 
L 558.210448 154.543433 
L 559.709788 152.797583 
L 561.209127 158.969915 
L 562.708467 158.892593 
L 564.207807 161.064934 
L 565.707146 153.209832 
L 567.206486 157.111338 
L 570.205165 160.890349 
L 571.704505 158.622373 
L 573.203845 163.130246 
L 574.703184 160.822794 
L 576.202524 169.269614 
L 577.701864 166.010695 
L 579.201203 167.311332 
L 580.700543 167.220174 
L 582.199883 172.107332 
L 583.699222 162.252845 
L 585.198562 172.199711 
L 586.697902 171.623459 
L 588.197241 170.013533 
L 589.696581 173.015662 
L 591.195921 170.132772 
L 592.695261 175.691818 
L 594.1946 180.67339 
L 595.69394 176.583056 
L 597.19328 180.829255 
L 598.692619 187.4586 
L 600.191959 184.184216 
L 601.691299 188.058049 
L 603.190638 187.385348 
L 604.689978 194.647106 
L 606.189318 190.777342 
L 607.688657 190.284109 
L 609.187997 195.186732 
L 610.687337 204.482059 
L 612.186676 198.9047 
L 613.686016 202.82167 
L 615.185356 205.07052 
L 616.684695 202.306055 
L 618.184035 207.993699 
L 621.182714 207.768651 
L 622.682054 209.891751 
L 624.181394 215.155345 
L 625.680733 213.699657 
L 627.180073 221.076177 
L 628.679413 221.71795 
L 630.178752 225.156744 
L 631.678092 223.220438 
L 633.177432 230.878166 
L 634.676771 231.156119 
L 636.176111 227.993648 
L 637.675451 239.199236 
L 639.17479 241.277163 
L 640.67413 242.325894 
L 642.17347 245.085476 
L 643.672809 246.806094 
L 645.172149 246.113859 
L 646.671489 251.747785 
L 648.170828 246.495585 
L 649.670168 248.822978 
L 651.169508 261.528613 
L 652.668847 266.043811 
L 654.168187 262.938722 
L 655.667527 268.229989 
L 657.166866 270.838997 
L 658.666206 267.519034 
L 660.165546 280.114383 
L 661.664886 280.135545 
L 663.164225 275.939401 
L 664.663565 280.778538 
L 666.162905 290.506462 
L 667.662244 287.207253 
L 669.161584 296.233174 
L 670.660924 288.089538 
L 672.160263 298.979326 
L 673.659603 295.770463 
L 675.158943 299.927945 
L 676.658282 313.040538 
L 678.157622 301.005163 
L 679.656962 301.682341 
L 681.156301 313.230994 
L 682.655641 311.886812 
L 684.154981 319.642617 
L 685.65432 321.180511 
L 688.653 325.780764 
L 690.152339 321.250101 
L 691.651679 329.85482 
L 693.151019 330.721234 
L 694.650358 325.88169 
L 696.149698 342.216169 
L 697.649038 334.575533 
L 699.148377 335.020338 
L 700.647717 343.910742 
L 702.147057 345.793329 
L 703.646396 339.40531 
L 705.145736 343.733715 
L 706.645076 357.112865 
L 708.144415 348.884582 
L 711.143095 355.234347 
L 712.642434 345.19917 
L 714.141774 357.360702 
L 717.140453 358.248278 
L 718.639793 360.200048 
L 720.139133 363.480943 
L 721.638472 359.455315 
L 723.137812 371.467086 
L 724.637152 369.002142 
L 726.136491 371.007224 
L 727.635831 368.009164 
L 729.135171 361.42255 
L 730.63451 372.521921 
L 732.13385 360.750255 
L 735.13253 376.022167 
L 736.631869 385.192558 
L 738.131209 385.899444 
L 739.630549 377.460763 
L 741.129888 381.064783 
L 742.629228 372.315594 
L 744.128568 381.002518 
L 745.627907 392.653725 
L 747.127247 386.101295 
L 748.626587 376.584176 
L 750.125926 378.812678 
L 751.625266 386.787019 
L 754.623945 387.452395 
L 756.123285 400.022513 
L 757.622625 384.731881 
L 759.121964 396.296813 
L 760.621304 377.622733 
L 762.120644 384.318412 
L 763.619983 386.579877 
L 765.119323 385.113608 
L 766.618663 391.668073 
L 768.118002 392.929236 
L 769.617342 391.761266 
L 771.116682 393.109111 
L 772.616021 398.112252 
L 774.115361 389.492882 
L 775.614701 393.537231 
L 777.11404 399.202493 
L 778.61338 385.156745 
L 780.11272 392.090902 
L 781.612059 385.05175 
L 783.111399 399.711597 
L 784.610739 391.492267 
L 786.110078 391.238325 
L 787.609418 396.98213 
L 789.108758 392.289905 
L 790.608097 393.239338 
L 792.107437 392.420131 
L 793.606777 396.487676 
L 795.106116 409.374 
L 796.605456 395.255 
L 798.104796 396.378611 
L 799.604135 402.001143 
L 801.103475 392.160492 
L 802.602815 402.429669 
L 804.102154 397.948248 
L 805.601494 400.380229 
L 807.100834 400.414413 
L 808.600174 396.578428 
L 810.099513 399.738456 
L 811.598853 398.316952 
L 813.098193 387.576924 
L 814.597532 387.422687 
L 816.096872 394.184294 
L 817.596212 396.57273 
L 819.095551 400.727364 
L 820.594891 389.689036 
L 822.094231 395.462956 
L 823.59357 404.111627 
L 823.59357 404.111627 
" clip-path="url(#p5838ce21ce)" style="fill: none; stroke: #4c72b0; stroke-width: 1.5; stroke-linecap: round"/>
   </g>
   <g id="line2d_28">
    <path d="M 525.224975 84.01192 
L 526.724315 99.870258 
L 528.223655 112.454212 
L 529.722994 123.348884 
L 531.222334 132.080167 
L 532.721674 138.172328 
L 535.720353 147.438354 
L 537.219693 149.297745 
L 538.719032 151.735016 
L 540.218372 153.876836 
L 541.717712 155.276771 
L 543.217051 156.312072 
L 546.215731 159.021191 
L 555.211769 164.064622 
L 561.209127 167.447663 
L 565.707146 169.554891 
L 568.705826 171.028893 
L 571.704505 172.821543 
L 574.703184 174.654889 
L 576.202524 175.840357 
L 580.700543 178.660983 
L 582.199883 179.918483 
L 583.699222 180.709202 
L 588.197241 184.159392 
L 591.195921 186.250749 
L 595.69394 190.228763 
L 597.19328 191.472834 
L 598.692619 192.972474 
L 601.691299 195.622177 
L 607.688657 201.491325 
L 610.687337 204.717281 
L 613.686016 208.040092 
L 615.185356 209.847393 
L 616.684695 211.309186 
L 619.683375 214.942913 
L 621.182714 216.596791 
L 627.180073 224.086038 
L 630.178752 228.335086 
L 631.678092 230.332029 
L 633.177432 232.696455 
L 637.675451 238.871635 
L 642.17347 245.766317 
L 643.672809 248.094523 
L 645.172149 250.159835 
L 649.670168 256.963358 
L 654.168187 264.793229 
L 660.165546 274.37302 
L 661.664886 276.962087 
L 663.164225 279.261399 
L 667.662244 286.859711 
L 675.158943 298.715211 
L 676.658282 301.292882 
L 679.656962 305.841859 
L 681.156301 308.283606 
L 682.655641 310.47304 
L 687.15366 317.627768 
L 688.653 319.881908 
L 690.152339 321.842632 
L 691.651679 324.269322 
L 697.649038 332.995722 
L 699.148377 334.910459 
L 700.647717 337.20733 
L 705.145736 342.292677 
L 706.645076 344.349035 
L 709.643755 347.799632 
L 711.143095 349.881629 
L 712.642434 351.283192 
L 715.641114 354.774484 
L 723.137812 362.706502 
L 726.136491 365.629274 
L 730.63451 368.969178 
L 732.13385 369.72083 
L 733.63319 370.722353 
L 741.129888 377.030202 
L 744.128568 378.685707 
L 745.627907 379.885012 
L 747.127247 380.866188 
L 750.125926 382.3642 
L 753.124606 383.864247 
L 754.623945 384.461254 
L 759.121964 386.754055 
L 760.621304 387.187466 
L 765.119323 388.984185 
L 766.618663 389.349226 
L 768.118002 389.837983 
L 771.116682 391.428782 
L 772.616021 391.507324 
L 774.115361 392.081135 
L 775.614701 392.490535 
L 777.11404 393.315032 
L 780.11272 394.10453 
L 781.612059 394.279115 
L 783.111399 395.013267 
L 784.610739 395.094252 
L 787.609418 396.203619 
L 790.608097 396.274023 
L 792.107437 396.893413 
L 793.606777 397.107473 
L 795.106116 397.681691 
L 798.104796 398.012141 
L 799.604135 397.76878 
L 801.103475 398.60345 
L 804.102154 398.872043 
L 805.601494 399.396612 
L 807.100834 399.397425 
L 808.600174 399.903274 
L 810.099513 400.12059 
L 813.098193 400.257328 
L 814.597532 400.464062 
L 816.096872 400.831138 
L 817.596212 400.700505 
L 819.095551 400.817709 
L 820.594891 401.239724 
L 822.094231 401.346347 
L 823.59357 401.889229 
L 823.59357 401.889229 
" clip-path="url(#p5838ce21ce)" style="fill: none; stroke: #c44e52; stroke-width: 1.5; stroke-linecap: round"/>
   </g>
   <g id="patch_9">
    <path d="M 510.306545 426.132 
L 510.306545 57.456 
" style="fill: none; stroke: #ffffff; stroke-width: 1.25; stroke-linejoin: miter; stroke-linecap: square"/>
   </g>
   <g id="patch_10">
    <path d="M 838.512 426.132 
L 838.512 57.456 
" style="fill: none; stroke: #ffffff; stroke-width: 1.25; stroke-linejoin: miter; stroke-linecap: square"/>
   </g>
   <g id="patch_11">
    <path d="M 510.306545 426.132 
L 838.512 426.132 
" style="fill: none; stroke: #ffffff; stroke-width: 1.25; stroke-linejoin: miter; stroke-linecap: square"/>
   </g>
   <g id="patch_12">
    <path d="M 510.306545 57.456 
L 838.512 57.456 
" style="fill: none; stroke: #ffffff; stroke-width: 1.25; stroke-linejoin: miter; stroke-linecap: square"/>
   </g>
   <g id="text_26">
    <!-- Training and validation loss -->
    <g style="fill: #262626" transform="translate(559.875273 51.456)scale(0.168 -0.168)">
     <defs>
      <path id="DejaVuSans-73" d="M 2834 3397 
L 2834 2853 
Q 2591 2978 2328 3040 
Q 2066 3103 1784 3103 
Q 1356 3103 1142 2972 
Q 928 2841 928 2578 
Q 928 2378 1081 2264 
Q 1234 2150 1697 2047 
L 1894 2003 
Q 2506 1872 2764 1633 
Q 3022 1394 3022 966 
Q 3022 478 2636 193 
Q 2250 -91 1575 -91 
Q 1294 -91 989 -36 
Q 684 19 347 128 
L 347 722 
Q 666 556 975 473 
Q 1284 391 1588 391 
Q 1994 391 2212 530 
Q 2431 669 2431 922 
Q 2431 1156 2273 1281 
Q 2116 1406 1581 1522 
L 1381 1569 
Q 847 1681 609 1914 
Q 372 2147 372 2553 
Q 372 3047 722 3315 
Q 1072 3584 1716 3584 
Q 2034 3584 2315 3537 
Q 2597 3491 2834 3397 
z
" transform="scale(0.015625)"/>
     </defs>
     <use xlink:href="#DejaVuSans-54"/>
     <use xlink:href="#DejaVuSans-72" x="46.333984"/>
     <use xlink:href="#DejaVuSans-61" x="87.447266"/>
     <use xlink:href="#DejaVuSans-69" x="148.726562"/>
     <use xlink:href="#DejaVuSans-6e" x="176.509766"/>
     <use xlink:href="#DejaVuSans-69" x="239.888672"/>
     <use xlink:href="#DejaVuSans-6e" x="267.671875"/>
     <use xlink:href="#DejaVuSans-67" x="331.050781"/>
     <use xlink:href="#DejaVuSans-20" x="394.527344"/>
     <use xlink:href="#DejaVuSans-61" x="426.314453"/>
     <use xlink:href="#DejaVuSans-6e" x="487.59375"/>
     <use xlink:href="#DejaVuSans-64" x="550.972656"/>
     <use xlink:href="#DejaVuSans-20" x="614.449219"/>
     <use xlink:href="#DejaVuSans-76" x="646.236328"/>
     <use xlink:href="#DejaVuSans-61" x="705.416016"/>
     <use xlink:href="#DejaVuSans-6c" x="766.695312"/>
     <use xlink:href="#DejaVuSans-69" x="794.478516"/>
     <use xlink:href="#DejaVuSans-64" x="822.261719"/>
     <use xlink:href="#DejaVuSans-61" x="885.738281"/>
     <use xlink:href="#DejaVuSans-74" x="947.017578"/>
     <use xlink:href="#DejaVuSans-69" x="986.226562"/>
     <use xlink:href="#DejaVuSans-6f" x="1014.009766"/>
     <use xlink:href="#DejaVuSans-6e" x="1075.191406"/>
     <use xlink:href="#DejaVuSans-20" x="1138.570312"/>
     <use xlink:href="#DejaVuSans-6c" x="1170.357422"/>
     <use xlink:href="#DejaVuSans-6f" x="1198.140625"/>
     <use xlink:href="#DejaVuSans-73" x="1259.322266"/>
     <use xlink:href="#DejaVuSans-73" x="1311.421875"/>
    </g>
   </g>
   <g id="legend_2">
    <g id="patch_13">
     <path d="M 667.7645 114.984625 
L 827.732 114.984625 
Q 830.812 114.984625 830.812 111.904625 
L 830.812 68.236 
Q 830.812 65.156 827.732 65.156 
L 667.7645 65.156 
Q 664.6845 65.156 664.6845 68.236 
L 664.6845 111.904625 
Q 664.6845 114.984625 667.7645 114.984625 
z
" style="fill: #eaeaf2; opacity: 0.8; stroke: #cccccc; stroke-linejoin: miter"/>
    </g>
    <g id="line2d_29">
     <path d="M 670.8445 77.627594 
L 686.2445 77.627594 
L 701.6445 77.627594 
" style="fill: none; stroke: #4c72b0; stroke-width: 1.5; stroke-linecap: round"/>
    </g>
    <g id="text_27">
     <!-- Training loss -->
     <g style="fill: #262626" transform="translate(713.9645 83.017594)scale(0.154 -0.154)">
      <use xlink:href="#DejaVuSans-54"/>
      <use xlink:href="#DejaVuSans-72" x="46.333984"/>
      <use xlink:href="#DejaVuSans-61" x="87.447266"/>
      <use xlink:href="#DejaVuSans-69" x="148.726562"/>
      <use xlink:href="#DejaVuSans-6e" x="176.509766"/>
      <use xlink:href="#DejaVuSans-69" x="239.888672"/>
      <use xlink:href="#DejaVuSans-6e" x="267.671875"/>
      <use xlink:href="#DejaVuSans-67" x="331.050781"/>
      <use xlink:href="#DejaVuSans-20" x="394.527344"/>
      <use xlink:href="#DejaVuSans-6c" x="426.314453"/>
      <use xlink:href="#DejaVuSans-6f" x="454.097656"/>
      <use xlink:href="#DejaVuSans-73" x="515.279297"/>
      <use xlink:href="#DejaVuSans-73" x="567.378906"/>
     </g>
    </g>
    <g id="line2d_30">
     <path d="M 670.8445 100.231906 
L 686.2445 100.231906 
L 701.6445 100.231906 
" style="fill: none; stroke: #c44e52; stroke-width: 1.5; stroke-linecap: round"/>
    </g>
    <g id="text_28">
     <!-- Validation loss -->
     <g style="fill: #262626" transform="translate(713.9645 105.621906)scale(0.154 -0.154)">
      <use xlink:href="#DejaVuSans-56"/>
      <use xlink:href="#DejaVuSans-61" x="60.658203"/>
      <use xlink:href="#DejaVuSans-6c" x="121.9375"/>
      <use xlink:href="#DejaVuSans-69" x="149.720703"/>
      <use xlink:href="#DejaVuSans-64" x="177.503906"/>
      <use xlink:href="#DejaVuSans-61" x="240.980469"/>
      <use xlink:href="#DejaVuSans-74" x="302.259766"/>
      <use xlink:href="#DejaVuSans-69" x="341.46875"/>
      <use xlink:href="#DejaVuSans-6f" x="369.251953"/>
      <use xlink:href="#DejaVuSans-6e" x="430.433594"/>
      <use xlink:href="#DejaVuSans-20" x="493.8125"/>
      <use xlink:href="#DejaVuSans-6c" x="525.599609"/>
      <use xlink:href="#DejaVuSans-6f" x="553.382812"/>
      <use xlink:href="#DejaVuSans-73" x="614.564453"/>
      <use xlink:href="#DejaVuSans-73" x="666.664062"/>
     </g>
    </g>
   </g>
  </g>
 </g>
 <defs>
  <clipPath id="peae6c6047e">
   <rect x="116.46" y="57.456" width="328.205455" height="368.676"/>
  </clipPath>
  <clipPath id="p5838ce21ce">
   <rect x="510.306545" y="57.456" width="328.205455" height="368.676"/>
  </clipPath>
 </defs>
</svg>
